M48
;DRILL file {KiCad 4.0.5} date Fri Feb 17 16:45:08 2017
;FORMAT={-:-/ absolute / inch / decimal}
FMAT,2
INCH,TZ
T1C0.016
T2C0.024
T3C0.031
T4C0.045
T5C0.060
T6C0.082
T7C0.098
T8C0.120
%
G90
G05
M72
T1
X5.8Y-3.5
X5.95Y-3.725
X6.15Y-3.5
X6.2Y-3.725
X7.5Y-3.15
X7.65Y-3.25
X7.65Y-3.825
X7.65Y-3.925
X7.7Y-4.225
X7.7Y-4.625
X7.775Y-4.525
X7.825Y-4.525
X7.85Y-4.625
X8.35Y-4.6
T2
X5.8Y-3.625
X5.85Y-3.625
X5.9Y-3.625
X6.475Y-5.2
X6.525Y-5.2
X6.575Y-5.2
X6.825Y-5.175
X6.875Y-5.175
X6.925Y-5.175
T3
X5.2Y-4.7
X5.2984Y-4.7
X6.6Y-4.4
X6.6Y-4.4787
X6.8Y-4.25
X6.8Y-4.35
X6.8Y-4.45
X6.8Y-4.55
X6.9Y-4.75
X6.9787Y-4.75
X7.1Y-4.25
X7.1Y-4.35
X7.1Y-4.45
X7.1Y-4.55
X7.1016Y-3.6
X7.2Y-3.6
X7.3Y-4.25
X7.3Y-4.55
X7.4Y-4.25
X7.4Y-4.55
X7.5Y-4.25
X7.5Y-4.55
X7.6Y-4.25
X7.6Y-4.55
X7.8Y-3.85
X7.9Y-3.85
X7.95Y-4.575
X7.975Y-3.575
X7.975Y-3.6537
X8.Y-3.85
X8.0287Y-4.575
T4
X5.8Y-2.975
X5.9Y-2.975
X6.Y-2.975
X7.5Y-2.975
X7.6Y-2.975
X7.7Y-2.975
X7.975Y-4.35
X8.075Y-4.35
X8.175Y-4.35
T5
X5.225Y-4.025
X5.225Y-4.225
X5.225Y-4.425
X5.225Y-4.975
X5.225Y-5.175
X8.275Y-3.6
X8.275Y-3.8
X8.3Y-4.8
X8.3Y-5.
X8.3Y-5.2
T6
X5.8955Y-5.2996
X5.8959Y-5.0992
X5.8963Y-4.9
X7.5955Y-5.2996
X7.5959Y-5.0992
X7.5963Y-4.9
T7
X5.4Y-2.8
X6.4Y-2.8
X7.1Y-2.8
X8.1Y-2.8
T8
X5.175Y-2.8
X5.2Y-5.45
X8.325Y-2.8
X8.325Y-5.45
T0
M30
