G04 #@! TF.FileFunction,Copper,L2,Bot,Signal*
%FSLAX46Y46*%
G04 Gerber Fmt 4.6, Leading zero omitted, Abs format (unit mm)*
G04 Created by KiCad (PCBNEW 4.0.5) date Sat Mar 18 13:09:48 2017*
%MOMM*%
%LPD*%
G01*
G04 APERTURE LIST*
%ADD10C,0.100000*%
%ADD11R,1.600000X1.600000*%
%ADD12C,1.600000*%
%ADD13C,4.000000*%
%ADD14R,3.000000X3.000000*%
%ADD15C,3.000000*%
%ADD16C,1.440000*%
%ADD17R,1.600000X2.400000*%
%ADD18O,1.600000X2.400000*%
%ADD19O,2.032000X2.540000*%
%ADD20O,0.899160X1.501140*%
%ADD21R,0.899160X1.501140*%
%ADD22R,2.400000X1.600000*%
%ADD23O,2.400000X1.600000*%
%ADD24C,0.600000*%
%ADD25C,0.250000*%
%ADD26C,0.254000*%
G04 APERTURE END LIST*
D10*
D11*
X202565000Y-90805000D03*
D12*
X202565000Y-92805000D03*
D11*
X132080000Y-119380000D03*
D12*
X134580000Y-119380000D03*
D11*
X182880000Y-91440000D03*
D12*
X180380000Y-91440000D03*
D11*
X167640000Y-111760000D03*
D12*
X167640000Y-113760000D03*
D11*
X175260000Y-120650000D03*
D12*
X177260000Y-120650000D03*
D11*
X201930000Y-116205000D03*
D12*
X203930000Y-116205000D03*
D13*
X180340000Y-71120000D03*
X205740000Y-71120000D03*
X137160000Y-71120000D03*
X162560000Y-71120000D03*
D14*
X210185000Y-91440000D03*
D15*
X210185000Y-96520000D03*
D14*
X132715000Y-126365000D03*
D15*
X132715000Y-131445000D03*
D14*
X132715000Y-112395000D03*
D15*
X132715000Y-107315000D03*
X132715000Y-102235000D03*
D14*
X210820000Y-121920000D03*
D15*
X210820000Y-127000000D03*
X210820000Y-132080000D03*
D16*
X198120000Y-97790000D03*
X200660000Y-97790000D03*
X203200000Y-97790000D03*
D13*
X192925000Y-134610000D03*
X192935000Y-129520000D03*
X192945000Y-124460000D03*
X149745000Y-134610000D03*
X149755000Y-129520000D03*
X149765000Y-124460000D03*
D17*
X193040000Y-107950000D03*
D18*
X185420000Y-115570000D03*
X190500000Y-107950000D03*
X187960000Y-115570000D03*
X187960000Y-107950000D03*
X190500000Y-115570000D03*
X185420000Y-107950000D03*
X193040000Y-115570000D03*
D19*
X193040000Y-75565000D03*
X195580000Y-75565000D03*
X190500000Y-75565000D03*
X149860000Y-75565000D03*
X152400000Y-75565000D03*
X147320000Y-75565000D03*
D20*
X148590000Y-92075000D03*
X147320000Y-92075000D03*
D21*
X149860000Y-92075000D03*
D20*
X174625000Y-131445000D03*
X173355000Y-131445000D03*
D21*
X175895000Y-131445000D03*
D20*
X165735000Y-132080000D03*
X167005000Y-132080000D03*
D21*
X164465000Y-132080000D03*
D22*
X172720000Y-107950000D03*
D23*
X180340000Y-115570000D03*
X172720000Y-110490000D03*
X180340000Y-113030000D03*
X172720000Y-113030000D03*
X180340000Y-110490000D03*
X172720000Y-115570000D03*
X180340000Y-107950000D03*
D19*
X205105000Y-110490000D03*
X207645000Y-110490000D03*
X202565000Y-110490000D03*
D24*
X212090000Y-116840000D03*
X156210000Y-88900000D03*
X147320000Y-88900000D03*
X151130000Y-94615000D03*
X157480000Y-94615000D03*
X199390000Y-117475000D03*
X198755000Y-114935000D03*
X197485000Y-114935000D03*
X195580000Y-117475000D03*
X195580000Y-107315000D03*
X194310000Y-99695000D03*
X194310000Y-97155000D03*
X190500000Y-80010000D03*
X194310000Y-82550000D03*
D25*
X212725000Y-116205000D02*
X212725000Y-112395000D01*
X212090000Y-116840000D02*
X212725000Y-116205000D01*
X210185000Y-91440000D02*
X211455000Y-91440000D01*
X211455000Y-91440000D02*
X212725000Y-92710000D01*
X205105000Y-113030000D02*
X201930000Y-116205000D01*
X212090000Y-113030000D02*
X205105000Y-113030000D01*
X212725000Y-112395000D02*
X212090000Y-113030000D01*
X212725000Y-92710000D02*
X212725000Y-112395000D01*
X156210000Y-88900000D02*
X147320000Y-88900000D01*
X157480000Y-94615000D02*
X151130000Y-94615000D01*
X180340000Y-107950000D02*
X177165000Y-107950000D01*
X138430000Y-105410000D02*
X132715000Y-111125000D01*
X174625000Y-105410000D02*
X138430000Y-105410000D01*
X177165000Y-107950000D02*
X174625000Y-105410000D01*
X132715000Y-111125000D02*
X132715000Y-112395000D01*
X207645000Y-110490000D02*
X207645000Y-107950000D01*
X207645000Y-107950000D02*
X205105000Y-105410000D01*
X205105000Y-105410000D02*
X182880000Y-105410000D01*
X182880000Y-105410000D02*
X180340000Y-107950000D01*
X199390000Y-115570000D02*
X199390000Y-117475000D01*
X198755000Y-114935000D02*
X199390000Y-115570000D01*
X207010000Y-127000000D02*
X210820000Y-127000000D01*
X198120000Y-118110000D02*
X207010000Y-127000000D01*
X198120000Y-115570000D02*
X198120000Y-118110000D01*
X197485000Y-114935000D02*
X198120000Y-115570000D01*
X195580000Y-107315000D02*
X195580000Y-117475000D01*
X194310000Y-97155000D02*
X194310000Y-99695000D01*
X191770000Y-80010000D02*
X190500000Y-80010000D01*
X194310000Y-82550000D02*
X191770000Y-80010000D01*
D26*
G36*
X212635995Y-60013824D02*
X213637196Y-60682804D01*
X214306175Y-61684005D01*
X214555000Y-62934931D01*
X214555000Y-138360069D01*
X214306175Y-139610995D01*
X213637196Y-140612196D01*
X212635995Y-141281176D01*
X211385069Y-141530000D01*
X132149931Y-141530000D01*
X130899005Y-141281175D01*
X129897804Y-140612196D01*
X129228824Y-139610995D01*
X128980000Y-138360069D01*
X128980000Y-135131834D01*
X147109543Y-135131834D01*
X147509853Y-136100658D01*
X148250443Y-136842542D01*
X149218567Y-137244542D01*
X150266834Y-137245457D01*
X151235658Y-136845147D01*
X151977542Y-136104557D01*
X152379542Y-135136433D01*
X152379546Y-135131834D01*
X190289543Y-135131834D01*
X190689853Y-136100658D01*
X191430443Y-136842542D01*
X192398567Y-137244542D01*
X193446834Y-137245457D01*
X194415658Y-136845147D01*
X195157542Y-136104557D01*
X195559542Y-135136433D01*
X195560457Y-134088166D01*
X195356260Y-133593970D01*
X209485635Y-133593970D01*
X209645418Y-133912739D01*
X210436187Y-134222723D01*
X211285387Y-134206497D01*
X211994582Y-133912739D01*
X212154365Y-133593970D01*
X210820000Y-132259605D01*
X209485635Y-133593970D01*
X195356260Y-133593970D01*
X195160147Y-133119342D01*
X194419557Y-132377458D01*
X193671405Y-132066798D01*
X194425658Y-131755147D01*
X194484721Y-131696187D01*
X208677277Y-131696187D01*
X208693503Y-132545387D01*
X208987261Y-133254582D01*
X209306030Y-133414365D01*
X210640395Y-132080000D01*
X210999605Y-132080000D01*
X212333970Y-133414365D01*
X212652739Y-133254582D01*
X212962723Y-132463813D01*
X212946497Y-131614613D01*
X212652739Y-130905418D01*
X212333970Y-130745635D01*
X210999605Y-132080000D01*
X210640395Y-132080000D01*
X209306030Y-130745635D01*
X208987261Y-130905418D01*
X208677277Y-131696187D01*
X194484721Y-131696187D01*
X195167542Y-131014557D01*
X195353786Y-130566030D01*
X209485635Y-130566030D01*
X210820000Y-131900395D01*
X212154365Y-130566030D01*
X211994582Y-130247261D01*
X211203813Y-129937277D01*
X210354613Y-129953503D01*
X209645418Y-130247261D01*
X209485635Y-130566030D01*
X195353786Y-130566030D01*
X195569542Y-130046433D01*
X195570457Y-128998166D01*
X195170147Y-128029342D01*
X194429557Y-127287458D01*
X193717618Y-126991835D01*
X194435658Y-126695147D01*
X195177542Y-125954557D01*
X195579542Y-124986433D01*
X195580457Y-123938166D01*
X195180147Y-122969342D01*
X194439557Y-122227458D01*
X193471433Y-121825458D01*
X192423166Y-121824543D01*
X191454342Y-122224853D01*
X190712458Y-122965443D01*
X190310458Y-123933567D01*
X190309543Y-124981834D01*
X190709853Y-125950658D01*
X191450443Y-126692542D01*
X192162382Y-126988165D01*
X191444342Y-127284853D01*
X190702458Y-128025443D01*
X190300458Y-128993567D01*
X190299543Y-130041834D01*
X190699853Y-131010658D01*
X191440443Y-131752542D01*
X192188595Y-132063202D01*
X191434342Y-132374853D01*
X190692458Y-133115443D01*
X190290458Y-134083567D01*
X190289543Y-135131834D01*
X152379546Y-135131834D01*
X152380457Y-134088166D01*
X151980147Y-133119342D01*
X151239557Y-132377458D01*
X150491405Y-132066798D01*
X151245658Y-131755147D01*
X151672118Y-131329430D01*
X163367980Y-131329430D01*
X163367980Y-132830570D01*
X163412258Y-133065887D01*
X163551330Y-133282011D01*
X163763530Y-133427001D01*
X164015420Y-133478010D01*
X164914580Y-133478010D01*
X165149897Y-133433732D01*
X165254498Y-133366423D01*
X165319949Y-133410156D01*
X165735000Y-133492715D01*
X166150051Y-133410156D01*
X166370000Y-133263191D01*
X166589949Y-133410156D01*
X167005000Y-133492715D01*
X167420051Y-133410156D01*
X167771914Y-133175049D01*
X168007021Y-132823186D01*
X168089580Y-132408135D01*
X168089580Y-131751865D01*
X168007021Y-131336814D01*
X167860056Y-131116865D01*
X172270420Y-131116865D01*
X172270420Y-131773135D01*
X172352979Y-132188186D01*
X172588086Y-132540049D01*
X172939949Y-132775156D01*
X173355000Y-132857715D01*
X173770051Y-132775156D01*
X173990000Y-132628191D01*
X174209949Y-132775156D01*
X174625000Y-132857715D01*
X175040051Y-132775156D01*
X175105183Y-132731636D01*
X175193530Y-132792001D01*
X175445420Y-132843010D01*
X176344580Y-132843010D01*
X176579897Y-132798732D01*
X176796021Y-132659660D01*
X176941011Y-132447460D01*
X176992020Y-132195570D01*
X176992020Y-130694430D01*
X176947742Y-130459113D01*
X176808670Y-130242989D01*
X176596470Y-130097999D01*
X176344580Y-130046990D01*
X175445420Y-130046990D01*
X175210103Y-130091268D01*
X175105502Y-130158577D01*
X175040051Y-130114844D01*
X174625000Y-130032285D01*
X174209949Y-130114844D01*
X173990000Y-130261809D01*
X173770051Y-130114844D01*
X173355000Y-130032285D01*
X172939949Y-130114844D01*
X172588086Y-130349951D01*
X172352979Y-130701814D01*
X172270420Y-131116865D01*
X167860056Y-131116865D01*
X167771914Y-130984951D01*
X167420051Y-130749844D01*
X167005000Y-130667285D01*
X166589949Y-130749844D01*
X166370000Y-130896809D01*
X166150051Y-130749844D01*
X165735000Y-130667285D01*
X165319949Y-130749844D01*
X165254817Y-130793364D01*
X165166470Y-130732999D01*
X164914580Y-130681990D01*
X164015420Y-130681990D01*
X163780103Y-130726268D01*
X163563979Y-130865340D01*
X163418989Y-131077540D01*
X163367980Y-131329430D01*
X151672118Y-131329430D01*
X151987542Y-131014557D01*
X152389542Y-130046433D01*
X152390457Y-128998166D01*
X151990147Y-128029342D01*
X151249557Y-127287458D01*
X150537618Y-126991835D01*
X151255658Y-126695147D01*
X151997542Y-125954557D01*
X152399542Y-124986433D01*
X152400457Y-123938166D01*
X152000147Y-122969342D01*
X151259557Y-122227458D01*
X150291433Y-121825458D01*
X149243166Y-121824543D01*
X148274342Y-122224853D01*
X147532458Y-122965443D01*
X147130458Y-123933567D01*
X147129543Y-124981834D01*
X147529853Y-125950658D01*
X148270443Y-126692542D01*
X148982382Y-126988165D01*
X148264342Y-127284853D01*
X147522458Y-128025443D01*
X147120458Y-128993567D01*
X147119543Y-130041834D01*
X147519853Y-131010658D01*
X148260443Y-131752542D01*
X149008595Y-132063202D01*
X148254342Y-132374853D01*
X147512458Y-133115443D01*
X147110458Y-134083567D01*
X147109543Y-135131834D01*
X128980000Y-135131834D01*
X128980000Y-132958970D01*
X131380635Y-132958970D01*
X131540418Y-133277739D01*
X132331187Y-133587723D01*
X133180387Y-133571497D01*
X133889582Y-133277739D01*
X134049365Y-132958970D01*
X132715000Y-131624605D01*
X131380635Y-132958970D01*
X128980000Y-132958970D01*
X128980000Y-131061187D01*
X130572277Y-131061187D01*
X130588503Y-131910387D01*
X130882261Y-132619582D01*
X131201030Y-132779365D01*
X132535395Y-131445000D01*
X132894605Y-131445000D01*
X134228970Y-132779365D01*
X134547739Y-132619582D01*
X134857723Y-131828813D01*
X134841497Y-130979613D01*
X134547739Y-130270418D01*
X134228970Y-130110635D01*
X132894605Y-131445000D01*
X132535395Y-131445000D01*
X131201030Y-130110635D01*
X130882261Y-130270418D01*
X130572277Y-131061187D01*
X128980000Y-131061187D01*
X128980000Y-129931030D01*
X131380635Y-129931030D01*
X132715000Y-131265395D01*
X134049365Y-129931030D01*
X133889582Y-129612261D01*
X133098813Y-129302277D01*
X132249613Y-129318503D01*
X131540418Y-129612261D01*
X131380635Y-129931030D01*
X128980000Y-129931030D01*
X128980000Y-124865000D01*
X130567560Y-124865000D01*
X130567560Y-127865000D01*
X130611838Y-128100317D01*
X130750910Y-128316441D01*
X130963110Y-128461431D01*
X131215000Y-128512440D01*
X134215000Y-128512440D01*
X134450317Y-128468162D01*
X134666441Y-128329090D01*
X134811431Y-128116890D01*
X134862440Y-127865000D01*
X134862440Y-124865000D01*
X134818162Y-124629683D01*
X134679090Y-124413559D01*
X134466890Y-124268569D01*
X134215000Y-124217560D01*
X131215000Y-124217560D01*
X130979683Y-124261838D01*
X130763559Y-124400910D01*
X130618569Y-124613110D01*
X130567560Y-124865000D01*
X128980000Y-124865000D01*
X128980000Y-120935750D01*
X173825000Y-120935750D01*
X173825000Y-121576310D01*
X173921673Y-121809699D01*
X174100302Y-121988327D01*
X174333691Y-122085000D01*
X174974250Y-122085000D01*
X175133000Y-121926250D01*
X175133000Y-120777000D01*
X173983750Y-120777000D01*
X173825000Y-120935750D01*
X128980000Y-120935750D01*
X128980000Y-118580000D01*
X130632560Y-118580000D01*
X130632560Y-120180000D01*
X130676838Y-120415317D01*
X130815910Y-120631441D01*
X131028110Y-120776431D01*
X131280000Y-120827440D01*
X132880000Y-120827440D01*
X133115317Y-120783162D01*
X133331441Y-120644090D01*
X133476431Y-120431890D01*
X133485370Y-120387745D01*
X133751861Y-120387745D01*
X133825995Y-120633864D01*
X134363223Y-120826965D01*
X134933454Y-120799778D01*
X135334005Y-120633864D01*
X135408139Y-120387745D01*
X134580000Y-119559605D01*
X133751861Y-120387745D01*
X133485370Y-120387745D01*
X133524646Y-120193799D01*
X133572255Y-120208139D01*
X134400395Y-119380000D01*
X134759605Y-119380000D01*
X135587745Y-120208139D01*
X135833864Y-120134005D01*
X135981347Y-119723690D01*
X173825000Y-119723690D01*
X173825000Y-120364250D01*
X173983750Y-120523000D01*
X175133000Y-120523000D01*
X175133000Y-119373750D01*
X175387000Y-119373750D01*
X175387000Y-120523000D01*
X175407000Y-120523000D01*
X175407000Y-120777000D01*
X175387000Y-120777000D01*
X175387000Y-121926250D01*
X175545750Y-122085000D01*
X176186309Y-122085000D01*
X176419698Y-121988327D01*
X176513998Y-121894027D01*
X176973309Y-122084750D01*
X177544187Y-122085248D01*
X178071800Y-121867243D01*
X178475824Y-121463923D01*
X178694750Y-120936691D01*
X178695248Y-120365813D01*
X178477243Y-119838200D01*
X178073923Y-119434176D01*
X177546691Y-119215250D01*
X176975813Y-119214752D01*
X176513713Y-119405688D01*
X176419698Y-119311673D01*
X176186309Y-119215000D01*
X175545750Y-119215000D01*
X175387000Y-119373750D01*
X175133000Y-119373750D01*
X174974250Y-119215000D01*
X174333691Y-119215000D01*
X174100302Y-119311673D01*
X173921673Y-119490301D01*
X173825000Y-119723690D01*
X135981347Y-119723690D01*
X136026965Y-119596777D01*
X135999778Y-119026546D01*
X135833864Y-118625995D01*
X135587745Y-118551861D01*
X134759605Y-119380000D01*
X134400395Y-119380000D01*
X133572255Y-118551861D01*
X133524833Y-118566145D01*
X133488351Y-118372255D01*
X133751861Y-118372255D01*
X134580000Y-119200395D01*
X135408139Y-118372255D01*
X135334005Y-118126136D01*
X134796777Y-117933035D01*
X134226546Y-117960222D01*
X133825995Y-118126136D01*
X133751861Y-118372255D01*
X133488351Y-118372255D01*
X133483162Y-118344683D01*
X133344090Y-118128559D01*
X133131890Y-117983569D01*
X132880000Y-117932560D01*
X131280000Y-117932560D01*
X131044683Y-117976838D01*
X130828559Y-118115910D01*
X130683569Y-118328110D01*
X130632560Y-118580000D01*
X128980000Y-118580000D01*
X128980000Y-115570000D01*
X170849050Y-115570000D01*
X170958283Y-116119151D01*
X171269352Y-116584698D01*
X171734899Y-116895767D01*
X172284050Y-117005000D01*
X173155950Y-117005000D01*
X173705101Y-116895767D01*
X174170648Y-116584698D01*
X174481717Y-116119151D01*
X174590950Y-115570000D01*
X174481717Y-115020849D01*
X174170648Y-114555302D01*
X173792293Y-114302493D01*
X174224500Y-113954896D01*
X174494367Y-113461819D01*
X174511904Y-113379039D01*
X174389915Y-113157000D01*
X172847000Y-113157000D01*
X172847000Y-113177000D01*
X172593000Y-113177000D01*
X172593000Y-113157000D01*
X171050085Y-113157000D01*
X170928096Y-113379039D01*
X170945633Y-113461819D01*
X171215500Y-113954896D01*
X171647707Y-114302493D01*
X171269352Y-114555302D01*
X170958283Y-115020849D01*
X170849050Y-115570000D01*
X128980000Y-115570000D01*
X128980000Y-110895000D01*
X130567560Y-110895000D01*
X130567560Y-113895000D01*
X130611838Y-114130317D01*
X130750910Y-114346441D01*
X130963110Y-114491431D01*
X131215000Y-114542440D01*
X134215000Y-114542440D01*
X134450317Y-114498162D01*
X134666441Y-114359090D01*
X134811431Y-114146890D01*
X134862440Y-113895000D01*
X134862440Y-110960000D01*
X166192560Y-110960000D01*
X166192560Y-112560000D01*
X166236838Y-112795317D01*
X166375910Y-113011441D01*
X166392366Y-113022685D01*
X166205250Y-113473309D01*
X166204752Y-114044187D01*
X166422757Y-114571800D01*
X166826077Y-114975824D01*
X167353309Y-115194750D01*
X167924187Y-115195248D01*
X168451800Y-114977243D01*
X168855824Y-114573923D01*
X169074750Y-114046691D01*
X169075248Y-113475813D01*
X168889197Y-113025534D01*
X168891441Y-113024090D01*
X169036431Y-112811890D01*
X169087440Y-112560000D01*
X169087440Y-110960000D01*
X169043162Y-110724683D01*
X168904090Y-110508559D01*
X168876928Y-110490000D01*
X170849050Y-110490000D01*
X170958283Y-111039151D01*
X171269352Y-111504698D01*
X171647707Y-111757507D01*
X171215500Y-112105104D01*
X170945633Y-112598181D01*
X170928096Y-112680961D01*
X171050085Y-112903000D01*
X172593000Y-112903000D01*
X172593000Y-112883000D01*
X172847000Y-112883000D01*
X172847000Y-112903000D01*
X174389915Y-112903000D01*
X174511904Y-112680961D01*
X174494367Y-112598181D01*
X174224500Y-112105104D01*
X173792293Y-111757507D01*
X174170648Y-111504698D01*
X174481717Y-111039151D01*
X174590950Y-110490000D01*
X174481717Y-109940849D01*
X174170648Y-109475302D01*
X174024650Y-109377749D01*
X174155317Y-109353162D01*
X174371441Y-109214090D01*
X174516431Y-109001890D01*
X174567440Y-108750000D01*
X174567440Y-107150000D01*
X174523162Y-106914683D01*
X174384090Y-106698559D01*
X174171890Y-106553569D01*
X173920000Y-106502560D01*
X171520000Y-106502560D01*
X171284683Y-106546838D01*
X171068559Y-106685910D01*
X170923569Y-106898110D01*
X170872560Y-107150000D01*
X170872560Y-108750000D01*
X170916838Y-108985317D01*
X171055910Y-109201441D01*
X171268110Y-109346431D01*
X171417074Y-109376597D01*
X171269352Y-109475302D01*
X170958283Y-109940849D01*
X170849050Y-110490000D01*
X168876928Y-110490000D01*
X168691890Y-110363569D01*
X168440000Y-110312560D01*
X166840000Y-110312560D01*
X166604683Y-110356838D01*
X166388559Y-110495910D01*
X166243569Y-110708110D01*
X166192560Y-110960000D01*
X134862440Y-110960000D01*
X134862440Y-110895000D01*
X134818162Y-110659683D01*
X134679090Y-110443559D01*
X134555612Y-110359190D01*
X138744803Y-106170000D01*
X174310198Y-106170000D01*
X176627599Y-108487401D01*
X176874160Y-108652148D01*
X176922414Y-108661746D01*
X177165000Y-108710000D01*
X178719168Y-108710000D01*
X178889352Y-108964698D01*
X179271438Y-109220000D01*
X178889352Y-109475302D01*
X178578283Y-109940849D01*
X178469050Y-110490000D01*
X178578283Y-111039151D01*
X178889352Y-111504698D01*
X179271438Y-111760000D01*
X178889352Y-112015302D01*
X178578283Y-112480849D01*
X178469050Y-113030000D01*
X178578283Y-113579151D01*
X178889352Y-114044698D01*
X179271438Y-114300000D01*
X178889352Y-114555302D01*
X178578283Y-115020849D01*
X178469050Y-115570000D01*
X178578283Y-116119151D01*
X178889352Y-116584698D01*
X179354899Y-116895767D01*
X179904050Y-117005000D01*
X180775950Y-117005000D01*
X181325101Y-116895767D01*
X181790648Y-116584698D01*
X182101717Y-116119151D01*
X182210950Y-115570000D01*
X182124235Y-115134050D01*
X183985000Y-115134050D01*
X183985000Y-116005950D01*
X184094233Y-116555101D01*
X184405302Y-117020648D01*
X184870849Y-117331717D01*
X185420000Y-117440950D01*
X185969151Y-117331717D01*
X186434698Y-117020648D01*
X186690000Y-116638562D01*
X186945302Y-117020648D01*
X187410849Y-117331717D01*
X187960000Y-117440950D01*
X188509151Y-117331717D01*
X188974698Y-117020648D01*
X189230000Y-116638562D01*
X189485302Y-117020648D01*
X189950849Y-117331717D01*
X190500000Y-117440950D01*
X191049151Y-117331717D01*
X191514698Y-117020648D01*
X191770000Y-116638562D01*
X192025302Y-117020648D01*
X192490849Y-117331717D01*
X193040000Y-117440950D01*
X193589151Y-117331717D01*
X194054698Y-117020648D01*
X194365767Y-116555101D01*
X194475000Y-116005950D01*
X194475000Y-115134050D01*
X194365767Y-114584899D01*
X194054698Y-114119352D01*
X193589151Y-113808283D01*
X193040000Y-113699050D01*
X192490849Y-113808283D01*
X192025302Y-114119352D01*
X191770000Y-114501438D01*
X191514698Y-114119352D01*
X191049151Y-113808283D01*
X190500000Y-113699050D01*
X189950849Y-113808283D01*
X189485302Y-114119352D01*
X189230000Y-114501438D01*
X188974698Y-114119352D01*
X188509151Y-113808283D01*
X187960000Y-113699050D01*
X187410849Y-113808283D01*
X186945302Y-114119352D01*
X186690000Y-114501438D01*
X186434698Y-114119352D01*
X185969151Y-113808283D01*
X185420000Y-113699050D01*
X184870849Y-113808283D01*
X184405302Y-114119352D01*
X184094233Y-114584899D01*
X183985000Y-115134050D01*
X182124235Y-115134050D01*
X182101717Y-115020849D01*
X181790648Y-114555302D01*
X181408562Y-114300000D01*
X181790648Y-114044698D01*
X182101717Y-113579151D01*
X182210950Y-113030000D01*
X182101717Y-112480849D01*
X181790648Y-112015302D01*
X181408562Y-111760000D01*
X181790648Y-111504698D01*
X182101717Y-111039151D01*
X182210950Y-110490000D01*
X182101717Y-109940849D01*
X181790648Y-109475302D01*
X181408562Y-109220000D01*
X181790648Y-108964698D01*
X182101717Y-108499151D01*
X182210950Y-107950000D01*
X182101717Y-107400849D01*
X182046536Y-107318266D01*
X183194802Y-106170000D01*
X184962764Y-106170000D01*
X184870849Y-106188283D01*
X184405302Y-106499352D01*
X184094233Y-106964899D01*
X183985000Y-107514050D01*
X183985000Y-108385950D01*
X184094233Y-108935101D01*
X184405302Y-109400648D01*
X184870849Y-109711717D01*
X185420000Y-109820950D01*
X185969151Y-109711717D01*
X186434698Y-109400648D01*
X186690000Y-109018562D01*
X186945302Y-109400648D01*
X187410849Y-109711717D01*
X187960000Y-109820950D01*
X188509151Y-109711717D01*
X188974698Y-109400648D01*
X189230000Y-109018562D01*
X189485302Y-109400648D01*
X189950849Y-109711717D01*
X190500000Y-109820950D01*
X191049151Y-109711717D01*
X191514698Y-109400648D01*
X191612251Y-109254650D01*
X191636838Y-109385317D01*
X191775910Y-109601441D01*
X191988110Y-109746431D01*
X192240000Y-109797440D01*
X193840000Y-109797440D01*
X194075317Y-109753162D01*
X194291441Y-109614090D01*
X194436431Y-109401890D01*
X194487440Y-109150000D01*
X194487440Y-107500167D01*
X194644838Y-107500167D01*
X194786883Y-107843943D01*
X194820000Y-107877118D01*
X194820000Y-116912537D01*
X194787808Y-116944673D01*
X194645162Y-117288201D01*
X194644838Y-117660167D01*
X194786883Y-118003943D01*
X195049673Y-118267192D01*
X195393201Y-118409838D01*
X195765167Y-118410162D01*
X196108943Y-118268117D01*
X196372192Y-118005327D01*
X196514838Y-117661799D01*
X196515162Y-117289833D01*
X196373117Y-116946057D01*
X196340000Y-116912882D01*
X196340000Y-115120167D01*
X196549838Y-115120167D01*
X196691883Y-115463943D01*
X196954673Y-115727192D01*
X197298201Y-115869838D01*
X197345077Y-115869879D01*
X197360000Y-115884802D01*
X197360000Y-118110000D01*
X197417852Y-118400839D01*
X197582599Y-118647401D01*
X206472599Y-127537401D01*
X206719161Y-127702148D01*
X207010000Y-127760000D01*
X208823952Y-127760000D01*
X209008980Y-128207800D01*
X209609041Y-128808909D01*
X210393459Y-129134628D01*
X211242815Y-129135370D01*
X212027800Y-128811020D01*
X212628909Y-128210959D01*
X212954628Y-127426541D01*
X212955370Y-126577185D01*
X212631020Y-125792200D01*
X212030959Y-125191091D01*
X211246541Y-124865372D01*
X210397185Y-124864630D01*
X209612200Y-125188980D01*
X209011091Y-125789041D01*
X208823836Y-126240000D01*
X207324802Y-126240000D01*
X201504802Y-120420000D01*
X208672560Y-120420000D01*
X208672560Y-123420000D01*
X208716838Y-123655317D01*
X208855910Y-123871441D01*
X209068110Y-124016431D01*
X209320000Y-124067440D01*
X212320000Y-124067440D01*
X212555317Y-124023162D01*
X212771441Y-123884090D01*
X212916431Y-123671890D01*
X212967440Y-123420000D01*
X212967440Y-120420000D01*
X212923162Y-120184683D01*
X212784090Y-119968559D01*
X212571890Y-119823569D01*
X212320000Y-119772560D01*
X209320000Y-119772560D01*
X209084683Y-119816838D01*
X208868559Y-119955910D01*
X208723569Y-120168110D01*
X208672560Y-120420000D01*
X201504802Y-120420000D01*
X199494894Y-118410092D01*
X199575167Y-118410162D01*
X199918943Y-118268117D01*
X200182192Y-118005327D01*
X200324838Y-117661799D01*
X200325162Y-117289833D01*
X200183117Y-116946057D01*
X200150000Y-116912882D01*
X200150000Y-115570000D01*
X200092148Y-115279161D01*
X199927401Y-115032599D01*
X199690122Y-114795320D01*
X199690162Y-114749833D01*
X199548117Y-114406057D01*
X199285327Y-114142808D01*
X198941799Y-114000162D01*
X198569833Y-113999838D01*
X198226057Y-114141883D01*
X198120046Y-114247710D01*
X198015327Y-114142808D01*
X197671799Y-114000162D01*
X197299833Y-113999838D01*
X196956057Y-114141883D01*
X196692808Y-114404673D01*
X196550162Y-114748201D01*
X196549838Y-115120167D01*
X196340000Y-115120167D01*
X196340000Y-107877463D01*
X196372192Y-107845327D01*
X196514838Y-107501799D01*
X196515162Y-107129833D01*
X196373117Y-106786057D01*
X196110327Y-106522808D01*
X195766799Y-106380162D01*
X195394833Y-106379838D01*
X195051057Y-106521883D01*
X194787808Y-106784673D01*
X194645162Y-107128201D01*
X194644838Y-107500167D01*
X194487440Y-107500167D01*
X194487440Y-106750000D01*
X194443162Y-106514683D01*
X194304090Y-106298559D01*
X194115938Y-106170000D01*
X204790198Y-106170000D01*
X206885000Y-108264802D01*
X206885000Y-108759008D01*
X206477567Y-109031246D01*
X206360946Y-109205781D01*
X206182630Y-108978764D01*
X205619477Y-108662074D01*
X205487944Y-108630025D01*
X205232000Y-108749164D01*
X205232000Y-110363000D01*
X205252000Y-110363000D01*
X205252000Y-110617000D01*
X205232000Y-110617000D01*
X205232000Y-110637000D01*
X204978000Y-110637000D01*
X204978000Y-110617000D01*
X204958000Y-110617000D01*
X204958000Y-110363000D01*
X204978000Y-110363000D01*
X204978000Y-108749164D01*
X204722056Y-108630025D01*
X204590523Y-108662074D01*
X204027370Y-108978764D01*
X203849054Y-109205781D01*
X203732433Y-109031246D01*
X203196810Y-108673354D01*
X202565000Y-108547679D01*
X201933190Y-108673354D01*
X201397567Y-109031246D01*
X201039675Y-109566869D01*
X200914000Y-110198679D01*
X200914000Y-110781321D01*
X201039675Y-111413131D01*
X201397567Y-111948754D01*
X201933190Y-112306646D01*
X202565000Y-112432321D01*
X203196810Y-112306646D01*
X203732433Y-111948754D01*
X203849054Y-111774219D01*
X204027370Y-112001236D01*
X204590523Y-112317926D01*
X204722056Y-112349975D01*
X204977998Y-112230837D01*
X204977998Y-112295262D01*
X204814161Y-112327852D01*
X204567599Y-112492599D01*
X202302638Y-114757560D01*
X201130000Y-114757560D01*
X200894683Y-114801838D01*
X200678559Y-114940910D01*
X200533569Y-115153110D01*
X200482560Y-115405000D01*
X200482560Y-117005000D01*
X200526838Y-117240317D01*
X200665910Y-117456441D01*
X200878110Y-117601431D01*
X201130000Y-117652440D01*
X202730000Y-117652440D01*
X202965317Y-117608162D01*
X203181441Y-117469090D01*
X203185977Y-117462452D01*
X203713223Y-117651965D01*
X204283454Y-117624778D01*
X204684005Y-117458864D01*
X204758139Y-117212745D01*
X203930000Y-116384605D01*
X203915858Y-116398748D01*
X203736253Y-116219143D01*
X203750395Y-116205000D01*
X204109605Y-116205000D01*
X204937745Y-117033139D01*
X205183864Y-116959005D01*
X205376965Y-116421777D01*
X205349778Y-115851546D01*
X205183864Y-115450995D01*
X204937745Y-115376861D01*
X204109605Y-116205000D01*
X203750395Y-116205000D01*
X203736252Y-116190858D01*
X203915858Y-116011252D01*
X203930000Y-116025395D01*
X204758139Y-115197255D01*
X204684005Y-114951136D01*
X204371127Y-114838675D01*
X205419802Y-113790000D01*
X211965000Y-113790000D01*
X211965000Y-115890198D01*
X211950320Y-115904878D01*
X211904833Y-115904838D01*
X211561057Y-116046883D01*
X211297808Y-116309673D01*
X211155162Y-116653201D01*
X211154838Y-117025167D01*
X211296883Y-117368943D01*
X211559673Y-117632192D01*
X211903201Y-117774838D01*
X212275167Y-117775162D01*
X212618943Y-117633117D01*
X212882192Y-117370327D01*
X213024838Y-117026799D01*
X213024879Y-116979923D01*
X213262401Y-116742401D01*
X213427148Y-116495839D01*
X213485000Y-116205000D01*
X213485000Y-92710000D01*
X213427148Y-92419161D01*
X213427148Y-92419160D01*
X213262401Y-92172599D01*
X212332440Y-91242638D01*
X212332440Y-89940000D01*
X212288162Y-89704683D01*
X212149090Y-89488559D01*
X211936890Y-89343569D01*
X211685000Y-89292560D01*
X208685000Y-89292560D01*
X208449683Y-89336838D01*
X208233559Y-89475910D01*
X208088569Y-89688110D01*
X208037560Y-89940000D01*
X208037560Y-92940000D01*
X208081838Y-93175317D01*
X208220910Y-93391441D01*
X208433110Y-93536431D01*
X208685000Y-93587440D01*
X211685000Y-93587440D01*
X211920317Y-93543162D01*
X211965000Y-93514409D01*
X211965000Y-95318983D01*
X211698970Y-95185635D01*
X210364605Y-96520000D01*
X211698970Y-97854365D01*
X211965000Y-97721017D01*
X211965000Y-112080198D01*
X211775198Y-112270000D01*
X208331655Y-112270000D01*
X208812433Y-111948754D01*
X209170325Y-111413131D01*
X209296000Y-110781321D01*
X209296000Y-110198679D01*
X209170325Y-109566869D01*
X208812433Y-109031246D01*
X208405000Y-108759008D01*
X208405000Y-107950000D01*
X208347148Y-107659161D01*
X208347148Y-107659160D01*
X208182401Y-107412599D01*
X205642401Y-104872599D01*
X205395839Y-104707852D01*
X205105000Y-104650000D01*
X182880000Y-104650000D01*
X182637414Y-104698254D01*
X182589160Y-104707852D01*
X182342599Y-104872599D01*
X180700198Y-106515000D01*
X179904050Y-106515000D01*
X179354899Y-106624233D01*
X178889352Y-106935302D01*
X178719168Y-107190000D01*
X177479802Y-107190000D01*
X175162401Y-104872599D01*
X174915839Y-104707852D01*
X174625000Y-104650000D01*
X138430000Y-104650000D01*
X138139161Y-104707852D01*
X137892599Y-104872598D01*
X134726052Y-108039146D01*
X134849628Y-107741541D01*
X134850370Y-106892185D01*
X134526020Y-106107200D01*
X133925959Y-105506091D01*
X133141541Y-105180372D01*
X132292185Y-105179630D01*
X131507200Y-105503980D01*
X130906091Y-106104041D01*
X130580372Y-106888459D01*
X130579630Y-107737815D01*
X130903980Y-108522800D01*
X131504041Y-109123909D01*
X132288459Y-109449628D01*
X133137815Y-109450370D01*
X133439469Y-109325729D01*
X132517638Y-110247560D01*
X131215000Y-110247560D01*
X130979683Y-110291838D01*
X130763559Y-110430910D01*
X130618569Y-110643110D01*
X130567560Y-110895000D01*
X128980000Y-110895000D01*
X128980000Y-103748970D01*
X131380635Y-103748970D01*
X131540418Y-104067739D01*
X132331187Y-104377723D01*
X133180387Y-104361497D01*
X133889582Y-104067739D01*
X134049365Y-103748970D01*
X132715000Y-102414605D01*
X131380635Y-103748970D01*
X128980000Y-103748970D01*
X128980000Y-101851187D01*
X130572277Y-101851187D01*
X130588503Y-102700387D01*
X130882261Y-103409582D01*
X131201030Y-103569365D01*
X132535395Y-102235000D01*
X132894605Y-102235000D01*
X134228970Y-103569365D01*
X134547739Y-103409582D01*
X134857723Y-102618813D01*
X134841497Y-101769613D01*
X134547739Y-101060418D01*
X134228970Y-100900635D01*
X132894605Y-102235000D01*
X132535395Y-102235000D01*
X131201030Y-100900635D01*
X130882261Y-101060418D01*
X130572277Y-101851187D01*
X128980000Y-101851187D01*
X128980000Y-100721030D01*
X131380635Y-100721030D01*
X132715000Y-102055395D01*
X134049365Y-100721030D01*
X133889582Y-100402261D01*
X133098813Y-100092277D01*
X132249613Y-100108503D01*
X131540418Y-100402261D01*
X131380635Y-100721030D01*
X128980000Y-100721030D01*
X128980000Y-97340167D01*
X193374838Y-97340167D01*
X193516883Y-97683943D01*
X193550000Y-97717118D01*
X193550000Y-99132537D01*
X193517808Y-99164673D01*
X193375162Y-99508201D01*
X193374838Y-99880167D01*
X193516883Y-100223943D01*
X193779673Y-100487192D01*
X194123201Y-100629838D01*
X194495167Y-100630162D01*
X194838943Y-100488117D01*
X195102192Y-100225327D01*
X195244838Y-99881799D01*
X195245162Y-99509833D01*
X195103117Y-99166057D01*
X195070000Y-99132882D01*
X195070000Y-98058344D01*
X196764765Y-98058344D01*
X196970617Y-98556543D01*
X197351452Y-98938043D01*
X197849291Y-99144764D01*
X198388344Y-99145235D01*
X198886543Y-98939383D01*
X199268043Y-98558548D01*
X199390045Y-98264736D01*
X199510617Y-98556543D01*
X199891452Y-98938043D01*
X200389291Y-99144764D01*
X200928344Y-99145235D01*
X201426543Y-98939383D01*
X201808043Y-98558548D01*
X201930045Y-98264736D01*
X202050617Y-98556543D01*
X202431452Y-98938043D01*
X202929291Y-99144764D01*
X203468344Y-99145235D01*
X203966543Y-98939383D01*
X204348043Y-98558548D01*
X204554764Y-98060709D01*
X204554787Y-98033970D01*
X208850635Y-98033970D01*
X209010418Y-98352739D01*
X209801187Y-98662723D01*
X210650387Y-98646497D01*
X211359582Y-98352739D01*
X211519365Y-98033970D01*
X210185000Y-96699605D01*
X208850635Y-98033970D01*
X204554787Y-98033970D01*
X204555235Y-97521656D01*
X204349383Y-97023457D01*
X203968548Y-96641957D01*
X203470709Y-96435236D01*
X202931656Y-96434765D01*
X202433457Y-96640617D01*
X202051957Y-97021452D01*
X201929955Y-97315264D01*
X201809383Y-97023457D01*
X201428548Y-96641957D01*
X200930709Y-96435236D01*
X200391656Y-96434765D01*
X199893457Y-96640617D01*
X199511957Y-97021452D01*
X199389955Y-97315264D01*
X199269383Y-97023457D01*
X198888548Y-96641957D01*
X198390709Y-96435236D01*
X197851656Y-96434765D01*
X197353457Y-96640617D01*
X196971957Y-97021452D01*
X196765236Y-97519291D01*
X196764765Y-98058344D01*
X195070000Y-98058344D01*
X195070000Y-97717463D01*
X195102192Y-97685327D01*
X195244838Y-97341799D01*
X195245162Y-96969833D01*
X195103117Y-96626057D01*
X194840327Y-96362808D01*
X194496799Y-96220162D01*
X194124833Y-96219838D01*
X193781057Y-96361883D01*
X193517808Y-96624673D01*
X193375162Y-96968201D01*
X193374838Y-97340167D01*
X128980000Y-97340167D01*
X128980000Y-96136187D01*
X208042277Y-96136187D01*
X208058503Y-96985387D01*
X208352261Y-97694582D01*
X208671030Y-97854365D01*
X210005395Y-96520000D01*
X208671030Y-95185635D01*
X208352261Y-95345418D01*
X208042277Y-96136187D01*
X128980000Y-96136187D01*
X128980000Y-94800167D01*
X150194838Y-94800167D01*
X150336883Y-95143943D01*
X150599673Y-95407192D01*
X150943201Y-95549838D01*
X151315167Y-95550162D01*
X151658943Y-95408117D01*
X151692118Y-95375000D01*
X156917537Y-95375000D01*
X156949673Y-95407192D01*
X157293201Y-95549838D01*
X157665167Y-95550162D01*
X158008943Y-95408117D01*
X158272192Y-95145327D01*
X158330033Y-95006030D01*
X208850635Y-95006030D01*
X210185000Y-96340395D01*
X211519365Y-95006030D01*
X211359582Y-94687261D01*
X210568813Y-94377277D01*
X209719613Y-94393503D01*
X209010418Y-94687261D01*
X208850635Y-95006030D01*
X158330033Y-95006030D01*
X158414838Y-94801799D01*
X158415162Y-94429833D01*
X158273117Y-94086057D01*
X158010327Y-93822808D01*
X157986093Y-93812745D01*
X201736861Y-93812745D01*
X201810995Y-94058864D01*
X202348223Y-94251965D01*
X202918454Y-94224778D01*
X203319005Y-94058864D01*
X203393139Y-93812745D01*
X202565000Y-92984605D01*
X201736861Y-93812745D01*
X157986093Y-93812745D01*
X157666799Y-93680162D01*
X157294833Y-93679838D01*
X156951057Y-93821883D01*
X156917882Y-93855000D01*
X151692463Y-93855000D01*
X151660327Y-93822808D01*
X151316799Y-93680162D01*
X150944833Y-93679838D01*
X150601057Y-93821883D01*
X150337808Y-94084673D01*
X150195162Y-94428201D01*
X150194838Y-94800167D01*
X128980000Y-94800167D01*
X128980000Y-91746865D01*
X146235420Y-91746865D01*
X146235420Y-92403135D01*
X146317979Y-92818186D01*
X146553086Y-93170049D01*
X146904949Y-93405156D01*
X147320000Y-93487715D01*
X147735051Y-93405156D01*
X147955000Y-93258191D01*
X148174949Y-93405156D01*
X148590000Y-93487715D01*
X149005051Y-93405156D01*
X149070183Y-93361636D01*
X149158530Y-93422001D01*
X149410420Y-93473010D01*
X150309580Y-93473010D01*
X150544897Y-93428732D01*
X150761021Y-93289660D01*
X150906011Y-93077460D01*
X150957020Y-92825570D01*
X150957020Y-92447745D01*
X179551861Y-92447745D01*
X179625995Y-92693864D01*
X180163223Y-92886965D01*
X180733454Y-92859778D01*
X181134005Y-92693864D01*
X181208139Y-92447745D01*
X180380000Y-91619605D01*
X179551861Y-92447745D01*
X150957020Y-92447745D01*
X150957020Y-91324430D01*
X150937977Y-91223223D01*
X178933035Y-91223223D01*
X178960222Y-91793454D01*
X179126136Y-92194005D01*
X179372255Y-92268139D01*
X180200395Y-91440000D01*
X180559605Y-91440000D01*
X181387745Y-92268139D01*
X181435167Y-92253855D01*
X181476838Y-92475317D01*
X181615910Y-92691441D01*
X181828110Y-92836431D01*
X182080000Y-92887440D01*
X183680000Y-92887440D01*
X183915317Y-92843162D01*
X184131441Y-92704090D01*
X184276431Y-92491890D01*
X184327440Y-92240000D01*
X184327440Y-90640000D01*
X184283162Y-90404683D01*
X184144090Y-90188559D01*
X183931890Y-90043569D01*
X183741431Y-90005000D01*
X201117560Y-90005000D01*
X201117560Y-91605000D01*
X201161838Y-91840317D01*
X201300910Y-92056441D01*
X201307548Y-92060977D01*
X201118035Y-92588223D01*
X201145222Y-93158454D01*
X201311136Y-93559005D01*
X201557255Y-93633139D01*
X202385395Y-92805000D01*
X202371252Y-92790858D01*
X202550858Y-92611253D01*
X202565000Y-92625395D01*
X202579143Y-92611253D01*
X202758748Y-92790858D01*
X202744605Y-92805000D01*
X203572745Y-93633139D01*
X203818864Y-93559005D01*
X204011965Y-93021777D01*
X203984778Y-92451546D01*
X203822616Y-92060053D01*
X203961431Y-91856890D01*
X204012440Y-91605000D01*
X204012440Y-90005000D01*
X203968162Y-89769683D01*
X203829090Y-89553559D01*
X203616890Y-89408569D01*
X203365000Y-89357560D01*
X201765000Y-89357560D01*
X201529683Y-89401838D01*
X201313559Y-89540910D01*
X201168569Y-89753110D01*
X201117560Y-90005000D01*
X183741431Y-90005000D01*
X183680000Y-89992560D01*
X182080000Y-89992560D01*
X181844683Y-90036838D01*
X181628559Y-90175910D01*
X181483569Y-90388110D01*
X181435354Y-90626201D01*
X181387745Y-90611861D01*
X180559605Y-91440000D01*
X180200395Y-91440000D01*
X179372255Y-90611861D01*
X179126136Y-90685995D01*
X178933035Y-91223223D01*
X150937977Y-91223223D01*
X150912742Y-91089113D01*
X150773670Y-90872989D01*
X150561470Y-90727999D01*
X150309580Y-90676990D01*
X149410420Y-90676990D01*
X149175103Y-90721268D01*
X149070502Y-90788577D01*
X149005051Y-90744844D01*
X148590000Y-90662285D01*
X148174949Y-90744844D01*
X147955000Y-90891809D01*
X147735051Y-90744844D01*
X147320000Y-90662285D01*
X146904949Y-90744844D01*
X146553086Y-90979951D01*
X146317979Y-91331814D01*
X146235420Y-91746865D01*
X128980000Y-91746865D01*
X128980000Y-90432255D01*
X179551861Y-90432255D01*
X180380000Y-91260395D01*
X181208139Y-90432255D01*
X181134005Y-90186136D01*
X180596777Y-89993035D01*
X180026546Y-90020222D01*
X179625995Y-90186136D01*
X179551861Y-90432255D01*
X128980000Y-90432255D01*
X128980000Y-89085167D01*
X146384838Y-89085167D01*
X146526883Y-89428943D01*
X146789673Y-89692192D01*
X147133201Y-89834838D01*
X147505167Y-89835162D01*
X147848943Y-89693117D01*
X147882118Y-89660000D01*
X155647537Y-89660000D01*
X155679673Y-89692192D01*
X156023201Y-89834838D01*
X156395167Y-89835162D01*
X156738943Y-89693117D01*
X157002192Y-89430327D01*
X157144838Y-89086799D01*
X157145162Y-88714833D01*
X157003117Y-88371057D01*
X156740327Y-88107808D01*
X156396799Y-87965162D01*
X156024833Y-87964838D01*
X155681057Y-88106883D01*
X155647882Y-88140000D01*
X147882463Y-88140000D01*
X147850327Y-88107808D01*
X147506799Y-87965162D01*
X147134833Y-87964838D01*
X146791057Y-88106883D01*
X146527808Y-88369673D01*
X146385162Y-88713201D01*
X146384838Y-89085167D01*
X128980000Y-89085167D01*
X128980000Y-80195167D01*
X189564838Y-80195167D01*
X189706883Y-80538943D01*
X189969673Y-80802192D01*
X190313201Y-80944838D01*
X190685167Y-80945162D01*
X191028943Y-80803117D01*
X191062118Y-80770000D01*
X191455198Y-80770000D01*
X193374878Y-82689680D01*
X193374838Y-82735167D01*
X193516883Y-83078943D01*
X193779673Y-83342192D01*
X194123201Y-83484838D01*
X194495167Y-83485162D01*
X194838943Y-83343117D01*
X195102192Y-83080327D01*
X195244838Y-82736799D01*
X195245162Y-82364833D01*
X195103117Y-82021057D01*
X194840327Y-81757808D01*
X194496799Y-81615162D01*
X194449923Y-81615121D01*
X192307401Y-79472599D01*
X192060839Y-79307852D01*
X191770000Y-79250000D01*
X191062463Y-79250000D01*
X191030327Y-79217808D01*
X190686799Y-79075162D01*
X190314833Y-79074838D01*
X189971057Y-79216883D01*
X189707808Y-79479673D01*
X189565162Y-79823201D01*
X189564838Y-80195167D01*
X128980000Y-80195167D01*
X128980000Y-75273679D01*
X145669000Y-75273679D01*
X145669000Y-75856321D01*
X145794675Y-76488131D01*
X146152567Y-77023754D01*
X146688190Y-77381646D01*
X147320000Y-77507321D01*
X147951810Y-77381646D01*
X148487433Y-77023754D01*
X148590000Y-76870252D01*
X148692567Y-77023754D01*
X149228190Y-77381646D01*
X149860000Y-77507321D01*
X150491810Y-77381646D01*
X151027433Y-77023754D01*
X151130000Y-76870252D01*
X151232567Y-77023754D01*
X151768190Y-77381646D01*
X152400000Y-77507321D01*
X153031810Y-77381646D01*
X153567433Y-77023754D01*
X153925325Y-76488131D01*
X154051000Y-75856321D01*
X154051000Y-75273679D01*
X188849000Y-75273679D01*
X188849000Y-75856321D01*
X188974675Y-76488131D01*
X189332567Y-77023754D01*
X189868190Y-77381646D01*
X190500000Y-77507321D01*
X191131810Y-77381646D01*
X191667433Y-77023754D01*
X191770000Y-76870252D01*
X191872567Y-77023754D01*
X192408190Y-77381646D01*
X193040000Y-77507321D01*
X193671810Y-77381646D01*
X194207433Y-77023754D01*
X194310000Y-76870252D01*
X194412567Y-77023754D01*
X194948190Y-77381646D01*
X195580000Y-77507321D01*
X196211810Y-77381646D01*
X196747433Y-77023754D01*
X197105325Y-76488131D01*
X197231000Y-75856321D01*
X197231000Y-75273679D01*
X197105325Y-74641869D01*
X196747433Y-74106246D01*
X196211810Y-73748354D01*
X195580000Y-73622679D01*
X194948190Y-73748354D01*
X194412567Y-74106246D01*
X194310000Y-74259748D01*
X194207433Y-74106246D01*
X193671810Y-73748354D01*
X193040000Y-73622679D01*
X192408190Y-73748354D01*
X191872567Y-74106246D01*
X191770000Y-74259748D01*
X191667433Y-74106246D01*
X191131810Y-73748354D01*
X190500000Y-73622679D01*
X189868190Y-73748354D01*
X189332567Y-74106246D01*
X188974675Y-74641869D01*
X188849000Y-75273679D01*
X154051000Y-75273679D01*
X153925325Y-74641869D01*
X153567433Y-74106246D01*
X153031810Y-73748354D01*
X152400000Y-73622679D01*
X151768190Y-73748354D01*
X151232567Y-74106246D01*
X151130000Y-74259748D01*
X151027433Y-74106246D01*
X150491810Y-73748354D01*
X149860000Y-73622679D01*
X149228190Y-73748354D01*
X148692567Y-74106246D01*
X148590000Y-74259748D01*
X148487433Y-74106246D01*
X147951810Y-73748354D01*
X147320000Y-73622679D01*
X146688190Y-73748354D01*
X146152567Y-74106246D01*
X145794675Y-74641869D01*
X145669000Y-75273679D01*
X128980000Y-75273679D01*
X128980000Y-71641834D01*
X134524543Y-71641834D01*
X134924853Y-72610658D01*
X135665443Y-73352542D01*
X136633567Y-73754542D01*
X137681834Y-73755457D01*
X138650658Y-73355147D01*
X139392542Y-72614557D01*
X139794542Y-71646433D01*
X139794546Y-71641834D01*
X159924543Y-71641834D01*
X160324853Y-72610658D01*
X161065443Y-73352542D01*
X162033567Y-73754542D01*
X163081834Y-73755457D01*
X164050658Y-73355147D01*
X164792542Y-72614557D01*
X165194542Y-71646433D01*
X165194546Y-71641834D01*
X177704543Y-71641834D01*
X178104853Y-72610658D01*
X178845443Y-73352542D01*
X179813567Y-73754542D01*
X180861834Y-73755457D01*
X181830658Y-73355147D01*
X182572542Y-72614557D01*
X182974542Y-71646433D01*
X182974546Y-71641834D01*
X203104543Y-71641834D01*
X203504853Y-72610658D01*
X204245443Y-73352542D01*
X205213567Y-73754542D01*
X206261834Y-73755457D01*
X207230658Y-73355147D01*
X207972542Y-72614557D01*
X208374542Y-71646433D01*
X208375457Y-70598166D01*
X207975147Y-69629342D01*
X207234557Y-68887458D01*
X206266433Y-68485458D01*
X205218166Y-68484543D01*
X204249342Y-68884853D01*
X203507458Y-69625443D01*
X203105458Y-70593567D01*
X203104543Y-71641834D01*
X182974546Y-71641834D01*
X182975457Y-70598166D01*
X182575147Y-69629342D01*
X181834557Y-68887458D01*
X180866433Y-68485458D01*
X179818166Y-68484543D01*
X178849342Y-68884853D01*
X178107458Y-69625443D01*
X177705458Y-70593567D01*
X177704543Y-71641834D01*
X165194546Y-71641834D01*
X165195457Y-70598166D01*
X164795147Y-69629342D01*
X164054557Y-68887458D01*
X163086433Y-68485458D01*
X162038166Y-68484543D01*
X161069342Y-68884853D01*
X160327458Y-69625443D01*
X159925458Y-70593567D01*
X159924543Y-71641834D01*
X139794546Y-71641834D01*
X139795457Y-70598166D01*
X139395147Y-69629342D01*
X138654557Y-68887458D01*
X137686433Y-68485458D01*
X136638166Y-68484543D01*
X135669342Y-68884853D01*
X134927458Y-69625443D01*
X134525458Y-70593567D01*
X134524543Y-71641834D01*
X128980000Y-71641834D01*
X128980000Y-62934931D01*
X129228824Y-61684005D01*
X129897804Y-60682804D01*
X130899005Y-60013825D01*
X132149931Y-59765000D01*
X211385069Y-59765000D01*
X212635995Y-60013824D01*
X212635995Y-60013824D01*
G37*
X212635995Y-60013824D02*
X213637196Y-60682804D01*
X214306175Y-61684005D01*
X214555000Y-62934931D01*
X214555000Y-138360069D01*
X214306175Y-139610995D01*
X213637196Y-140612196D01*
X212635995Y-141281176D01*
X211385069Y-141530000D01*
X132149931Y-141530000D01*
X130899005Y-141281175D01*
X129897804Y-140612196D01*
X129228824Y-139610995D01*
X128980000Y-138360069D01*
X128980000Y-135131834D01*
X147109543Y-135131834D01*
X147509853Y-136100658D01*
X148250443Y-136842542D01*
X149218567Y-137244542D01*
X150266834Y-137245457D01*
X151235658Y-136845147D01*
X151977542Y-136104557D01*
X152379542Y-135136433D01*
X152379546Y-135131834D01*
X190289543Y-135131834D01*
X190689853Y-136100658D01*
X191430443Y-136842542D01*
X192398567Y-137244542D01*
X193446834Y-137245457D01*
X194415658Y-136845147D01*
X195157542Y-136104557D01*
X195559542Y-135136433D01*
X195560457Y-134088166D01*
X195356260Y-133593970D01*
X209485635Y-133593970D01*
X209645418Y-133912739D01*
X210436187Y-134222723D01*
X211285387Y-134206497D01*
X211994582Y-133912739D01*
X212154365Y-133593970D01*
X210820000Y-132259605D01*
X209485635Y-133593970D01*
X195356260Y-133593970D01*
X195160147Y-133119342D01*
X194419557Y-132377458D01*
X193671405Y-132066798D01*
X194425658Y-131755147D01*
X194484721Y-131696187D01*
X208677277Y-131696187D01*
X208693503Y-132545387D01*
X208987261Y-133254582D01*
X209306030Y-133414365D01*
X210640395Y-132080000D01*
X210999605Y-132080000D01*
X212333970Y-133414365D01*
X212652739Y-133254582D01*
X212962723Y-132463813D01*
X212946497Y-131614613D01*
X212652739Y-130905418D01*
X212333970Y-130745635D01*
X210999605Y-132080000D01*
X210640395Y-132080000D01*
X209306030Y-130745635D01*
X208987261Y-130905418D01*
X208677277Y-131696187D01*
X194484721Y-131696187D01*
X195167542Y-131014557D01*
X195353786Y-130566030D01*
X209485635Y-130566030D01*
X210820000Y-131900395D01*
X212154365Y-130566030D01*
X211994582Y-130247261D01*
X211203813Y-129937277D01*
X210354613Y-129953503D01*
X209645418Y-130247261D01*
X209485635Y-130566030D01*
X195353786Y-130566030D01*
X195569542Y-130046433D01*
X195570457Y-128998166D01*
X195170147Y-128029342D01*
X194429557Y-127287458D01*
X193717618Y-126991835D01*
X194435658Y-126695147D01*
X195177542Y-125954557D01*
X195579542Y-124986433D01*
X195580457Y-123938166D01*
X195180147Y-122969342D01*
X194439557Y-122227458D01*
X193471433Y-121825458D01*
X192423166Y-121824543D01*
X191454342Y-122224853D01*
X190712458Y-122965443D01*
X190310458Y-123933567D01*
X190309543Y-124981834D01*
X190709853Y-125950658D01*
X191450443Y-126692542D01*
X192162382Y-126988165D01*
X191444342Y-127284853D01*
X190702458Y-128025443D01*
X190300458Y-128993567D01*
X190299543Y-130041834D01*
X190699853Y-131010658D01*
X191440443Y-131752542D01*
X192188595Y-132063202D01*
X191434342Y-132374853D01*
X190692458Y-133115443D01*
X190290458Y-134083567D01*
X190289543Y-135131834D01*
X152379546Y-135131834D01*
X152380457Y-134088166D01*
X151980147Y-133119342D01*
X151239557Y-132377458D01*
X150491405Y-132066798D01*
X151245658Y-131755147D01*
X151672118Y-131329430D01*
X163367980Y-131329430D01*
X163367980Y-132830570D01*
X163412258Y-133065887D01*
X163551330Y-133282011D01*
X163763530Y-133427001D01*
X164015420Y-133478010D01*
X164914580Y-133478010D01*
X165149897Y-133433732D01*
X165254498Y-133366423D01*
X165319949Y-133410156D01*
X165735000Y-133492715D01*
X166150051Y-133410156D01*
X166370000Y-133263191D01*
X166589949Y-133410156D01*
X167005000Y-133492715D01*
X167420051Y-133410156D01*
X167771914Y-133175049D01*
X168007021Y-132823186D01*
X168089580Y-132408135D01*
X168089580Y-131751865D01*
X168007021Y-131336814D01*
X167860056Y-131116865D01*
X172270420Y-131116865D01*
X172270420Y-131773135D01*
X172352979Y-132188186D01*
X172588086Y-132540049D01*
X172939949Y-132775156D01*
X173355000Y-132857715D01*
X173770051Y-132775156D01*
X173990000Y-132628191D01*
X174209949Y-132775156D01*
X174625000Y-132857715D01*
X175040051Y-132775156D01*
X175105183Y-132731636D01*
X175193530Y-132792001D01*
X175445420Y-132843010D01*
X176344580Y-132843010D01*
X176579897Y-132798732D01*
X176796021Y-132659660D01*
X176941011Y-132447460D01*
X176992020Y-132195570D01*
X176992020Y-130694430D01*
X176947742Y-130459113D01*
X176808670Y-130242989D01*
X176596470Y-130097999D01*
X176344580Y-130046990D01*
X175445420Y-130046990D01*
X175210103Y-130091268D01*
X175105502Y-130158577D01*
X175040051Y-130114844D01*
X174625000Y-130032285D01*
X174209949Y-130114844D01*
X173990000Y-130261809D01*
X173770051Y-130114844D01*
X173355000Y-130032285D01*
X172939949Y-130114844D01*
X172588086Y-130349951D01*
X172352979Y-130701814D01*
X172270420Y-131116865D01*
X167860056Y-131116865D01*
X167771914Y-130984951D01*
X167420051Y-130749844D01*
X167005000Y-130667285D01*
X166589949Y-130749844D01*
X166370000Y-130896809D01*
X166150051Y-130749844D01*
X165735000Y-130667285D01*
X165319949Y-130749844D01*
X165254817Y-130793364D01*
X165166470Y-130732999D01*
X164914580Y-130681990D01*
X164015420Y-130681990D01*
X163780103Y-130726268D01*
X163563979Y-130865340D01*
X163418989Y-131077540D01*
X163367980Y-131329430D01*
X151672118Y-131329430D01*
X151987542Y-131014557D01*
X152389542Y-130046433D01*
X152390457Y-128998166D01*
X151990147Y-128029342D01*
X151249557Y-127287458D01*
X150537618Y-126991835D01*
X151255658Y-126695147D01*
X151997542Y-125954557D01*
X152399542Y-124986433D01*
X152400457Y-123938166D01*
X152000147Y-122969342D01*
X151259557Y-122227458D01*
X150291433Y-121825458D01*
X149243166Y-121824543D01*
X148274342Y-122224853D01*
X147532458Y-122965443D01*
X147130458Y-123933567D01*
X147129543Y-124981834D01*
X147529853Y-125950658D01*
X148270443Y-126692542D01*
X148982382Y-126988165D01*
X148264342Y-127284853D01*
X147522458Y-128025443D01*
X147120458Y-128993567D01*
X147119543Y-130041834D01*
X147519853Y-131010658D01*
X148260443Y-131752542D01*
X149008595Y-132063202D01*
X148254342Y-132374853D01*
X147512458Y-133115443D01*
X147110458Y-134083567D01*
X147109543Y-135131834D01*
X128980000Y-135131834D01*
X128980000Y-132958970D01*
X131380635Y-132958970D01*
X131540418Y-133277739D01*
X132331187Y-133587723D01*
X133180387Y-133571497D01*
X133889582Y-133277739D01*
X134049365Y-132958970D01*
X132715000Y-131624605D01*
X131380635Y-132958970D01*
X128980000Y-132958970D01*
X128980000Y-131061187D01*
X130572277Y-131061187D01*
X130588503Y-131910387D01*
X130882261Y-132619582D01*
X131201030Y-132779365D01*
X132535395Y-131445000D01*
X132894605Y-131445000D01*
X134228970Y-132779365D01*
X134547739Y-132619582D01*
X134857723Y-131828813D01*
X134841497Y-130979613D01*
X134547739Y-130270418D01*
X134228970Y-130110635D01*
X132894605Y-131445000D01*
X132535395Y-131445000D01*
X131201030Y-130110635D01*
X130882261Y-130270418D01*
X130572277Y-131061187D01*
X128980000Y-131061187D01*
X128980000Y-129931030D01*
X131380635Y-129931030D01*
X132715000Y-131265395D01*
X134049365Y-129931030D01*
X133889582Y-129612261D01*
X133098813Y-129302277D01*
X132249613Y-129318503D01*
X131540418Y-129612261D01*
X131380635Y-129931030D01*
X128980000Y-129931030D01*
X128980000Y-124865000D01*
X130567560Y-124865000D01*
X130567560Y-127865000D01*
X130611838Y-128100317D01*
X130750910Y-128316441D01*
X130963110Y-128461431D01*
X131215000Y-128512440D01*
X134215000Y-128512440D01*
X134450317Y-128468162D01*
X134666441Y-128329090D01*
X134811431Y-128116890D01*
X134862440Y-127865000D01*
X134862440Y-124865000D01*
X134818162Y-124629683D01*
X134679090Y-124413559D01*
X134466890Y-124268569D01*
X134215000Y-124217560D01*
X131215000Y-124217560D01*
X130979683Y-124261838D01*
X130763559Y-124400910D01*
X130618569Y-124613110D01*
X130567560Y-124865000D01*
X128980000Y-124865000D01*
X128980000Y-120935750D01*
X173825000Y-120935750D01*
X173825000Y-121576310D01*
X173921673Y-121809699D01*
X174100302Y-121988327D01*
X174333691Y-122085000D01*
X174974250Y-122085000D01*
X175133000Y-121926250D01*
X175133000Y-120777000D01*
X173983750Y-120777000D01*
X173825000Y-120935750D01*
X128980000Y-120935750D01*
X128980000Y-118580000D01*
X130632560Y-118580000D01*
X130632560Y-120180000D01*
X130676838Y-120415317D01*
X130815910Y-120631441D01*
X131028110Y-120776431D01*
X131280000Y-120827440D01*
X132880000Y-120827440D01*
X133115317Y-120783162D01*
X133331441Y-120644090D01*
X133476431Y-120431890D01*
X133485370Y-120387745D01*
X133751861Y-120387745D01*
X133825995Y-120633864D01*
X134363223Y-120826965D01*
X134933454Y-120799778D01*
X135334005Y-120633864D01*
X135408139Y-120387745D01*
X134580000Y-119559605D01*
X133751861Y-120387745D01*
X133485370Y-120387745D01*
X133524646Y-120193799D01*
X133572255Y-120208139D01*
X134400395Y-119380000D01*
X134759605Y-119380000D01*
X135587745Y-120208139D01*
X135833864Y-120134005D01*
X135981347Y-119723690D01*
X173825000Y-119723690D01*
X173825000Y-120364250D01*
X173983750Y-120523000D01*
X175133000Y-120523000D01*
X175133000Y-119373750D01*
X175387000Y-119373750D01*
X175387000Y-120523000D01*
X175407000Y-120523000D01*
X175407000Y-120777000D01*
X175387000Y-120777000D01*
X175387000Y-121926250D01*
X175545750Y-122085000D01*
X176186309Y-122085000D01*
X176419698Y-121988327D01*
X176513998Y-121894027D01*
X176973309Y-122084750D01*
X177544187Y-122085248D01*
X178071800Y-121867243D01*
X178475824Y-121463923D01*
X178694750Y-120936691D01*
X178695248Y-120365813D01*
X178477243Y-119838200D01*
X178073923Y-119434176D01*
X177546691Y-119215250D01*
X176975813Y-119214752D01*
X176513713Y-119405688D01*
X176419698Y-119311673D01*
X176186309Y-119215000D01*
X175545750Y-119215000D01*
X175387000Y-119373750D01*
X175133000Y-119373750D01*
X174974250Y-119215000D01*
X174333691Y-119215000D01*
X174100302Y-119311673D01*
X173921673Y-119490301D01*
X173825000Y-119723690D01*
X135981347Y-119723690D01*
X136026965Y-119596777D01*
X135999778Y-119026546D01*
X135833864Y-118625995D01*
X135587745Y-118551861D01*
X134759605Y-119380000D01*
X134400395Y-119380000D01*
X133572255Y-118551861D01*
X133524833Y-118566145D01*
X133488351Y-118372255D01*
X133751861Y-118372255D01*
X134580000Y-119200395D01*
X135408139Y-118372255D01*
X135334005Y-118126136D01*
X134796777Y-117933035D01*
X134226546Y-117960222D01*
X133825995Y-118126136D01*
X133751861Y-118372255D01*
X133488351Y-118372255D01*
X133483162Y-118344683D01*
X133344090Y-118128559D01*
X133131890Y-117983569D01*
X132880000Y-117932560D01*
X131280000Y-117932560D01*
X131044683Y-117976838D01*
X130828559Y-118115910D01*
X130683569Y-118328110D01*
X130632560Y-118580000D01*
X128980000Y-118580000D01*
X128980000Y-115570000D01*
X170849050Y-115570000D01*
X170958283Y-116119151D01*
X171269352Y-116584698D01*
X171734899Y-116895767D01*
X172284050Y-117005000D01*
X173155950Y-117005000D01*
X173705101Y-116895767D01*
X174170648Y-116584698D01*
X174481717Y-116119151D01*
X174590950Y-115570000D01*
X174481717Y-115020849D01*
X174170648Y-114555302D01*
X173792293Y-114302493D01*
X174224500Y-113954896D01*
X174494367Y-113461819D01*
X174511904Y-113379039D01*
X174389915Y-113157000D01*
X172847000Y-113157000D01*
X172847000Y-113177000D01*
X172593000Y-113177000D01*
X172593000Y-113157000D01*
X171050085Y-113157000D01*
X170928096Y-113379039D01*
X170945633Y-113461819D01*
X171215500Y-113954896D01*
X171647707Y-114302493D01*
X171269352Y-114555302D01*
X170958283Y-115020849D01*
X170849050Y-115570000D01*
X128980000Y-115570000D01*
X128980000Y-110895000D01*
X130567560Y-110895000D01*
X130567560Y-113895000D01*
X130611838Y-114130317D01*
X130750910Y-114346441D01*
X130963110Y-114491431D01*
X131215000Y-114542440D01*
X134215000Y-114542440D01*
X134450317Y-114498162D01*
X134666441Y-114359090D01*
X134811431Y-114146890D01*
X134862440Y-113895000D01*
X134862440Y-110960000D01*
X166192560Y-110960000D01*
X166192560Y-112560000D01*
X166236838Y-112795317D01*
X166375910Y-113011441D01*
X166392366Y-113022685D01*
X166205250Y-113473309D01*
X166204752Y-114044187D01*
X166422757Y-114571800D01*
X166826077Y-114975824D01*
X167353309Y-115194750D01*
X167924187Y-115195248D01*
X168451800Y-114977243D01*
X168855824Y-114573923D01*
X169074750Y-114046691D01*
X169075248Y-113475813D01*
X168889197Y-113025534D01*
X168891441Y-113024090D01*
X169036431Y-112811890D01*
X169087440Y-112560000D01*
X169087440Y-110960000D01*
X169043162Y-110724683D01*
X168904090Y-110508559D01*
X168876928Y-110490000D01*
X170849050Y-110490000D01*
X170958283Y-111039151D01*
X171269352Y-111504698D01*
X171647707Y-111757507D01*
X171215500Y-112105104D01*
X170945633Y-112598181D01*
X170928096Y-112680961D01*
X171050085Y-112903000D01*
X172593000Y-112903000D01*
X172593000Y-112883000D01*
X172847000Y-112883000D01*
X172847000Y-112903000D01*
X174389915Y-112903000D01*
X174511904Y-112680961D01*
X174494367Y-112598181D01*
X174224500Y-112105104D01*
X173792293Y-111757507D01*
X174170648Y-111504698D01*
X174481717Y-111039151D01*
X174590950Y-110490000D01*
X174481717Y-109940849D01*
X174170648Y-109475302D01*
X174024650Y-109377749D01*
X174155317Y-109353162D01*
X174371441Y-109214090D01*
X174516431Y-109001890D01*
X174567440Y-108750000D01*
X174567440Y-107150000D01*
X174523162Y-106914683D01*
X174384090Y-106698559D01*
X174171890Y-106553569D01*
X173920000Y-106502560D01*
X171520000Y-106502560D01*
X171284683Y-106546838D01*
X171068559Y-106685910D01*
X170923569Y-106898110D01*
X170872560Y-107150000D01*
X170872560Y-108750000D01*
X170916838Y-108985317D01*
X171055910Y-109201441D01*
X171268110Y-109346431D01*
X171417074Y-109376597D01*
X171269352Y-109475302D01*
X170958283Y-109940849D01*
X170849050Y-110490000D01*
X168876928Y-110490000D01*
X168691890Y-110363569D01*
X168440000Y-110312560D01*
X166840000Y-110312560D01*
X166604683Y-110356838D01*
X166388559Y-110495910D01*
X166243569Y-110708110D01*
X166192560Y-110960000D01*
X134862440Y-110960000D01*
X134862440Y-110895000D01*
X134818162Y-110659683D01*
X134679090Y-110443559D01*
X134555612Y-110359190D01*
X138744803Y-106170000D01*
X174310198Y-106170000D01*
X176627599Y-108487401D01*
X176874160Y-108652148D01*
X176922414Y-108661746D01*
X177165000Y-108710000D01*
X178719168Y-108710000D01*
X178889352Y-108964698D01*
X179271438Y-109220000D01*
X178889352Y-109475302D01*
X178578283Y-109940849D01*
X178469050Y-110490000D01*
X178578283Y-111039151D01*
X178889352Y-111504698D01*
X179271438Y-111760000D01*
X178889352Y-112015302D01*
X178578283Y-112480849D01*
X178469050Y-113030000D01*
X178578283Y-113579151D01*
X178889352Y-114044698D01*
X179271438Y-114300000D01*
X178889352Y-114555302D01*
X178578283Y-115020849D01*
X178469050Y-115570000D01*
X178578283Y-116119151D01*
X178889352Y-116584698D01*
X179354899Y-116895767D01*
X179904050Y-117005000D01*
X180775950Y-117005000D01*
X181325101Y-116895767D01*
X181790648Y-116584698D01*
X182101717Y-116119151D01*
X182210950Y-115570000D01*
X182124235Y-115134050D01*
X183985000Y-115134050D01*
X183985000Y-116005950D01*
X184094233Y-116555101D01*
X184405302Y-117020648D01*
X184870849Y-117331717D01*
X185420000Y-117440950D01*
X185969151Y-117331717D01*
X186434698Y-117020648D01*
X186690000Y-116638562D01*
X186945302Y-117020648D01*
X187410849Y-117331717D01*
X187960000Y-117440950D01*
X188509151Y-117331717D01*
X188974698Y-117020648D01*
X189230000Y-116638562D01*
X189485302Y-117020648D01*
X189950849Y-117331717D01*
X190500000Y-117440950D01*
X191049151Y-117331717D01*
X191514698Y-117020648D01*
X191770000Y-116638562D01*
X192025302Y-117020648D01*
X192490849Y-117331717D01*
X193040000Y-117440950D01*
X193589151Y-117331717D01*
X194054698Y-117020648D01*
X194365767Y-116555101D01*
X194475000Y-116005950D01*
X194475000Y-115134050D01*
X194365767Y-114584899D01*
X194054698Y-114119352D01*
X193589151Y-113808283D01*
X193040000Y-113699050D01*
X192490849Y-113808283D01*
X192025302Y-114119352D01*
X191770000Y-114501438D01*
X191514698Y-114119352D01*
X191049151Y-113808283D01*
X190500000Y-113699050D01*
X189950849Y-113808283D01*
X189485302Y-114119352D01*
X189230000Y-114501438D01*
X188974698Y-114119352D01*
X188509151Y-113808283D01*
X187960000Y-113699050D01*
X187410849Y-113808283D01*
X186945302Y-114119352D01*
X186690000Y-114501438D01*
X186434698Y-114119352D01*
X185969151Y-113808283D01*
X185420000Y-113699050D01*
X184870849Y-113808283D01*
X184405302Y-114119352D01*
X184094233Y-114584899D01*
X183985000Y-115134050D01*
X182124235Y-115134050D01*
X182101717Y-115020849D01*
X181790648Y-114555302D01*
X181408562Y-114300000D01*
X181790648Y-114044698D01*
X182101717Y-113579151D01*
X182210950Y-113030000D01*
X182101717Y-112480849D01*
X181790648Y-112015302D01*
X181408562Y-111760000D01*
X181790648Y-111504698D01*
X182101717Y-111039151D01*
X182210950Y-110490000D01*
X182101717Y-109940849D01*
X181790648Y-109475302D01*
X181408562Y-109220000D01*
X181790648Y-108964698D01*
X182101717Y-108499151D01*
X182210950Y-107950000D01*
X182101717Y-107400849D01*
X182046536Y-107318266D01*
X183194802Y-106170000D01*
X184962764Y-106170000D01*
X184870849Y-106188283D01*
X184405302Y-106499352D01*
X184094233Y-106964899D01*
X183985000Y-107514050D01*
X183985000Y-108385950D01*
X184094233Y-108935101D01*
X184405302Y-109400648D01*
X184870849Y-109711717D01*
X185420000Y-109820950D01*
X185969151Y-109711717D01*
X186434698Y-109400648D01*
X186690000Y-109018562D01*
X186945302Y-109400648D01*
X187410849Y-109711717D01*
X187960000Y-109820950D01*
X188509151Y-109711717D01*
X188974698Y-109400648D01*
X189230000Y-109018562D01*
X189485302Y-109400648D01*
X189950849Y-109711717D01*
X190500000Y-109820950D01*
X191049151Y-109711717D01*
X191514698Y-109400648D01*
X191612251Y-109254650D01*
X191636838Y-109385317D01*
X191775910Y-109601441D01*
X191988110Y-109746431D01*
X192240000Y-109797440D01*
X193840000Y-109797440D01*
X194075317Y-109753162D01*
X194291441Y-109614090D01*
X194436431Y-109401890D01*
X194487440Y-109150000D01*
X194487440Y-107500167D01*
X194644838Y-107500167D01*
X194786883Y-107843943D01*
X194820000Y-107877118D01*
X194820000Y-116912537D01*
X194787808Y-116944673D01*
X194645162Y-117288201D01*
X194644838Y-117660167D01*
X194786883Y-118003943D01*
X195049673Y-118267192D01*
X195393201Y-118409838D01*
X195765167Y-118410162D01*
X196108943Y-118268117D01*
X196372192Y-118005327D01*
X196514838Y-117661799D01*
X196515162Y-117289833D01*
X196373117Y-116946057D01*
X196340000Y-116912882D01*
X196340000Y-115120167D01*
X196549838Y-115120167D01*
X196691883Y-115463943D01*
X196954673Y-115727192D01*
X197298201Y-115869838D01*
X197345077Y-115869879D01*
X197360000Y-115884802D01*
X197360000Y-118110000D01*
X197417852Y-118400839D01*
X197582599Y-118647401D01*
X206472599Y-127537401D01*
X206719161Y-127702148D01*
X207010000Y-127760000D01*
X208823952Y-127760000D01*
X209008980Y-128207800D01*
X209609041Y-128808909D01*
X210393459Y-129134628D01*
X211242815Y-129135370D01*
X212027800Y-128811020D01*
X212628909Y-128210959D01*
X212954628Y-127426541D01*
X212955370Y-126577185D01*
X212631020Y-125792200D01*
X212030959Y-125191091D01*
X211246541Y-124865372D01*
X210397185Y-124864630D01*
X209612200Y-125188980D01*
X209011091Y-125789041D01*
X208823836Y-126240000D01*
X207324802Y-126240000D01*
X201504802Y-120420000D01*
X208672560Y-120420000D01*
X208672560Y-123420000D01*
X208716838Y-123655317D01*
X208855910Y-123871441D01*
X209068110Y-124016431D01*
X209320000Y-124067440D01*
X212320000Y-124067440D01*
X212555317Y-124023162D01*
X212771441Y-123884090D01*
X212916431Y-123671890D01*
X212967440Y-123420000D01*
X212967440Y-120420000D01*
X212923162Y-120184683D01*
X212784090Y-119968559D01*
X212571890Y-119823569D01*
X212320000Y-119772560D01*
X209320000Y-119772560D01*
X209084683Y-119816838D01*
X208868559Y-119955910D01*
X208723569Y-120168110D01*
X208672560Y-120420000D01*
X201504802Y-120420000D01*
X199494894Y-118410092D01*
X199575167Y-118410162D01*
X199918943Y-118268117D01*
X200182192Y-118005327D01*
X200324838Y-117661799D01*
X200325162Y-117289833D01*
X200183117Y-116946057D01*
X200150000Y-116912882D01*
X200150000Y-115570000D01*
X200092148Y-115279161D01*
X199927401Y-115032599D01*
X199690122Y-114795320D01*
X199690162Y-114749833D01*
X199548117Y-114406057D01*
X199285327Y-114142808D01*
X198941799Y-114000162D01*
X198569833Y-113999838D01*
X198226057Y-114141883D01*
X198120046Y-114247710D01*
X198015327Y-114142808D01*
X197671799Y-114000162D01*
X197299833Y-113999838D01*
X196956057Y-114141883D01*
X196692808Y-114404673D01*
X196550162Y-114748201D01*
X196549838Y-115120167D01*
X196340000Y-115120167D01*
X196340000Y-107877463D01*
X196372192Y-107845327D01*
X196514838Y-107501799D01*
X196515162Y-107129833D01*
X196373117Y-106786057D01*
X196110327Y-106522808D01*
X195766799Y-106380162D01*
X195394833Y-106379838D01*
X195051057Y-106521883D01*
X194787808Y-106784673D01*
X194645162Y-107128201D01*
X194644838Y-107500167D01*
X194487440Y-107500167D01*
X194487440Y-106750000D01*
X194443162Y-106514683D01*
X194304090Y-106298559D01*
X194115938Y-106170000D01*
X204790198Y-106170000D01*
X206885000Y-108264802D01*
X206885000Y-108759008D01*
X206477567Y-109031246D01*
X206360946Y-109205781D01*
X206182630Y-108978764D01*
X205619477Y-108662074D01*
X205487944Y-108630025D01*
X205232000Y-108749164D01*
X205232000Y-110363000D01*
X205252000Y-110363000D01*
X205252000Y-110617000D01*
X205232000Y-110617000D01*
X205232000Y-110637000D01*
X204978000Y-110637000D01*
X204978000Y-110617000D01*
X204958000Y-110617000D01*
X204958000Y-110363000D01*
X204978000Y-110363000D01*
X204978000Y-108749164D01*
X204722056Y-108630025D01*
X204590523Y-108662074D01*
X204027370Y-108978764D01*
X203849054Y-109205781D01*
X203732433Y-109031246D01*
X203196810Y-108673354D01*
X202565000Y-108547679D01*
X201933190Y-108673354D01*
X201397567Y-109031246D01*
X201039675Y-109566869D01*
X200914000Y-110198679D01*
X200914000Y-110781321D01*
X201039675Y-111413131D01*
X201397567Y-111948754D01*
X201933190Y-112306646D01*
X202565000Y-112432321D01*
X203196810Y-112306646D01*
X203732433Y-111948754D01*
X203849054Y-111774219D01*
X204027370Y-112001236D01*
X204590523Y-112317926D01*
X204722056Y-112349975D01*
X204977998Y-112230837D01*
X204977998Y-112295262D01*
X204814161Y-112327852D01*
X204567599Y-112492599D01*
X202302638Y-114757560D01*
X201130000Y-114757560D01*
X200894683Y-114801838D01*
X200678559Y-114940910D01*
X200533569Y-115153110D01*
X200482560Y-115405000D01*
X200482560Y-117005000D01*
X200526838Y-117240317D01*
X200665910Y-117456441D01*
X200878110Y-117601431D01*
X201130000Y-117652440D01*
X202730000Y-117652440D01*
X202965317Y-117608162D01*
X203181441Y-117469090D01*
X203185977Y-117462452D01*
X203713223Y-117651965D01*
X204283454Y-117624778D01*
X204684005Y-117458864D01*
X204758139Y-117212745D01*
X203930000Y-116384605D01*
X203915858Y-116398748D01*
X203736253Y-116219143D01*
X203750395Y-116205000D01*
X204109605Y-116205000D01*
X204937745Y-117033139D01*
X205183864Y-116959005D01*
X205376965Y-116421777D01*
X205349778Y-115851546D01*
X205183864Y-115450995D01*
X204937745Y-115376861D01*
X204109605Y-116205000D01*
X203750395Y-116205000D01*
X203736252Y-116190858D01*
X203915858Y-116011252D01*
X203930000Y-116025395D01*
X204758139Y-115197255D01*
X204684005Y-114951136D01*
X204371127Y-114838675D01*
X205419802Y-113790000D01*
X211965000Y-113790000D01*
X211965000Y-115890198D01*
X211950320Y-115904878D01*
X211904833Y-115904838D01*
X211561057Y-116046883D01*
X211297808Y-116309673D01*
X211155162Y-116653201D01*
X211154838Y-117025167D01*
X211296883Y-117368943D01*
X211559673Y-117632192D01*
X211903201Y-117774838D01*
X212275167Y-117775162D01*
X212618943Y-117633117D01*
X212882192Y-117370327D01*
X213024838Y-117026799D01*
X213024879Y-116979923D01*
X213262401Y-116742401D01*
X213427148Y-116495839D01*
X213485000Y-116205000D01*
X213485000Y-92710000D01*
X213427148Y-92419161D01*
X213427148Y-92419160D01*
X213262401Y-92172599D01*
X212332440Y-91242638D01*
X212332440Y-89940000D01*
X212288162Y-89704683D01*
X212149090Y-89488559D01*
X211936890Y-89343569D01*
X211685000Y-89292560D01*
X208685000Y-89292560D01*
X208449683Y-89336838D01*
X208233559Y-89475910D01*
X208088569Y-89688110D01*
X208037560Y-89940000D01*
X208037560Y-92940000D01*
X208081838Y-93175317D01*
X208220910Y-93391441D01*
X208433110Y-93536431D01*
X208685000Y-93587440D01*
X211685000Y-93587440D01*
X211920317Y-93543162D01*
X211965000Y-93514409D01*
X211965000Y-95318983D01*
X211698970Y-95185635D01*
X210364605Y-96520000D01*
X211698970Y-97854365D01*
X211965000Y-97721017D01*
X211965000Y-112080198D01*
X211775198Y-112270000D01*
X208331655Y-112270000D01*
X208812433Y-111948754D01*
X209170325Y-111413131D01*
X209296000Y-110781321D01*
X209296000Y-110198679D01*
X209170325Y-109566869D01*
X208812433Y-109031246D01*
X208405000Y-108759008D01*
X208405000Y-107950000D01*
X208347148Y-107659161D01*
X208347148Y-107659160D01*
X208182401Y-107412599D01*
X205642401Y-104872599D01*
X205395839Y-104707852D01*
X205105000Y-104650000D01*
X182880000Y-104650000D01*
X182637414Y-104698254D01*
X182589160Y-104707852D01*
X182342599Y-104872599D01*
X180700198Y-106515000D01*
X179904050Y-106515000D01*
X179354899Y-106624233D01*
X178889352Y-106935302D01*
X178719168Y-107190000D01*
X177479802Y-107190000D01*
X175162401Y-104872599D01*
X174915839Y-104707852D01*
X174625000Y-104650000D01*
X138430000Y-104650000D01*
X138139161Y-104707852D01*
X137892599Y-104872598D01*
X134726052Y-108039146D01*
X134849628Y-107741541D01*
X134850370Y-106892185D01*
X134526020Y-106107200D01*
X133925959Y-105506091D01*
X133141541Y-105180372D01*
X132292185Y-105179630D01*
X131507200Y-105503980D01*
X130906091Y-106104041D01*
X130580372Y-106888459D01*
X130579630Y-107737815D01*
X130903980Y-108522800D01*
X131504041Y-109123909D01*
X132288459Y-109449628D01*
X133137815Y-109450370D01*
X133439469Y-109325729D01*
X132517638Y-110247560D01*
X131215000Y-110247560D01*
X130979683Y-110291838D01*
X130763559Y-110430910D01*
X130618569Y-110643110D01*
X130567560Y-110895000D01*
X128980000Y-110895000D01*
X128980000Y-103748970D01*
X131380635Y-103748970D01*
X131540418Y-104067739D01*
X132331187Y-104377723D01*
X133180387Y-104361497D01*
X133889582Y-104067739D01*
X134049365Y-103748970D01*
X132715000Y-102414605D01*
X131380635Y-103748970D01*
X128980000Y-103748970D01*
X128980000Y-101851187D01*
X130572277Y-101851187D01*
X130588503Y-102700387D01*
X130882261Y-103409582D01*
X131201030Y-103569365D01*
X132535395Y-102235000D01*
X132894605Y-102235000D01*
X134228970Y-103569365D01*
X134547739Y-103409582D01*
X134857723Y-102618813D01*
X134841497Y-101769613D01*
X134547739Y-101060418D01*
X134228970Y-100900635D01*
X132894605Y-102235000D01*
X132535395Y-102235000D01*
X131201030Y-100900635D01*
X130882261Y-101060418D01*
X130572277Y-101851187D01*
X128980000Y-101851187D01*
X128980000Y-100721030D01*
X131380635Y-100721030D01*
X132715000Y-102055395D01*
X134049365Y-100721030D01*
X133889582Y-100402261D01*
X133098813Y-100092277D01*
X132249613Y-100108503D01*
X131540418Y-100402261D01*
X131380635Y-100721030D01*
X128980000Y-100721030D01*
X128980000Y-97340167D01*
X193374838Y-97340167D01*
X193516883Y-97683943D01*
X193550000Y-97717118D01*
X193550000Y-99132537D01*
X193517808Y-99164673D01*
X193375162Y-99508201D01*
X193374838Y-99880167D01*
X193516883Y-100223943D01*
X193779673Y-100487192D01*
X194123201Y-100629838D01*
X194495167Y-100630162D01*
X194838943Y-100488117D01*
X195102192Y-100225327D01*
X195244838Y-99881799D01*
X195245162Y-99509833D01*
X195103117Y-99166057D01*
X195070000Y-99132882D01*
X195070000Y-98058344D01*
X196764765Y-98058344D01*
X196970617Y-98556543D01*
X197351452Y-98938043D01*
X197849291Y-99144764D01*
X198388344Y-99145235D01*
X198886543Y-98939383D01*
X199268043Y-98558548D01*
X199390045Y-98264736D01*
X199510617Y-98556543D01*
X199891452Y-98938043D01*
X200389291Y-99144764D01*
X200928344Y-99145235D01*
X201426543Y-98939383D01*
X201808043Y-98558548D01*
X201930045Y-98264736D01*
X202050617Y-98556543D01*
X202431452Y-98938043D01*
X202929291Y-99144764D01*
X203468344Y-99145235D01*
X203966543Y-98939383D01*
X204348043Y-98558548D01*
X204554764Y-98060709D01*
X204554787Y-98033970D01*
X208850635Y-98033970D01*
X209010418Y-98352739D01*
X209801187Y-98662723D01*
X210650387Y-98646497D01*
X211359582Y-98352739D01*
X211519365Y-98033970D01*
X210185000Y-96699605D01*
X208850635Y-98033970D01*
X204554787Y-98033970D01*
X204555235Y-97521656D01*
X204349383Y-97023457D01*
X203968548Y-96641957D01*
X203470709Y-96435236D01*
X202931656Y-96434765D01*
X202433457Y-96640617D01*
X202051957Y-97021452D01*
X201929955Y-97315264D01*
X201809383Y-97023457D01*
X201428548Y-96641957D01*
X200930709Y-96435236D01*
X200391656Y-96434765D01*
X199893457Y-96640617D01*
X199511957Y-97021452D01*
X199389955Y-97315264D01*
X199269383Y-97023457D01*
X198888548Y-96641957D01*
X198390709Y-96435236D01*
X197851656Y-96434765D01*
X197353457Y-96640617D01*
X196971957Y-97021452D01*
X196765236Y-97519291D01*
X196764765Y-98058344D01*
X195070000Y-98058344D01*
X195070000Y-97717463D01*
X195102192Y-97685327D01*
X195244838Y-97341799D01*
X195245162Y-96969833D01*
X195103117Y-96626057D01*
X194840327Y-96362808D01*
X194496799Y-96220162D01*
X194124833Y-96219838D01*
X193781057Y-96361883D01*
X193517808Y-96624673D01*
X193375162Y-96968201D01*
X193374838Y-97340167D01*
X128980000Y-97340167D01*
X128980000Y-96136187D01*
X208042277Y-96136187D01*
X208058503Y-96985387D01*
X208352261Y-97694582D01*
X208671030Y-97854365D01*
X210005395Y-96520000D01*
X208671030Y-95185635D01*
X208352261Y-95345418D01*
X208042277Y-96136187D01*
X128980000Y-96136187D01*
X128980000Y-94800167D01*
X150194838Y-94800167D01*
X150336883Y-95143943D01*
X150599673Y-95407192D01*
X150943201Y-95549838D01*
X151315167Y-95550162D01*
X151658943Y-95408117D01*
X151692118Y-95375000D01*
X156917537Y-95375000D01*
X156949673Y-95407192D01*
X157293201Y-95549838D01*
X157665167Y-95550162D01*
X158008943Y-95408117D01*
X158272192Y-95145327D01*
X158330033Y-95006030D01*
X208850635Y-95006030D01*
X210185000Y-96340395D01*
X211519365Y-95006030D01*
X211359582Y-94687261D01*
X210568813Y-94377277D01*
X209719613Y-94393503D01*
X209010418Y-94687261D01*
X208850635Y-95006030D01*
X158330033Y-95006030D01*
X158414838Y-94801799D01*
X158415162Y-94429833D01*
X158273117Y-94086057D01*
X158010327Y-93822808D01*
X157986093Y-93812745D01*
X201736861Y-93812745D01*
X201810995Y-94058864D01*
X202348223Y-94251965D01*
X202918454Y-94224778D01*
X203319005Y-94058864D01*
X203393139Y-93812745D01*
X202565000Y-92984605D01*
X201736861Y-93812745D01*
X157986093Y-93812745D01*
X157666799Y-93680162D01*
X157294833Y-93679838D01*
X156951057Y-93821883D01*
X156917882Y-93855000D01*
X151692463Y-93855000D01*
X151660327Y-93822808D01*
X151316799Y-93680162D01*
X150944833Y-93679838D01*
X150601057Y-93821883D01*
X150337808Y-94084673D01*
X150195162Y-94428201D01*
X150194838Y-94800167D01*
X128980000Y-94800167D01*
X128980000Y-91746865D01*
X146235420Y-91746865D01*
X146235420Y-92403135D01*
X146317979Y-92818186D01*
X146553086Y-93170049D01*
X146904949Y-93405156D01*
X147320000Y-93487715D01*
X147735051Y-93405156D01*
X147955000Y-93258191D01*
X148174949Y-93405156D01*
X148590000Y-93487715D01*
X149005051Y-93405156D01*
X149070183Y-93361636D01*
X149158530Y-93422001D01*
X149410420Y-93473010D01*
X150309580Y-93473010D01*
X150544897Y-93428732D01*
X150761021Y-93289660D01*
X150906011Y-93077460D01*
X150957020Y-92825570D01*
X150957020Y-92447745D01*
X179551861Y-92447745D01*
X179625995Y-92693864D01*
X180163223Y-92886965D01*
X180733454Y-92859778D01*
X181134005Y-92693864D01*
X181208139Y-92447745D01*
X180380000Y-91619605D01*
X179551861Y-92447745D01*
X150957020Y-92447745D01*
X150957020Y-91324430D01*
X150937977Y-91223223D01*
X178933035Y-91223223D01*
X178960222Y-91793454D01*
X179126136Y-92194005D01*
X179372255Y-92268139D01*
X180200395Y-91440000D01*
X180559605Y-91440000D01*
X181387745Y-92268139D01*
X181435167Y-92253855D01*
X181476838Y-92475317D01*
X181615910Y-92691441D01*
X181828110Y-92836431D01*
X182080000Y-92887440D01*
X183680000Y-92887440D01*
X183915317Y-92843162D01*
X184131441Y-92704090D01*
X184276431Y-92491890D01*
X184327440Y-92240000D01*
X184327440Y-90640000D01*
X184283162Y-90404683D01*
X184144090Y-90188559D01*
X183931890Y-90043569D01*
X183741431Y-90005000D01*
X201117560Y-90005000D01*
X201117560Y-91605000D01*
X201161838Y-91840317D01*
X201300910Y-92056441D01*
X201307548Y-92060977D01*
X201118035Y-92588223D01*
X201145222Y-93158454D01*
X201311136Y-93559005D01*
X201557255Y-93633139D01*
X202385395Y-92805000D01*
X202371252Y-92790858D01*
X202550858Y-92611253D01*
X202565000Y-92625395D01*
X202579143Y-92611253D01*
X202758748Y-92790858D01*
X202744605Y-92805000D01*
X203572745Y-93633139D01*
X203818864Y-93559005D01*
X204011965Y-93021777D01*
X203984778Y-92451546D01*
X203822616Y-92060053D01*
X203961431Y-91856890D01*
X204012440Y-91605000D01*
X204012440Y-90005000D01*
X203968162Y-89769683D01*
X203829090Y-89553559D01*
X203616890Y-89408569D01*
X203365000Y-89357560D01*
X201765000Y-89357560D01*
X201529683Y-89401838D01*
X201313559Y-89540910D01*
X201168569Y-89753110D01*
X201117560Y-90005000D01*
X183741431Y-90005000D01*
X183680000Y-89992560D01*
X182080000Y-89992560D01*
X181844683Y-90036838D01*
X181628559Y-90175910D01*
X181483569Y-90388110D01*
X181435354Y-90626201D01*
X181387745Y-90611861D01*
X180559605Y-91440000D01*
X180200395Y-91440000D01*
X179372255Y-90611861D01*
X179126136Y-90685995D01*
X178933035Y-91223223D01*
X150937977Y-91223223D01*
X150912742Y-91089113D01*
X150773670Y-90872989D01*
X150561470Y-90727999D01*
X150309580Y-90676990D01*
X149410420Y-90676990D01*
X149175103Y-90721268D01*
X149070502Y-90788577D01*
X149005051Y-90744844D01*
X148590000Y-90662285D01*
X148174949Y-90744844D01*
X147955000Y-90891809D01*
X147735051Y-90744844D01*
X147320000Y-90662285D01*
X146904949Y-90744844D01*
X146553086Y-90979951D01*
X146317979Y-91331814D01*
X146235420Y-91746865D01*
X128980000Y-91746865D01*
X128980000Y-90432255D01*
X179551861Y-90432255D01*
X180380000Y-91260395D01*
X181208139Y-90432255D01*
X181134005Y-90186136D01*
X180596777Y-89993035D01*
X180026546Y-90020222D01*
X179625995Y-90186136D01*
X179551861Y-90432255D01*
X128980000Y-90432255D01*
X128980000Y-89085167D01*
X146384838Y-89085167D01*
X146526883Y-89428943D01*
X146789673Y-89692192D01*
X147133201Y-89834838D01*
X147505167Y-89835162D01*
X147848943Y-89693117D01*
X147882118Y-89660000D01*
X155647537Y-89660000D01*
X155679673Y-89692192D01*
X156023201Y-89834838D01*
X156395167Y-89835162D01*
X156738943Y-89693117D01*
X157002192Y-89430327D01*
X157144838Y-89086799D01*
X157145162Y-88714833D01*
X157003117Y-88371057D01*
X156740327Y-88107808D01*
X156396799Y-87965162D01*
X156024833Y-87964838D01*
X155681057Y-88106883D01*
X155647882Y-88140000D01*
X147882463Y-88140000D01*
X147850327Y-88107808D01*
X147506799Y-87965162D01*
X147134833Y-87964838D01*
X146791057Y-88106883D01*
X146527808Y-88369673D01*
X146385162Y-88713201D01*
X146384838Y-89085167D01*
X128980000Y-89085167D01*
X128980000Y-80195167D01*
X189564838Y-80195167D01*
X189706883Y-80538943D01*
X189969673Y-80802192D01*
X190313201Y-80944838D01*
X190685167Y-80945162D01*
X191028943Y-80803117D01*
X191062118Y-80770000D01*
X191455198Y-80770000D01*
X193374878Y-82689680D01*
X193374838Y-82735167D01*
X193516883Y-83078943D01*
X193779673Y-83342192D01*
X194123201Y-83484838D01*
X194495167Y-83485162D01*
X194838943Y-83343117D01*
X195102192Y-83080327D01*
X195244838Y-82736799D01*
X195245162Y-82364833D01*
X195103117Y-82021057D01*
X194840327Y-81757808D01*
X194496799Y-81615162D01*
X194449923Y-81615121D01*
X192307401Y-79472599D01*
X192060839Y-79307852D01*
X191770000Y-79250000D01*
X191062463Y-79250000D01*
X191030327Y-79217808D01*
X190686799Y-79075162D01*
X190314833Y-79074838D01*
X189971057Y-79216883D01*
X189707808Y-79479673D01*
X189565162Y-79823201D01*
X189564838Y-80195167D01*
X128980000Y-80195167D01*
X128980000Y-75273679D01*
X145669000Y-75273679D01*
X145669000Y-75856321D01*
X145794675Y-76488131D01*
X146152567Y-77023754D01*
X146688190Y-77381646D01*
X147320000Y-77507321D01*
X147951810Y-77381646D01*
X148487433Y-77023754D01*
X148590000Y-76870252D01*
X148692567Y-77023754D01*
X149228190Y-77381646D01*
X149860000Y-77507321D01*
X150491810Y-77381646D01*
X151027433Y-77023754D01*
X151130000Y-76870252D01*
X151232567Y-77023754D01*
X151768190Y-77381646D01*
X152400000Y-77507321D01*
X153031810Y-77381646D01*
X153567433Y-77023754D01*
X153925325Y-76488131D01*
X154051000Y-75856321D01*
X154051000Y-75273679D01*
X188849000Y-75273679D01*
X188849000Y-75856321D01*
X188974675Y-76488131D01*
X189332567Y-77023754D01*
X189868190Y-77381646D01*
X190500000Y-77507321D01*
X191131810Y-77381646D01*
X191667433Y-77023754D01*
X191770000Y-76870252D01*
X191872567Y-77023754D01*
X192408190Y-77381646D01*
X193040000Y-77507321D01*
X193671810Y-77381646D01*
X194207433Y-77023754D01*
X194310000Y-76870252D01*
X194412567Y-77023754D01*
X194948190Y-77381646D01*
X195580000Y-77507321D01*
X196211810Y-77381646D01*
X196747433Y-77023754D01*
X197105325Y-76488131D01*
X197231000Y-75856321D01*
X197231000Y-75273679D01*
X197105325Y-74641869D01*
X196747433Y-74106246D01*
X196211810Y-73748354D01*
X195580000Y-73622679D01*
X194948190Y-73748354D01*
X194412567Y-74106246D01*
X194310000Y-74259748D01*
X194207433Y-74106246D01*
X193671810Y-73748354D01*
X193040000Y-73622679D01*
X192408190Y-73748354D01*
X191872567Y-74106246D01*
X191770000Y-74259748D01*
X191667433Y-74106246D01*
X191131810Y-73748354D01*
X190500000Y-73622679D01*
X189868190Y-73748354D01*
X189332567Y-74106246D01*
X188974675Y-74641869D01*
X188849000Y-75273679D01*
X154051000Y-75273679D01*
X153925325Y-74641869D01*
X153567433Y-74106246D01*
X153031810Y-73748354D01*
X152400000Y-73622679D01*
X151768190Y-73748354D01*
X151232567Y-74106246D01*
X151130000Y-74259748D01*
X151027433Y-74106246D01*
X150491810Y-73748354D01*
X149860000Y-73622679D01*
X149228190Y-73748354D01*
X148692567Y-74106246D01*
X148590000Y-74259748D01*
X148487433Y-74106246D01*
X147951810Y-73748354D01*
X147320000Y-73622679D01*
X146688190Y-73748354D01*
X146152567Y-74106246D01*
X145794675Y-74641869D01*
X145669000Y-75273679D01*
X128980000Y-75273679D01*
X128980000Y-71641834D01*
X134524543Y-71641834D01*
X134924853Y-72610658D01*
X135665443Y-73352542D01*
X136633567Y-73754542D01*
X137681834Y-73755457D01*
X138650658Y-73355147D01*
X139392542Y-72614557D01*
X139794542Y-71646433D01*
X139794546Y-71641834D01*
X159924543Y-71641834D01*
X160324853Y-72610658D01*
X161065443Y-73352542D01*
X162033567Y-73754542D01*
X163081834Y-73755457D01*
X164050658Y-73355147D01*
X164792542Y-72614557D01*
X165194542Y-71646433D01*
X165194546Y-71641834D01*
X177704543Y-71641834D01*
X178104853Y-72610658D01*
X178845443Y-73352542D01*
X179813567Y-73754542D01*
X180861834Y-73755457D01*
X181830658Y-73355147D01*
X182572542Y-72614557D01*
X182974542Y-71646433D01*
X182974546Y-71641834D01*
X203104543Y-71641834D01*
X203504853Y-72610658D01*
X204245443Y-73352542D01*
X205213567Y-73754542D01*
X206261834Y-73755457D01*
X207230658Y-73355147D01*
X207972542Y-72614557D01*
X208374542Y-71646433D01*
X208375457Y-70598166D01*
X207975147Y-69629342D01*
X207234557Y-68887458D01*
X206266433Y-68485458D01*
X205218166Y-68484543D01*
X204249342Y-68884853D01*
X203507458Y-69625443D01*
X203105458Y-70593567D01*
X203104543Y-71641834D01*
X182974546Y-71641834D01*
X182975457Y-70598166D01*
X182575147Y-69629342D01*
X181834557Y-68887458D01*
X180866433Y-68485458D01*
X179818166Y-68484543D01*
X178849342Y-68884853D01*
X178107458Y-69625443D01*
X177705458Y-70593567D01*
X177704543Y-71641834D01*
X165194546Y-71641834D01*
X165195457Y-70598166D01*
X164795147Y-69629342D01*
X164054557Y-68887458D01*
X163086433Y-68485458D01*
X162038166Y-68484543D01*
X161069342Y-68884853D01*
X160327458Y-69625443D01*
X159925458Y-70593567D01*
X159924543Y-71641834D01*
X139794546Y-71641834D01*
X139795457Y-70598166D01*
X139395147Y-69629342D01*
X138654557Y-68887458D01*
X137686433Y-68485458D01*
X136638166Y-68484543D01*
X135669342Y-68884853D01*
X134927458Y-69625443D01*
X134525458Y-70593567D01*
X134524543Y-71641834D01*
X128980000Y-71641834D01*
X128980000Y-62934931D01*
X129228824Y-61684005D01*
X129897804Y-60682804D01*
X130899005Y-60013825D01*
X132149931Y-59765000D01*
X211385069Y-59765000D01*
X212635995Y-60013824D01*
M02*
