G04 #@! TF.FileFunction,Legend,Bot*
%FSLAX46Y46*%
G04 Gerber Fmt 4.6, Leading zero omitted, Abs format (unit mm)*
G04 Created by KiCad (PCBNEW 4.0.5) date Sat Mar 18 13:09:48 2017*
%MOMM*%
%LPD*%
G01*
G04 APERTURE LIST*
%ADD10C,0.100000*%
%ADD11C,0.300000*%
%ADD12C,0.250000*%
G04 APERTURE END LIST*
D10*
D11*
X202560535Y-139378571D02*
X202712321Y-140592857D01*
X202801607Y-140735714D01*
X202881964Y-140807143D01*
X203033749Y-140878571D01*
X203248035Y-140878571D01*
X203381964Y-140807143D01*
X202676607Y-140307143D02*
X202828392Y-140378571D01*
X203114106Y-140378571D01*
X203248036Y-140307143D01*
X203310535Y-140235714D01*
X203364107Y-140092857D01*
X203310536Y-139664286D01*
X203221250Y-139521429D01*
X203140893Y-139450000D01*
X202989106Y-139378571D01*
X202703392Y-139378571D01*
X202569464Y-139450000D01*
X201971249Y-140378571D02*
X201846249Y-139378571D01*
X201783749Y-138878571D02*
X201864107Y-138950000D01*
X201801607Y-139021429D01*
X201721250Y-138950000D01*
X201783749Y-138878571D01*
X201801607Y-139021429D01*
X201346249Y-139378571D02*
X200774820Y-139378571D01*
X201069463Y-138878571D02*
X201230178Y-140164286D01*
X201176607Y-140307143D01*
X201042677Y-140378571D01*
X200899820Y-140378571D01*
X200399820Y-140378571D02*
X200212320Y-138878571D01*
X199756963Y-140378571D02*
X199658749Y-139592857D01*
X199712321Y-139450000D01*
X199846249Y-139378571D01*
X200060534Y-139378571D01*
X200212321Y-139450000D01*
X200292678Y-139521429D01*
X198274820Y-139378571D02*
X198399820Y-140378571D01*
X198917677Y-139378571D02*
X199015892Y-140164286D01*
X198962321Y-140307143D01*
X198828391Y-140378571D01*
X198614106Y-140378571D01*
X198462321Y-140307143D01*
X198381963Y-140235714D01*
X197685534Y-140378571D02*
X197498034Y-138878571D01*
X197569463Y-139450000D02*
X197417677Y-139378571D01*
X197131963Y-139378571D01*
X196998035Y-139450000D01*
X196935535Y-139521429D01*
X196881963Y-139664286D01*
X196935534Y-140092857D01*
X197024820Y-140235714D01*
X197105178Y-140307143D01*
X197256963Y-140378571D01*
X197542677Y-140378571D01*
X197676606Y-140307143D01*
X196310534Y-140235714D02*
X196248035Y-140307143D01*
X196328391Y-140378571D01*
X196390892Y-140307143D01*
X196310534Y-140235714D01*
X196328391Y-140378571D01*
X194962320Y-140307143D02*
X195114105Y-140378571D01*
X195399819Y-140378571D01*
X195533749Y-140307143D01*
X195596248Y-140235714D01*
X195649820Y-140092857D01*
X195596249Y-139664286D01*
X195506963Y-139521429D01*
X195426606Y-139450000D01*
X195274819Y-139378571D01*
X194989105Y-139378571D01*
X194855177Y-139450000D01*
X194114105Y-140378571D02*
X194248035Y-140307143D01*
X194310534Y-140235714D01*
X194364106Y-140092857D01*
X194310535Y-139664286D01*
X194221249Y-139521429D01*
X194140892Y-139450000D01*
X193989105Y-139378571D01*
X193774820Y-139378571D01*
X193640892Y-139450000D01*
X193578392Y-139521429D01*
X193524820Y-139664286D01*
X193578391Y-140092857D01*
X193667677Y-140235714D01*
X193748035Y-140307143D01*
X193899820Y-140378571D01*
X194114105Y-140378571D01*
X192971248Y-140378571D02*
X192846248Y-139378571D01*
X192864106Y-139521429D02*
X192783749Y-139450000D01*
X192631962Y-139378571D01*
X192417677Y-139378571D01*
X192283749Y-139450000D01*
X192230177Y-139592857D01*
X192328391Y-140378571D01*
X192230177Y-139592857D02*
X192140891Y-139450000D01*
X191989105Y-139378571D01*
X191774820Y-139378571D01*
X191640891Y-139450000D01*
X191587320Y-139592857D01*
X191685534Y-140378571D01*
X189703392Y-138807143D02*
X191230177Y-140735714D01*
X189417677Y-139950000D02*
X188703391Y-139950000D01*
X189614105Y-140378571D02*
X188926605Y-138878571D01*
X188614105Y-140378571D01*
X188114105Y-140378571D02*
X187989105Y-139378571D01*
X188024820Y-139664286D02*
X187935535Y-139521429D01*
X187855177Y-139450000D01*
X187703391Y-139378571D01*
X187560534Y-139378571D01*
X186542677Y-140378571D02*
X186355177Y-138878571D01*
X186533749Y-140307143D02*
X186685534Y-140378571D01*
X186971248Y-140378571D01*
X187105178Y-140307143D01*
X187167677Y-140235714D01*
X187221249Y-140092857D01*
X187167678Y-139664286D01*
X187078392Y-139521429D01*
X186998035Y-139450000D01*
X186846248Y-139378571D01*
X186560534Y-139378571D01*
X186426606Y-139450000D01*
X185248035Y-140307143D02*
X185399820Y-140378571D01*
X185685534Y-140378571D01*
X185819463Y-140307143D01*
X185873035Y-140164286D01*
X185801606Y-139592857D01*
X185712320Y-139450000D01*
X185560534Y-139378571D01*
X185274820Y-139378571D01*
X185140892Y-139450000D01*
X185087320Y-139592857D01*
X185105177Y-139735714D01*
X185837320Y-139878571D01*
X184328391Y-140378571D02*
X184462321Y-140307143D01*
X184515892Y-140164286D01*
X184355177Y-138878571D01*
X183176607Y-140307143D02*
X183328392Y-140378571D01*
X183614106Y-140378571D01*
X183748035Y-140307143D01*
X183801607Y-140164286D01*
X183730178Y-139592857D01*
X183640892Y-139450000D01*
X183489106Y-139378571D01*
X183203392Y-139378571D01*
X183069464Y-139450000D01*
X183015892Y-139592857D01*
X183033749Y-139735714D01*
X183765892Y-139878571D01*
X181828392Y-140378571D02*
X181730178Y-139592857D01*
X181783750Y-139450000D01*
X181917678Y-139378571D01*
X182203392Y-139378571D01*
X182355178Y-139450000D01*
X181819464Y-140307143D02*
X181971249Y-140378571D01*
X182328392Y-140378571D01*
X182462321Y-140307143D01*
X182515893Y-140164286D01*
X182498036Y-140021429D01*
X182408749Y-139878571D01*
X182256964Y-139807143D01*
X181899821Y-139807143D01*
X181748035Y-139735714D01*
X180989106Y-139378571D02*
X181114106Y-140378571D01*
X181006964Y-139521429D02*
X180926607Y-139450000D01*
X180774820Y-139378571D01*
X180560535Y-139378571D01*
X180426607Y-139450000D01*
X180373035Y-139592857D01*
X180471249Y-140378571D01*
X179685535Y-139807143D02*
X178542678Y-139807143D01*
X177024820Y-140235714D02*
X177105178Y-140307143D01*
X177328392Y-140378571D01*
X177471249Y-140378571D01*
X177676606Y-140307143D01*
X177801607Y-140164286D01*
X177855178Y-140021429D01*
X177890892Y-139735714D01*
X177864107Y-139521429D01*
X177756963Y-139235714D01*
X177667678Y-139092857D01*
X177506963Y-138950000D01*
X177283749Y-138878571D01*
X177140892Y-138878571D01*
X176935535Y-138950000D01*
X176873035Y-139021429D01*
X175756963Y-140378571D02*
X175658749Y-139592857D01*
X175712321Y-139450000D01*
X175846249Y-139378571D01*
X176131963Y-139378571D01*
X176283749Y-139450000D01*
X175748035Y-140307143D02*
X175899820Y-140378571D01*
X176256963Y-140378571D01*
X176390892Y-140307143D01*
X176444464Y-140164286D01*
X176426607Y-140021429D01*
X176337320Y-139878571D01*
X176185535Y-139807143D01*
X175828392Y-139807143D01*
X175676606Y-139735714D01*
X174828391Y-140378571D02*
X174962321Y-140307143D01*
X175015892Y-140164286D01*
X174855177Y-138878571D01*
X174256963Y-140378571D02*
X174131963Y-139378571D01*
X174069463Y-138878571D02*
X174149821Y-138950000D01*
X174087321Y-139021429D01*
X174006964Y-138950000D01*
X174069463Y-138878571D01*
X174087321Y-139021429D01*
X173417677Y-139378571D02*
X173542677Y-140378571D01*
X173435535Y-139521429D02*
X173355178Y-139450000D01*
X173203391Y-139378571D01*
X172989106Y-139378571D01*
X172855178Y-139450000D01*
X172801606Y-139592857D01*
X172899820Y-140378571D01*
X170917678Y-138807143D02*
X172444463Y-140735714D01*
X170140891Y-138878571D02*
X169855177Y-138878571D01*
X169721248Y-138950000D01*
X169596248Y-139092857D01*
X169560534Y-139378571D01*
X169623034Y-139878571D01*
X169730177Y-140164286D01*
X169890891Y-140307143D01*
X170042677Y-140378571D01*
X170328391Y-140378571D01*
X170462320Y-140307143D01*
X170587320Y-140164286D01*
X170623034Y-139878571D01*
X170560534Y-139378571D01*
X170453391Y-139092857D01*
X170292677Y-138950000D01*
X170140891Y-138878571D01*
X168917676Y-139378571D02*
X169105176Y-140878571D01*
X168926605Y-139450000D02*
X168774819Y-139378571D01*
X168489105Y-139378571D01*
X168355177Y-139450000D01*
X168292677Y-139521429D01*
X168239105Y-139664286D01*
X168292676Y-140092857D01*
X168381962Y-140235714D01*
X168462320Y-140307143D01*
X168614105Y-140378571D01*
X168899819Y-140378571D01*
X169033748Y-140307143D01*
X167105177Y-140307143D02*
X167256962Y-140378571D01*
X167542676Y-140378571D01*
X167676605Y-140307143D01*
X167730177Y-140164286D01*
X167658748Y-139592857D01*
X167569462Y-139450000D01*
X167417676Y-139378571D01*
X167131962Y-139378571D01*
X166998034Y-139450000D01*
X166944462Y-139592857D01*
X166962319Y-139735714D01*
X167694462Y-139878571D01*
X166274819Y-139378571D02*
X166399819Y-140378571D01*
X166292677Y-139521429D02*
X166212320Y-139450000D01*
X166060533Y-139378571D01*
X165846248Y-139378571D01*
X165712320Y-139450000D01*
X165658748Y-139592857D01*
X165756962Y-140378571D01*
X164971248Y-139807143D02*
X163828391Y-139807143D01*
X163248034Y-140307143D02*
X163042676Y-140378571D01*
X162685533Y-140378571D01*
X162533748Y-140307143D01*
X162453390Y-140235714D01*
X162364105Y-140092857D01*
X162346248Y-139950000D01*
X162399819Y-139807143D01*
X162462319Y-139735714D01*
X162596248Y-139664286D01*
X162873033Y-139592857D01*
X163006963Y-139521429D01*
X163069462Y-139450000D01*
X163123034Y-139307143D01*
X163105177Y-139164286D01*
X163015891Y-139021429D01*
X162935534Y-138950000D01*
X162783747Y-138878571D01*
X162426605Y-138878571D01*
X162221248Y-138950000D01*
X161542676Y-140378571D02*
X161676606Y-140307143D01*
X161739105Y-140235714D01*
X161792677Y-140092857D01*
X161739106Y-139664286D01*
X161649820Y-139521429D01*
X161569463Y-139450000D01*
X161417676Y-139378571D01*
X161203391Y-139378571D01*
X161069463Y-139450000D01*
X161006963Y-139521429D01*
X160953391Y-139664286D01*
X161006962Y-140092857D01*
X161096248Y-140235714D01*
X161176606Y-140307143D01*
X161328391Y-140378571D01*
X161542676Y-140378571D01*
X159631962Y-139378571D02*
X159756962Y-140378571D01*
X160274819Y-139378571D02*
X160373034Y-140164286D01*
X160319463Y-140307143D01*
X160185533Y-140378571D01*
X159971248Y-140378571D01*
X159819463Y-140307143D01*
X159739105Y-140235714D01*
X159042676Y-140378571D02*
X158917676Y-139378571D01*
X158953391Y-139664286D02*
X158864106Y-139521429D01*
X158783748Y-139450000D01*
X158631962Y-139378571D01*
X158489105Y-139378571D01*
X157462320Y-140307143D02*
X157614105Y-140378571D01*
X157899819Y-140378571D01*
X158033749Y-140307143D01*
X158096248Y-140235714D01*
X158149820Y-140092857D01*
X158096249Y-139664286D01*
X158006963Y-139521429D01*
X157926606Y-139450000D01*
X157774819Y-139378571D01*
X157489105Y-139378571D01*
X157355177Y-139450000D01*
X156248035Y-140307143D02*
X156399820Y-140378571D01*
X156685534Y-140378571D01*
X156819463Y-140307143D01*
X156873035Y-140164286D01*
X156801606Y-139592857D01*
X156712320Y-139450000D01*
X156560534Y-139378571D01*
X156274820Y-139378571D01*
X156140892Y-139450000D01*
X156087320Y-139592857D01*
X156105177Y-139735714D01*
X156837320Y-139878571D01*
X155471249Y-139807143D02*
X154328392Y-139807143D01*
X153685534Y-140378571D02*
X153498034Y-138878571D01*
X152926606Y-138878571D01*
X152792677Y-138950000D01*
X152730178Y-139021429D01*
X152676606Y-139164286D01*
X152703391Y-139378571D01*
X152792678Y-139521429D01*
X152873034Y-139592857D01*
X153024821Y-139664286D01*
X153596249Y-139664286D01*
X151971248Y-140378571D02*
X152105178Y-140307143D01*
X152167677Y-140235714D01*
X152221249Y-140092857D01*
X152167678Y-139664286D01*
X152078392Y-139521429D01*
X151998035Y-139450000D01*
X151846248Y-139378571D01*
X151631963Y-139378571D01*
X151498035Y-139450000D01*
X151435535Y-139521429D01*
X151381963Y-139664286D01*
X151435534Y-140092857D01*
X151524820Y-140235714D01*
X151605178Y-140307143D01*
X151756963Y-140378571D01*
X151971248Y-140378571D01*
X150846248Y-139378571D02*
X150685534Y-140378571D01*
X150310535Y-139664286D01*
X150114105Y-140378571D01*
X149703391Y-139378571D01*
X148676606Y-140307143D02*
X148828391Y-140378571D01*
X149114105Y-140378571D01*
X149248034Y-140307143D01*
X149301606Y-140164286D01*
X149230177Y-139592857D01*
X149140891Y-139450000D01*
X148989105Y-139378571D01*
X148703391Y-139378571D01*
X148569463Y-139450000D01*
X148515891Y-139592857D01*
X148533748Y-139735714D01*
X149265891Y-139878571D01*
X147971248Y-140378571D02*
X147846248Y-139378571D01*
X147881963Y-139664286D02*
X147792678Y-139521429D01*
X147712320Y-139450000D01*
X147560534Y-139378571D01*
X147417677Y-139378571D01*
X146971249Y-139807143D02*
X145828392Y-139807143D01*
X145248035Y-140307143D02*
X145042677Y-140378571D01*
X144685534Y-140378571D01*
X144533749Y-140307143D01*
X144453391Y-140235714D01*
X144364106Y-140092857D01*
X144346249Y-139950000D01*
X144399820Y-139807143D01*
X144462320Y-139735714D01*
X144596249Y-139664286D01*
X144873034Y-139592857D01*
X145006964Y-139521429D01*
X145069463Y-139450000D01*
X145123035Y-139307143D01*
X145105178Y-139164286D01*
X145015892Y-139021429D01*
X144935535Y-138950000D01*
X144783748Y-138878571D01*
X144426606Y-138878571D01*
X144221249Y-138950000D01*
X142989106Y-139378571D02*
X143114106Y-140378571D01*
X143631963Y-139378571D02*
X143730178Y-140164286D01*
X143676607Y-140307143D01*
X143542677Y-140378571D01*
X143328392Y-140378571D01*
X143176607Y-140307143D01*
X143096249Y-140235714D01*
X142274820Y-139378571D02*
X142462320Y-140878571D01*
X142283749Y-139450000D02*
X142131963Y-139378571D01*
X141846249Y-139378571D01*
X141712321Y-139450000D01*
X141649821Y-139521429D01*
X141596249Y-139664286D01*
X141649820Y-140092857D01*
X141739106Y-140235714D01*
X141819464Y-140307143D01*
X141971249Y-140378571D01*
X142256963Y-140378571D01*
X142390892Y-140307143D01*
X140917677Y-139378571D02*
X141105177Y-140878571D01*
X140926606Y-139450000D02*
X140774820Y-139378571D01*
X140489106Y-139378571D01*
X140355178Y-139450000D01*
X140292678Y-139521429D01*
X140239106Y-139664286D01*
X140292677Y-140092857D01*
X140381963Y-140235714D01*
X140462321Y-140307143D01*
X140614106Y-140378571D01*
X140899820Y-140378571D01*
X141033749Y-140307143D01*
X139471248Y-140378571D02*
X139605178Y-140307143D01*
X139658749Y-140164286D01*
X139498034Y-138878571D01*
X138917677Y-139378571D02*
X138685534Y-140378571D01*
X138203392Y-139378571D02*
X138685534Y-140378571D01*
X138873035Y-140735714D01*
X138953392Y-140807143D01*
X139105177Y-140878571D01*
D12*
X178561192Y-87038571D02*
X178561192Y-85538571D01*
X178561192Y-86110000D02*
X178465954Y-86038571D01*
X178275477Y-86038571D01*
X178180239Y-86110000D01*
X178132620Y-86181429D01*
X178085001Y-86324286D01*
X178085001Y-86752857D01*
X178132620Y-86895714D01*
X178180239Y-86967143D01*
X178275477Y-87038571D01*
X178465954Y-87038571D01*
X178561192Y-86967143D01*
X177751668Y-86038571D02*
X177513573Y-87038571D01*
X177275477Y-86038571D02*
X177513573Y-87038571D01*
X177608811Y-87395714D01*
X177656430Y-87467143D01*
X177751668Y-87538571D01*
X176180239Y-86610000D02*
X175704048Y-86610000D01*
X176275477Y-87038571D02*
X175942144Y-85538571D01*
X175608810Y-87038571D01*
X175275477Y-87038571D02*
X175275477Y-86038571D01*
X175275477Y-86324286D02*
X175227858Y-86181429D01*
X175180239Y-86110000D01*
X175085001Y-86038571D01*
X174989762Y-86038571D01*
X174227857Y-87038571D02*
X174227857Y-85538571D01*
X174227857Y-86967143D02*
X174323095Y-87038571D01*
X174513572Y-87038571D01*
X174608810Y-86967143D01*
X174656429Y-86895714D01*
X174704048Y-86752857D01*
X174704048Y-86324286D01*
X174656429Y-86181429D01*
X174608810Y-86110000D01*
X174513572Y-86038571D01*
X174323095Y-86038571D01*
X174227857Y-86110000D01*
X173370714Y-86967143D02*
X173465952Y-87038571D01*
X173656429Y-87038571D01*
X173751667Y-86967143D01*
X173799286Y-86824286D01*
X173799286Y-86252857D01*
X173751667Y-86110000D01*
X173656429Y-86038571D01*
X173465952Y-86038571D01*
X173370714Y-86110000D01*
X173323095Y-86252857D01*
X173323095Y-86395714D01*
X173799286Y-86538571D01*
X172751667Y-87038571D02*
X172846905Y-86967143D01*
X172894524Y-86824286D01*
X172894524Y-85538571D01*
X171989761Y-86967143D02*
X172084999Y-87038571D01*
X172275476Y-87038571D01*
X172370714Y-86967143D01*
X172418333Y-86824286D01*
X172418333Y-86252857D01*
X172370714Y-86110000D01*
X172275476Y-86038571D01*
X172084999Y-86038571D01*
X171989761Y-86110000D01*
X171942142Y-86252857D01*
X171942142Y-86395714D01*
X172418333Y-86538571D01*
X171084999Y-87038571D02*
X171084999Y-86252857D01*
X171132618Y-86110000D01*
X171227856Y-86038571D01*
X171418333Y-86038571D01*
X171513571Y-86110000D01*
X171084999Y-86967143D02*
X171180237Y-87038571D01*
X171418333Y-87038571D01*
X171513571Y-86967143D01*
X171561190Y-86824286D01*
X171561190Y-86681429D01*
X171513571Y-86538571D01*
X171418333Y-86467143D01*
X171180237Y-86467143D01*
X171084999Y-86395714D01*
X170608809Y-86038571D02*
X170608809Y-87038571D01*
X170608809Y-86181429D02*
X170561190Y-86110000D01*
X170465952Y-86038571D01*
X170323094Y-86038571D01*
X170227856Y-86110000D01*
X170180237Y-86252857D01*
X170180237Y-87038571D01*
X168370713Y-86895714D02*
X168418332Y-86967143D01*
X168561189Y-87038571D01*
X168656427Y-87038571D01*
X168799285Y-86967143D01*
X168894523Y-86824286D01*
X168942142Y-86681429D01*
X168989761Y-86395714D01*
X168989761Y-86181429D01*
X168942142Y-85895714D01*
X168894523Y-85752857D01*
X168799285Y-85610000D01*
X168656427Y-85538571D01*
X168561189Y-85538571D01*
X168418332Y-85610000D01*
X168370713Y-85681429D01*
X167513570Y-87038571D02*
X167513570Y-86252857D01*
X167561189Y-86110000D01*
X167656427Y-86038571D01*
X167846904Y-86038571D01*
X167942142Y-86110000D01*
X167513570Y-86967143D02*
X167608808Y-87038571D01*
X167846904Y-87038571D01*
X167942142Y-86967143D01*
X167989761Y-86824286D01*
X167989761Y-86681429D01*
X167942142Y-86538571D01*
X167846904Y-86467143D01*
X167608808Y-86467143D01*
X167513570Y-86395714D01*
X167942142Y-85467143D02*
X167894523Y-85610000D01*
X167799285Y-85681429D01*
X167704047Y-85681429D01*
X167608808Y-85610000D01*
X167561189Y-85467143D01*
X166894523Y-87038571D02*
X166989761Y-86967143D01*
X167037380Y-86824286D01*
X167037380Y-85538571D01*
X166513570Y-87038571D02*
X166513570Y-86038571D01*
X166513570Y-85538571D02*
X166561189Y-85610000D01*
X166513570Y-85681429D01*
X166465951Y-85610000D01*
X166513570Y-85538571D01*
X166513570Y-85681429D01*
X166037380Y-86038571D02*
X166037380Y-87038571D01*
X166037380Y-86181429D02*
X165989761Y-86110000D01*
X165894523Y-86038571D01*
X165751665Y-86038571D01*
X165656427Y-86110000D01*
X165608808Y-86252857D01*
X165608808Y-87038571D01*
D11*
X183255713Y-78773571D02*
X183969999Y-78773571D01*
X183969999Y-77273571D01*
X182755713Y-78773571D02*
X182755713Y-77773571D01*
X182755713Y-77273571D02*
X182827142Y-77345000D01*
X182755713Y-77416429D01*
X182684285Y-77345000D01*
X182755713Y-77273571D01*
X182755713Y-77416429D01*
X182041427Y-77773571D02*
X182041427Y-78773571D01*
X182041427Y-77916429D02*
X181969999Y-77845000D01*
X181827141Y-77773571D01*
X181612856Y-77773571D01*
X181469999Y-77845000D01*
X181398570Y-77987857D01*
X181398570Y-78773571D01*
X180112856Y-78702143D02*
X180255713Y-78773571D01*
X180541427Y-78773571D01*
X180684284Y-78702143D01*
X180755713Y-78559286D01*
X180755713Y-77987857D01*
X180684284Y-77845000D01*
X180541427Y-77773571D01*
X180255713Y-77773571D01*
X180112856Y-77845000D01*
X180041427Y-77987857D01*
X180041427Y-78130714D01*
X180755713Y-78273571D01*
X178755713Y-78773571D02*
X178755713Y-77987857D01*
X178827142Y-77845000D01*
X178969999Y-77773571D01*
X179255713Y-77773571D01*
X179398570Y-77845000D01*
X178755713Y-78702143D02*
X178898570Y-78773571D01*
X179255713Y-78773571D01*
X179398570Y-78702143D01*
X179469999Y-78559286D01*
X179469999Y-78416429D01*
X179398570Y-78273571D01*
X179255713Y-78202143D01*
X178898570Y-78202143D01*
X178755713Y-78130714D01*
X178041427Y-78773571D02*
X178041427Y-77773571D01*
X178041427Y-78059286D02*
X177969999Y-77916429D01*
X177898570Y-77845000D01*
X177755713Y-77773571D01*
X177612856Y-77773571D01*
X175969999Y-78773571D02*
X175969999Y-77273571D01*
X175398571Y-77273571D01*
X175255713Y-77345000D01*
X175184285Y-77416429D01*
X175112856Y-77559286D01*
X175112856Y-77773571D01*
X175184285Y-77916429D01*
X175255713Y-77987857D01*
X175398571Y-78059286D01*
X175969999Y-78059286D01*
X174255713Y-78773571D02*
X174398571Y-78702143D01*
X174469999Y-78630714D01*
X174541428Y-78487857D01*
X174541428Y-78059286D01*
X174469999Y-77916429D01*
X174398571Y-77845000D01*
X174255713Y-77773571D01*
X174041428Y-77773571D01*
X173898571Y-77845000D01*
X173827142Y-77916429D01*
X173755713Y-78059286D01*
X173755713Y-78487857D01*
X173827142Y-78630714D01*
X173898571Y-78702143D01*
X174041428Y-78773571D01*
X174255713Y-78773571D01*
X173255713Y-77773571D02*
X172969999Y-78773571D01*
X172684285Y-78059286D01*
X172398570Y-78773571D01*
X172112856Y-77773571D01*
X170969999Y-78702143D02*
X171112856Y-78773571D01*
X171398570Y-78773571D01*
X171541427Y-78702143D01*
X171612856Y-78559286D01*
X171612856Y-77987857D01*
X171541427Y-77845000D01*
X171398570Y-77773571D01*
X171112856Y-77773571D01*
X170969999Y-77845000D01*
X170898570Y-77987857D01*
X170898570Y-78130714D01*
X171612856Y-78273571D01*
X170255713Y-78773571D02*
X170255713Y-77773571D01*
X170255713Y-78059286D02*
X170184285Y-77916429D01*
X170112856Y-77845000D01*
X169969999Y-77773571D01*
X169827142Y-77773571D01*
X168255714Y-78702143D02*
X168041428Y-78773571D01*
X167684285Y-78773571D01*
X167541428Y-78702143D01*
X167469999Y-78630714D01*
X167398571Y-78487857D01*
X167398571Y-78345000D01*
X167469999Y-78202143D01*
X167541428Y-78130714D01*
X167684285Y-78059286D01*
X167969999Y-77987857D01*
X168112857Y-77916429D01*
X168184285Y-77845000D01*
X168255714Y-77702143D01*
X168255714Y-77559286D01*
X168184285Y-77416429D01*
X168112857Y-77345000D01*
X167969999Y-77273571D01*
X167612857Y-77273571D01*
X167398571Y-77345000D01*
X166112857Y-77773571D02*
X166112857Y-78773571D01*
X166755714Y-77773571D02*
X166755714Y-78559286D01*
X166684286Y-78702143D01*
X166541428Y-78773571D01*
X166327143Y-78773571D01*
X166184286Y-78702143D01*
X166112857Y-78630714D01*
X165398571Y-77773571D02*
X165398571Y-79273571D01*
X165398571Y-77845000D02*
X165255714Y-77773571D01*
X164970000Y-77773571D01*
X164827143Y-77845000D01*
X164755714Y-77916429D01*
X164684285Y-78059286D01*
X164684285Y-78487857D01*
X164755714Y-78630714D01*
X164827143Y-78702143D01*
X164970000Y-78773571D01*
X165255714Y-78773571D01*
X165398571Y-78702143D01*
X164041428Y-77773571D02*
X164041428Y-79273571D01*
X164041428Y-77845000D02*
X163898571Y-77773571D01*
X163612857Y-77773571D01*
X163470000Y-77845000D01*
X163398571Y-77916429D01*
X163327142Y-78059286D01*
X163327142Y-78487857D01*
X163398571Y-78630714D01*
X163470000Y-78702143D01*
X163612857Y-78773571D01*
X163898571Y-78773571D01*
X164041428Y-78702143D01*
X162469999Y-78773571D02*
X162612857Y-78702143D01*
X162684285Y-78559286D01*
X162684285Y-77273571D01*
X162041428Y-77773571D02*
X161684285Y-78773571D01*
X161327143Y-77773571D02*
X161684285Y-78773571D01*
X161827143Y-79130714D01*
X161898571Y-79202143D01*
X162041428Y-79273571D01*
X175791428Y-79823571D02*
X175648571Y-79823571D01*
X175505714Y-79895000D01*
X175434285Y-79966429D01*
X175362856Y-80109286D01*
X175291428Y-80395000D01*
X175291428Y-80752143D01*
X175362856Y-81037857D01*
X175434285Y-81180714D01*
X175505714Y-81252143D01*
X175648571Y-81323571D01*
X175791428Y-81323571D01*
X175934285Y-81252143D01*
X176005714Y-81180714D01*
X176077142Y-81037857D01*
X176148571Y-80752143D01*
X176148571Y-80395000D01*
X176077142Y-80109286D01*
X176005714Y-79966429D01*
X175934285Y-79895000D01*
X175791428Y-79823571D01*
X174648571Y-80752143D02*
X173505714Y-80752143D01*
X172005714Y-81323571D02*
X172862857Y-81323571D01*
X172434285Y-81323571D02*
X172434285Y-79823571D01*
X172577142Y-80037857D01*
X172720000Y-80180714D01*
X172862857Y-80252143D01*
X171434286Y-79966429D02*
X171362857Y-79895000D01*
X171220000Y-79823571D01*
X170862857Y-79823571D01*
X170720000Y-79895000D01*
X170648571Y-79966429D01*
X170577143Y-80109286D01*
X170577143Y-80252143D01*
X170648571Y-80466429D01*
X171505714Y-81323571D01*
X170577143Y-81323571D01*
X170148572Y-79823571D02*
X169648572Y-81323571D01*
X169148572Y-79823571D01*
X177505713Y-82373571D02*
X177362856Y-82373571D01*
X177219999Y-82445000D01*
X177148570Y-82516429D01*
X177077141Y-82659286D01*
X177005713Y-82945000D01*
X177005713Y-83302143D01*
X177077141Y-83587857D01*
X177148570Y-83730714D01*
X177219999Y-83802143D01*
X177362856Y-83873571D01*
X177505713Y-83873571D01*
X177648570Y-83802143D01*
X177719999Y-83730714D01*
X177791427Y-83587857D01*
X177862856Y-83302143D01*
X177862856Y-82945000D01*
X177791427Y-82659286D01*
X177719999Y-82516429D01*
X177648570Y-82445000D01*
X177505713Y-82373571D01*
X176362856Y-83302143D02*
X175219999Y-83302143D01*
X174291427Y-83016429D02*
X174434285Y-82945000D01*
X174505713Y-82873571D01*
X174577142Y-82730714D01*
X174577142Y-82659286D01*
X174505713Y-82516429D01*
X174434285Y-82445000D01*
X174291427Y-82373571D01*
X174005713Y-82373571D01*
X173862856Y-82445000D01*
X173791427Y-82516429D01*
X173719999Y-82659286D01*
X173719999Y-82730714D01*
X173791427Y-82873571D01*
X173862856Y-82945000D01*
X174005713Y-83016429D01*
X174291427Y-83016429D01*
X174434285Y-83087857D01*
X174505713Y-83159286D01*
X174577142Y-83302143D01*
X174577142Y-83587857D01*
X174505713Y-83730714D01*
X174434285Y-83802143D01*
X174291427Y-83873571D01*
X174005713Y-83873571D01*
X173862856Y-83802143D01*
X173791427Y-83730714D01*
X173719999Y-83587857D01*
X173719999Y-83302143D01*
X173791427Y-83159286D01*
X173862856Y-83087857D01*
X174005713Y-83016429D01*
X172791428Y-82373571D02*
X172648571Y-82373571D01*
X172505714Y-82445000D01*
X172434285Y-82516429D01*
X172362856Y-82659286D01*
X172291428Y-82945000D01*
X172291428Y-83302143D01*
X172362856Y-83587857D01*
X172434285Y-83730714D01*
X172505714Y-83802143D01*
X172648571Y-83873571D01*
X172791428Y-83873571D01*
X172934285Y-83802143D01*
X173005714Y-83730714D01*
X173077142Y-83587857D01*
X173148571Y-83302143D01*
X173148571Y-82945000D01*
X173077142Y-82659286D01*
X173005714Y-82516429D01*
X172934285Y-82445000D01*
X172791428Y-82373571D01*
X171362857Y-82373571D02*
X171220000Y-82373571D01*
X171077143Y-82445000D01*
X171005714Y-82516429D01*
X170934285Y-82659286D01*
X170862857Y-82945000D01*
X170862857Y-83302143D01*
X170934285Y-83587857D01*
X171005714Y-83730714D01*
X171077143Y-83802143D01*
X171220000Y-83873571D01*
X171362857Y-83873571D01*
X171505714Y-83802143D01*
X171577143Y-83730714D01*
X171648571Y-83587857D01*
X171720000Y-83302143D01*
X171720000Y-82945000D01*
X171648571Y-82659286D01*
X171577143Y-82516429D01*
X171505714Y-82445000D01*
X171362857Y-82373571D01*
X170220000Y-83873571D02*
X170220000Y-82873571D01*
X170220000Y-83016429D02*
X170148572Y-82945000D01*
X170005714Y-82873571D01*
X169791429Y-82873571D01*
X169648572Y-82945000D01*
X169577143Y-83087857D01*
X169577143Y-83873571D01*
X169577143Y-83087857D02*
X169505714Y-82945000D01*
X169362857Y-82873571D01*
X169148572Y-82873571D01*
X169005714Y-82945000D01*
X168934286Y-83087857D01*
X168934286Y-83873571D01*
X168291429Y-83445000D02*
X167577143Y-83445000D01*
X168434286Y-83873571D02*
X167934286Y-82373571D01*
X167434286Y-83873571D01*
M02*
