G04 #@! TF.FileFunction,Soldermask,Top*
%FSLAX46Y46*%
G04 Gerber Fmt 4.6, Leading zero omitted, Abs format (unit mm)*
G04 Created by KiCad (PCBNEW 4.0.5) date Sat Mar 18 13:09:48 2017*
%MOMM*%
%LPD*%
G01*
G04 APERTURE LIST*
%ADD10C,0.100000*%
%ADD11R,2.000000X2.000000*%
%ADD12C,2.000000*%
%ADD13R,2.400000X2.900000*%
%ADD14R,1.650000X1.900000*%
%ADD15R,1.400000X1.400000*%
%ADD16C,4.400000*%
%ADD17R,3.400000X3.400000*%
%ADD18C,3.400000*%
%ADD19R,1.900000X1.700000*%
%ADD20R,1.700000X1.900000*%
%ADD21C,1.840000*%
%ADD22R,2.000000X2.800000*%
%ADD23O,2.000000X2.800000*%
%ADD24O,2.432000X2.940000*%
%ADD25O,1.299160X1.901140*%
%ADD26R,1.299160X1.901140*%
%ADD27R,2.800000X2.000000*%
%ADD28O,2.800000X2.000000*%
%ADD29R,2.400000X2.100000*%
G04 APERTURE END LIST*
D10*
D11*
X202565000Y-90805000D03*
D12*
X202565000Y-92805000D03*
D11*
X132080000Y-119380000D03*
D12*
X134580000Y-119380000D03*
D11*
X182880000Y-91440000D03*
D12*
X180380000Y-91440000D03*
D13*
X144875000Y-87630000D03*
X140875000Y-87630000D03*
D11*
X167640000Y-111760000D03*
D12*
X167640000Y-113760000D03*
D11*
X175260000Y-120650000D03*
D12*
X177260000Y-120650000D03*
D11*
X201930000Y-116205000D03*
D12*
X203930000Y-116205000D03*
D14*
X207645000Y-114320000D03*
X207645000Y-116820000D03*
D15*
X172700000Y-71120000D03*
X170200000Y-71120000D03*
X149840000Y-87630000D03*
X147340000Y-87630000D03*
X148570000Y-96520000D03*
X146070000Y-96520000D03*
X177185000Y-139065000D03*
X179685000Y-139065000D03*
X177185000Y-136525000D03*
X179685000Y-136525000D03*
X163850000Y-127635000D03*
X166350000Y-127635000D03*
X166350000Y-125095000D03*
X163850000Y-125095000D03*
X173970000Y-127635000D03*
X171470000Y-127635000D03*
X210185000Y-116820000D03*
X210185000Y-114320000D03*
X207665000Y-104140000D03*
X210165000Y-104140000D03*
D16*
X180340000Y-71120000D03*
X205740000Y-71120000D03*
X137160000Y-71120000D03*
X162560000Y-71120000D03*
D17*
X210185000Y-91440000D03*
D18*
X210185000Y-96520000D03*
D17*
X132715000Y-126365000D03*
D18*
X132715000Y-131445000D03*
D17*
X132715000Y-112395000D03*
D18*
X132715000Y-107315000D03*
X132715000Y-102235000D03*
D17*
X210820000Y-121920000D03*
D18*
X210820000Y-127000000D03*
X210820000Y-132080000D03*
D19*
X193120000Y-104140000D03*
X190420000Y-104140000D03*
X188040000Y-104140000D03*
X185340000Y-104140000D03*
D20*
X190500000Y-101045000D03*
X190500000Y-98345000D03*
X187960000Y-101045000D03*
X187960000Y-98345000D03*
D19*
X149940000Y-85090000D03*
X147240000Y-85090000D03*
D20*
X144145000Y-91360000D03*
X144145000Y-94060000D03*
X179070000Y-133430000D03*
X179070000Y-130730000D03*
D19*
X165020000Y-135890000D03*
X167720000Y-135890000D03*
X179150000Y-127635000D03*
X176450000Y-127635000D03*
D21*
X198120000Y-97790000D03*
X200660000Y-97790000D03*
X203200000Y-97790000D03*
D16*
X192925000Y-134610000D03*
X192935000Y-129520000D03*
X192945000Y-124460000D03*
X149745000Y-134610000D03*
X149755000Y-129520000D03*
X149765000Y-124460000D03*
D22*
X193040000Y-107950000D03*
D23*
X185420000Y-115570000D03*
X190500000Y-107950000D03*
X187960000Y-115570000D03*
X187960000Y-107950000D03*
X190500000Y-115570000D03*
X185420000Y-107950000D03*
X193040000Y-115570000D03*
D24*
X193040000Y-75565000D03*
X195580000Y-75565000D03*
X190500000Y-75565000D03*
X149860000Y-75565000D03*
X152400000Y-75565000D03*
X147320000Y-75565000D03*
D25*
X148590000Y-92075000D03*
X147320000Y-92075000D03*
D26*
X149860000Y-92075000D03*
D25*
X174625000Y-131445000D03*
X173355000Y-131445000D03*
D26*
X175895000Y-131445000D03*
D25*
X165735000Y-132080000D03*
X167005000Y-132080000D03*
D26*
X164465000Y-132080000D03*
D27*
X172720000Y-107950000D03*
D28*
X180340000Y-115570000D03*
X172720000Y-110490000D03*
X180340000Y-113030000D03*
X172720000Y-113030000D03*
X180340000Y-110490000D03*
X172720000Y-115570000D03*
X180340000Y-107950000D03*
D24*
X205105000Y-110490000D03*
X207645000Y-110490000D03*
X202565000Y-110490000D03*
D29*
X187230000Y-85090000D03*
X191230000Y-85090000D03*
X187230000Y-87630000D03*
X191230000Y-87630000D03*
X187230000Y-90170000D03*
X191230000Y-90170000D03*
X187230000Y-92710000D03*
X191230000Y-92710000D03*
X187230000Y-95250000D03*
X191230000Y-95250000D03*
M02*
