G04 #@! TF.FileFunction,Legend,Top*
%FSLAX46Y46*%
G04 Gerber Fmt 4.6, Leading zero omitted, Abs format (unit mm)*
G04 Created by KiCad (PCBNEW 4.0.5) date Sat Mar 18 13:09:48 2017*
%MOMM*%
%LPD*%
G01*
G04 APERTURE LIST*
%ADD10C,0.100000*%
%ADD11C,0.300000*%
%ADD12C,0.120000*%
%ADD13C,0.150000*%
G04 APERTURE END LIST*
D10*
D11*
X144725000Y-119828571D02*
X145225000Y-121328571D01*
X145725000Y-119828571D01*
X145867857Y-121471429D02*
X147010714Y-121471429D01*
X148010714Y-121328571D02*
X148010714Y-120542857D01*
X147939285Y-120400000D01*
X147796428Y-120328571D01*
X147510714Y-120328571D01*
X147367857Y-120400000D01*
X148010714Y-121257143D02*
X147867857Y-121328571D01*
X147510714Y-121328571D01*
X147367857Y-121257143D01*
X147296428Y-121114286D01*
X147296428Y-120971429D01*
X147367857Y-120828571D01*
X147510714Y-120757143D01*
X147867857Y-120757143D01*
X148010714Y-120685714D01*
X149367857Y-121328571D02*
X149367857Y-119828571D01*
X149367857Y-121257143D02*
X149225000Y-121328571D01*
X148939286Y-121328571D01*
X148796428Y-121257143D01*
X148725000Y-121185714D01*
X148653571Y-121042857D01*
X148653571Y-120614286D01*
X148725000Y-120471429D01*
X148796428Y-120400000D01*
X148939286Y-120328571D01*
X149225000Y-120328571D01*
X149367857Y-120400000D01*
X150082143Y-120328571D02*
X150082143Y-121614286D01*
X150010714Y-121757143D01*
X149867857Y-121828571D01*
X149796429Y-121828571D01*
X150082143Y-119828571D02*
X150010714Y-119900000D01*
X150082143Y-119971429D01*
X150153571Y-119900000D01*
X150082143Y-119828571D01*
X150082143Y-119971429D01*
X151439286Y-120328571D02*
X151439286Y-121328571D01*
X150796429Y-120328571D02*
X150796429Y-121114286D01*
X150867857Y-121257143D01*
X151010715Y-121328571D01*
X151225000Y-121328571D01*
X151367857Y-121257143D01*
X151439286Y-121185714D01*
X152082143Y-121257143D02*
X152225000Y-121328571D01*
X152510715Y-121328571D01*
X152653572Y-121257143D01*
X152725000Y-121114286D01*
X152725000Y-121042857D01*
X152653572Y-120900000D01*
X152510715Y-120828571D01*
X152296429Y-120828571D01*
X152153572Y-120757143D01*
X152082143Y-120614286D01*
X152082143Y-120542857D01*
X152153572Y-120400000D01*
X152296429Y-120328571D01*
X152510715Y-120328571D01*
X152653572Y-120400000D01*
X153153572Y-120328571D02*
X153725001Y-120328571D01*
X153367858Y-119828571D02*
X153367858Y-121114286D01*
X153439286Y-121257143D01*
X153582144Y-121328571D01*
X153725001Y-121328571D01*
X189504286Y-121185714D02*
X189432857Y-121257143D01*
X189218571Y-121328571D01*
X189075714Y-121328571D01*
X188861429Y-121257143D01*
X188718571Y-121114286D01*
X188647143Y-120971429D01*
X188575714Y-120685714D01*
X188575714Y-120471429D01*
X188647143Y-120185714D01*
X188718571Y-120042857D01*
X188861429Y-119900000D01*
X189075714Y-119828571D01*
X189218571Y-119828571D01*
X189432857Y-119900000D01*
X189504286Y-119971429D01*
X189790000Y-121471429D02*
X190932857Y-121471429D01*
X191932857Y-121328571D02*
X191932857Y-120542857D01*
X191861428Y-120400000D01*
X191718571Y-120328571D01*
X191432857Y-120328571D01*
X191290000Y-120400000D01*
X191932857Y-121257143D02*
X191790000Y-121328571D01*
X191432857Y-121328571D01*
X191290000Y-121257143D01*
X191218571Y-121114286D01*
X191218571Y-120971429D01*
X191290000Y-120828571D01*
X191432857Y-120757143D01*
X191790000Y-120757143D01*
X191932857Y-120685714D01*
X193290000Y-121328571D02*
X193290000Y-119828571D01*
X193290000Y-121257143D02*
X193147143Y-121328571D01*
X192861429Y-121328571D01*
X192718571Y-121257143D01*
X192647143Y-121185714D01*
X192575714Y-121042857D01*
X192575714Y-120614286D01*
X192647143Y-120471429D01*
X192718571Y-120400000D01*
X192861429Y-120328571D01*
X193147143Y-120328571D01*
X193290000Y-120400000D01*
X194004286Y-120328571D02*
X194004286Y-121614286D01*
X193932857Y-121757143D01*
X193790000Y-121828571D01*
X193718572Y-121828571D01*
X194004286Y-119828571D02*
X193932857Y-119900000D01*
X194004286Y-119971429D01*
X194075714Y-119900000D01*
X194004286Y-119828571D01*
X194004286Y-119971429D01*
X195361429Y-120328571D02*
X195361429Y-121328571D01*
X194718572Y-120328571D02*
X194718572Y-121114286D01*
X194790000Y-121257143D01*
X194932858Y-121328571D01*
X195147143Y-121328571D01*
X195290000Y-121257143D01*
X195361429Y-121185714D01*
X196004286Y-121257143D02*
X196147143Y-121328571D01*
X196432858Y-121328571D01*
X196575715Y-121257143D01*
X196647143Y-121114286D01*
X196647143Y-121042857D01*
X196575715Y-120900000D01*
X196432858Y-120828571D01*
X196218572Y-120828571D01*
X196075715Y-120757143D01*
X196004286Y-120614286D01*
X196004286Y-120542857D01*
X196075715Y-120400000D01*
X196218572Y-120328571D01*
X196432858Y-120328571D01*
X196575715Y-120400000D01*
X197075715Y-120328571D02*
X197647144Y-120328571D01*
X197290001Y-119828571D02*
X197290001Y-121114286D01*
X197361429Y-121257143D01*
X197504287Y-121328571D01*
X197647144Y-121328571D01*
X206275714Y-130285714D02*
X206347143Y-130357143D01*
X206418571Y-130571429D01*
X206418571Y-130714286D01*
X206347143Y-130928571D01*
X206204286Y-131071429D01*
X206061429Y-131142857D01*
X205775714Y-131214286D01*
X205561429Y-131214286D01*
X205275714Y-131142857D01*
X205132857Y-131071429D01*
X204990000Y-130928571D01*
X204918571Y-130714286D01*
X204918571Y-130571429D01*
X204990000Y-130357143D01*
X205061429Y-130285714D01*
X206561429Y-130000000D02*
X206561429Y-128857143D01*
X206347143Y-128571429D02*
X206418571Y-128428572D01*
X206418571Y-128142857D01*
X206347143Y-128000000D01*
X206204286Y-127928572D01*
X206132857Y-127928572D01*
X205990000Y-128000000D01*
X205918571Y-128142857D01*
X205918571Y-128357143D01*
X205847143Y-128500000D01*
X205704286Y-128571429D01*
X205632857Y-128571429D01*
X205490000Y-128500000D01*
X205418571Y-128357143D01*
X205418571Y-128142857D01*
X205490000Y-128000000D01*
X206347143Y-126714286D02*
X206418571Y-126857143D01*
X206418571Y-127142857D01*
X206347143Y-127285714D01*
X206204286Y-127357143D01*
X205632857Y-127357143D01*
X205490000Y-127285714D01*
X205418571Y-127142857D01*
X205418571Y-126857143D01*
X205490000Y-126714286D01*
X205632857Y-126642857D01*
X205775714Y-126642857D01*
X205918571Y-127357143D01*
X205418571Y-126000000D02*
X206418571Y-126000000D01*
X205561429Y-126000000D02*
X205490000Y-125928572D01*
X205418571Y-125785714D01*
X205418571Y-125571429D01*
X205490000Y-125428572D01*
X205632857Y-125357143D01*
X206418571Y-125357143D01*
X206347143Y-124714286D02*
X206418571Y-124571429D01*
X206418571Y-124285714D01*
X206347143Y-124142857D01*
X206204286Y-124071429D01*
X206132857Y-124071429D01*
X205990000Y-124142857D01*
X205918571Y-124285714D01*
X205918571Y-124500000D01*
X205847143Y-124642857D01*
X205704286Y-124714286D01*
X205632857Y-124714286D01*
X205490000Y-124642857D01*
X205418571Y-124500000D01*
X205418571Y-124285714D01*
X205490000Y-124142857D01*
X206347143Y-122857143D02*
X206418571Y-123000000D01*
X206418571Y-123285714D01*
X206347143Y-123428571D01*
X206204286Y-123500000D01*
X205632857Y-123500000D01*
X205490000Y-123428571D01*
X205418571Y-123285714D01*
X205418571Y-123000000D01*
X205490000Y-122857143D01*
X205632857Y-122785714D01*
X205775714Y-122785714D01*
X205918571Y-123500000D01*
X207720714Y-88308571D02*
X207720714Y-86808571D01*
X208435000Y-87308571D02*
X208435000Y-88308571D01*
X208435000Y-87451429D02*
X208506428Y-87380000D01*
X208649286Y-87308571D01*
X208863571Y-87308571D01*
X209006428Y-87380000D01*
X209077857Y-87522857D01*
X209077857Y-88308571D01*
X209792143Y-87308571D02*
X209792143Y-88808571D01*
X209792143Y-87380000D02*
X209935000Y-87308571D01*
X210220714Y-87308571D01*
X210363571Y-87380000D01*
X210435000Y-87451429D01*
X210506429Y-87594286D01*
X210506429Y-88022857D01*
X210435000Y-88165714D01*
X210363571Y-88237143D01*
X210220714Y-88308571D01*
X209935000Y-88308571D01*
X209792143Y-88237143D01*
X211792143Y-87308571D02*
X211792143Y-88308571D01*
X211149286Y-87308571D02*
X211149286Y-88094286D01*
X211220714Y-88237143D01*
X211363572Y-88308571D01*
X211577857Y-88308571D01*
X211720714Y-88237143D01*
X211792143Y-88165714D01*
X212292143Y-87308571D02*
X212863572Y-87308571D01*
X212506429Y-86808571D02*
X212506429Y-88094286D01*
X212577857Y-88237143D01*
X212720715Y-88308571D01*
X212863572Y-88308571D01*
X129679285Y-134433571D02*
X129964999Y-134433571D01*
X130107857Y-134505000D01*
X130250714Y-134647857D01*
X130322142Y-134933571D01*
X130322142Y-135433571D01*
X130250714Y-135719286D01*
X130107857Y-135862143D01*
X129964999Y-135933571D01*
X129679285Y-135933571D01*
X129536428Y-135862143D01*
X129393571Y-135719286D01*
X129322142Y-135433571D01*
X129322142Y-134933571D01*
X129393571Y-134647857D01*
X129536428Y-134505000D01*
X129679285Y-134433571D01*
X131607857Y-134933571D02*
X131607857Y-135933571D01*
X130965000Y-134933571D02*
X130965000Y-135719286D01*
X131036428Y-135862143D01*
X131179286Y-135933571D01*
X131393571Y-135933571D01*
X131536428Y-135862143D01*
X131607857Y-135790714D01*
X132107857Y-134933571D02*
X132679286Y-134933571D01*
X132322143Y-134433571D02*
X132322143Y-135719286D01*
X132393571Y-135862143D01*
X132536429Y-135933571D01*
X132679286Y-135933571D01*
X133179286Y-134933571D02*
X133179286Y-136433571D01*
X133179286Y-135005000D02*
X133322143Y-134933571D01*
X133607857Y-134933571D01*
X133750714Y-135005000D01*
X133822143Y-135076429D01*
X133893572Y-135219286D01*
X133893572Y-135647857D01*
X133822143Y-135790714D01*
X133750714Y-135862143D01*
X133607857Y-135933571D01*
X133322143Y-135933571D01*
X133179286Y-135862143D01*
X135179286Y-134933571D02*
X135179286Y-135933571D01*
X134536429Y-134933571D02*
X134536429Y-135719286D01*
X134607857Y-135862143D01*
X134750715Y-135933571D01*
X134965000Y-135933571D01*
X135107857Y-135862143D01*
X135179286Y-135790714D01*
X135679286Y-134933571D02*
X136250715Y-134933571D01*
X135893572Y-134433571D02*
X135893572Y-135719286D01*
X135965000Y-135862143D01*
X136107858Y-135933571D01*
X136250715Y-135933571D01*
X129100000Y-97603571D02*
X129600000Y-99103571D01*
X130100000Y-97603571D01*
X130242857Y-99246429D02*
X131385714Y-99246429D01*
X131671428Y-99032143D02*
X131814285Y-99103571D01*
X132100000Y-99103571D01*
X132242857Y-99032143D01*
X132314285Y-98889286D01*
X132314285Y-98817857D01*
X132242857Y-98675000D01*
X132100000Y-98603571D01*
X131885714Y-98603571D01*
X131742857Y-98532143D01*
X131671428Y-98389286D01*
X131671428Y-98317857D01*
X131742857Y-98175000D01*
X131885714Y-98103571D01*
X132100000Y-98103571D01*
X132242857Y-98175000D01*
X133528571Y-99032143D02*
X133385714Y-99103571D01*
X133100000Y-99103571D01*
X132957143Y-99032143D01*
X132885714Y-98889286D01*
X132885714Y-98317857D01*
X132957143Y-98175000D01*
X133100000Y-98103571D01*
X133385714Y-98103571D01*
X133528571Y-98175000D01*
X133600000Y-98317857D01*
X133600000Y-98460714D01*
X132885714Y-98603571D01*
X134242857Y-98103571D02*
X134242857Y-99103571D01*
X134242857Y-98246429D02*
X134314285Y-98175000D01*
X134457143Y-98103571D01*
X134671428Y-98103571D01*
X134814285Y-98175000D01*
X134885714Y-98317857D01*
X134885714Y-99103571D01*
X135528571Y-99032143D02*
X135671428Y-99103571D01*
X135957143Y-99103571D01*
X136100000Y-99032143D01*
X136171428Y-98889286D01*
X136171428Y-98817857D01*
X136100000Y-98675000D01*
X135957143Y-98603571D01*
X135742857Y-98603571D01*
X135600000Y-98532143D01*
X135528571Y-98389286D01*
X135528571Y-98317857D01*
X135600000Y-98175000D01*
X135742857Y-98103571D01*
X135957143Y-98103571D01*
X136100000Y-98175000D01*
X137385714Y-99032143D02*
X137242857Y-99103571D01*
X136957143Y-99103571D01*
X136814286Y-99032143D01*
X136742857Y-98889286D01*
X136742857Y-98317857D01*
X136814286Y-98175000D01*
X136957143Y-98103571D01*
X137242857Y-98103571D01*
X137385714Y-98175000D01*
X137457143Y-98317857D01*
X137457143Y-98460714D01*
X136742857Y-98603571D01*
X190147144Y-79275714D02*
X190075715Y-79347143D01*
X189861429Y-79418571D01*
X189718572Y-79418571D01*
X189504287Y-79347143D01*
X189361429Y-79204286D01*
X189290001Y-79061429D01*
X189218572Y-78775714D01*
X189218572Y-78561429D01*
X189290001Y-78275714D01*
X189361429Y-78132857D01*
X189504287Y-77990000D01*
X189718572Y-77918571D01*
X189861429Y-77918571D01*
X190075715Y-77990000D01*
X190147144Y-78061429D01*
X191432858Y-78418571D02*
X191432858Y-79418571D01*
X190790001Y-78418571D02*
X190790001Y-79204286D01*
X190861429Y-79347143D01*
X191004287Y-79418571D01*
X191218572Y-79418571D01*
X191361429Y-79347143D01*
X191432858Y-79275714D01*
X192147144Y-79418571D02*
X192147144Y-78418571D01*
X192147144Y-78704286D02*
X192218572Y-78561429D01*
X192290001Y-78490000D01*
X192432858Y-78418571D01*
X192575715Y-78418571D01*
X193075715Y-79418571D02*
X193075715Y-78418571D01*
X193075715Y-78704286D02*
X193147143Y-78561429D01*
X193218572Y-78490000D01*
X193361429Y-78418571D01*
X193504286Y-78418571D01*
X194575714Y-79347143D02*
X194432857Y-79418571D01*
X194147143Y-79418571D01*
X194004286Y-79347143D01*
X193932857Y-79204286D01*
X193932857Y-78632857D01*
X194004286Y-78490000D01*
X194147143Y-78418571D01*
X194432857Y-78418571D01*
X194575714Y-78490000D01*
X194647143Y-78632857D01*
X194647143Y-78775714D01*
X193932857Y-78918571D01*
X195290000Y-78418571D02*
X195290000Y-79418571D01*
X195290000Y-78561429D02*
X195361428Y-78490000D01*
X195504286Y-78418571D01*
X195718571Y-78418571D01*
X195861428Y-78490000D01*
X195932857Y-78632857D01*
X195932857Y-79418571D01*
X196432857Y-78418571D02*
X197004286Y-78418571D01*
X196647143Y-77918571D02*
X196647143Y-79204286D01*
X196718571Y-79347143D01*
X196861429Y-79418571D01*
X197004286Y-79418571D01*
X145860000Y-77918571D02*
X146360000Y-79418571D01*
X146860000Y-77918571D01*
X147574286Y-79418571D02*
X147431428Y-79347143D01*
X147360000Y-79275714D01*
X147288571Y-79132857D01*
X147288571Y-78704286D01*
X147360000Y-78561429D01*
X147431428Y-78490000D01*
X147574286Y-78418571D01*
X147788571Y-78418571D01*
X147931428Y-78490000D01*
X148002857Y-78561429D01*
X148074286Y-78704286D01*
X148074286Y-79132857D01*
X148002857Y-79275714D01*
X147931428Y-79347143D01*
X147788571Y-79418571D01*
X147574286Y-79418571D01*
X148931429Y-79418571D02*
X148788571Y-79347143D01*
X148717143Y-79204286D01*
X148717143Y-77918571D01*
X149288571Y-78418571D02*
X149860000Y-78418571D01*
X149502857Y-77918571D02*
X149502857Y-79204286D01*
X149574285Y-79347143D01*
X149717143Y-79418571D01*
X149860000Y-79418571D01*
X151002857Y-79418571D02*
X151002857Y-78632857D01*
X150931428Y-78490000D01*
X150788571Y-78418571D01*
X150502857Y-78418571D01*
X150360000Y-78490000D01*
X151002857Y-79347143D02*
X150860000Y-79418571D01*
X150502857Y-79418571D01*
X150360000Y-79347143D01*
X150288571Y-79204286D01*
X150288571Y-79061429D01*
X150360000Y-78918571D01*
X150502857Y-78847143D01*
X150860000Y-78847143D01*
X151002857Y-78775714D01*
X152360000Y-78418571D02*
X152360000Y-79632857D01*
X152288571Y-79775714D01*
X152217143Y-79847143D01*
X152074286Y-79918571D01*
X151860000Y-79918571D01*
X151717143Y-79847143D01*
X152360000Y-79347143D02*
X152217143Y-79418571D01*
X151931429Y-79418571D01*
X151788571Y-79347143D01*
X151717143Y-79275714D01*
X151645714Y-79132857D01*
X151645714Y-78704286D01*
X151717143Y-78561429D01*
X151788571Y-78490000D01*
X151931429Y-78418571D01*
X152217143Y-78418571D01*
X152360000Y-78490000D01*
X153645714Y-79347143D02*
X153502857Y-79418571D01*
X153217143Y-79418571D01*
X153074286Y-79347143D01*
X153002857Y-79204286D01*
X153002857Y-78632857D01*
X153074286Y-78490000D01*
X153217143Y-78418571D01*
X153502857Y-78418571D01*
X153645714Y-78490000D01*
X153717143Y-78632857D01*
X153717143Y-78775714D01*
X153002857Y-78918571D01*
D12*
X203546400Y-94201863D02*
G75*
G03X203545000Y-89407564I-981400J2396863D01*
G01*
X201583600Y-94201863D02*
G75*
G02X201585000Y-89407564I981400J2396863D01*
G01*
X201583600Y-94201863D02*
G75*
G03X203545000Y-94202436I981400J2396863D01*
G01*
X205115000Y-91805000D02*
X200015000Y-91805000D01*
X205115000Y-91845000D02*
X203545000Y-91845000D01*
X201585000Y-91845000D02*
X200015000Y-91845000D01*
X205114000Y-91885000D02*
X203545000Y-91885000D01*
X201585000Y-91885000D02*
X200016000Y-91885000D01*
X205113000Y-91925000D02*
X203545000Y-91925000D01*
X201585000Y-91925000D02*
X200017000Y-91925000D01*
X205111000Y-91965000D02*
X203545000Y-91965000D01*
X201585000Y-91965000D02*
X200019000Y-91965000D01*
X205108000Y-92005000D02*
X203545000Y-92005000D01*
X201585000Y-92005000D02*
X200022000Y-92005000D01*
X205104000Y-92045000D02*
X203545000Y-92045000D01*
X201585000Y-92045000D02*
X200026000Y-92045000D01*
X205100000Y-92085000D02*
X203545000Y-92085000D01*
X201585000Y-92085000D02*
X200030000Y-92085000D01*
X205096000Y-92125000D02*
X203545000Y-92125000D01*
X201585000Y-92125000D02*
X200034000Y-92125000D01*
X205090000Y-92165000D02*
X203545000Y-92165000D01*
X201585000Y-92165000D02*
X200040000Y-92165000D01*
X205084000Y-92205000D02*
X203545000Y-92205000D01*
X201585000Y-92205000D02*
X200046000Y-92205000D01*
X205078000Y-92245000D02*
X203545000Y-92245000D01*
X201585000Y-92245000D02*
X200052000Y-92245000D01*
X205071000Y-92285000D02*
X203545000Y-92285000D01*
X201585000Y-92285000D02*
X200059000Y-92285000D01*
X205063000Y-92325000D02*
X203545000Y-92325000D01*
X201585000Y-92325000D02*
X200067000Y-92325000D01*
X205054000Y-92365000D02*
X203545000Y-92365000D01*
X201585000Y-92365000D02*
X200076000Y-92365000D01*
X205045000Y-92405000D02*
X203545000Y-92405000D01*
X201585000Y-92405000D02*
X200085000Y-92405000D01*
X205035000Y-92445000D02*
X203545000Y-92445000D01*
X201585000Y-92445000D02*
X200095000Y-92445000D01*
X205025000Y-92485000D02*
X203545000Y-92485000D01*
X201585000Y-92485000D02*
X200105000Y-92485000D01*
X205013000Y-92526000D02*
X203545000Y-92526000D01*
X201585000Y-92526000D02*
X200117000Y-92526000D01*
X205001000Y-92566000D02*
X203545000Y-92566000D01*
X201585000Y-92566000D02*
X200129000Y-92566000D01*
X204989000Y-92606000D02*
X203545000Y-92606000D01*
X201585000Y-92606000D02*
X200141000Y-92606000D01*
X204975000Y-92646000D02*
X203545000Y-92646000D01*
X201585000Y-92646000D02*
X200155000Y-92646000D01*
X204961000Y-92686000D02*
X203545000Y-92686000D01*
X201585000Y-92686000D02*
X200169000Y-92686000D01*
X204947000Y-92726000D02*
X203545000Y-92726000D01*
X201585000Y-92726000D02*
X200183000Y-92726000D01*
X204931000Y-92766000D02*
X203545000Y-92766000D01*
X201585000Y-92766000D02*
X200199000Y-92766000D01*
X204915000Y-92806000D02*
X203545000Y-92806000D01*
X201585000Y-92806000D02*
X200215000Y-92806000D01*
X204898000Y-92846000D02*
X203545000Y-92846000D01*
X201585000Y-92846000D02*
X200232000Y-92846000D01*
X204880000Y-92886000D02*
X203545000Y-92886000D01*
X201585000Y-92886000D02*
X200250000Y-92886000D01*
X204861000Y-92926000D02*
X203545000Y-92926000D01*
X201585000Y-92926000D02*
X200269000Y-92926000D01*
X204841000Y-92966000D02*
X203545000Y-92966000D01*
X201585000Y-92966000D02*
X200289000Y-92966000D01*
X204821000Y-93006000D02*
X203545000Y-93006000D01*
X201585000Y-93006000D02*
X200309000Y-93006000D01*
X204799000Y-93046000D02*
X203545000Y-93046000D01*
X201585000Y-93046000D02*
X200331000Y-93046000D01*
X204777000Y-93086000D02*
X203545000Y-93086000D01*
X201585000Y-93086000D02*
X200353000Y-93086000D01*
X204754000Y-93126000D02*
X203545000Y-93126000D01*
X201585000Y-93126000D02*
X200376000Y-93126000D01*
X204730000Y-93166000D02*
X203545000Y-93166000D01*
X201585000Y-93166000D02*
X200400000Y-93166000D01*
X204705000Y-93206000D02*
X203545000Y-93206000D01*
X201585000Y-93206000D02*
X200425000Y-93206000D01*
X204678000Y-93246000D02*
X203545000Y-93246000D01*
X201585000Y-93246000D02*
X200452000Y-93246000D01*
X204651000Y-93286000D02*
X203545000Y-93286000D01*
X201585000Y-93286000D02*
X200479000Y-93286000D01*
X204623000Y-93326000D02*
X203545000Y-93326000D01*
X201585000Y-93326000D02*
X200507000Y-93326000D01*
X204593000Y-93366000D02*
X203545000Y-93366000D01*
X201585000Y-93366000D02*
X200537000Y-93366000D01*
X204562000Y-93406000D02*
X203545000Y-93406000D01*
X201585000Y-93406000D02*
X200568000Y-93406000D01*
X204530000Y-93446000D02*
X203545000Y-93446000D01*
X201585000Y-93446000D02*
X200600000Y-93446000D01*
X204497000Y-93486000D02*
X203545000Y-93486000D01*
X201585000Y-93486000D02*
X200633000Y-93486000D01*
X204462000Y-93526000D02*
X203545000Y-93526000D01*
X201585000Y-93526000D02*
X200668000Y-93526000D01*
X204426000Y-93566000D02*
X203545000Y-93566000D01*
X201585000Y-93566000D02*
X200704000Y-93566000D01*
X204388000Y-93606000D02*
X203545000Y-93606000D01*
X201585000Y-93606000D02*
X200742000Y-93606000D01*
X204348000Y-93646000D02*
X203545000Y-93646000D01*
X201585000Y-93646000D02*
X200782000Y-93646000D01*
X204307000Y-93686000D02*
X203545000Y-93686000D01*
X201585000Y-93686000D02*
X200823000Y-93686000D01*
X204264000Y-93726000D02*
X203545000Y-93726000D01*
X201585000Y-93726000D02*
X200866000Y-93726000D01*
X204219000Y-93766000D02*
X203545000Y-93766000D01*
X201585000Y-93766000D02*
X200911000Y-93766000D01*
X204171000Y-93806000D02*
X200959000Y-93806000D01*
X204121000Y-93846000D02*
X201009000Y-93846000D01*
X204069000Y-93886000D02*
X201061000Y-93886000D01*
X204013000Y-93926000D02*
X201117000Y-93926000D01*
X203955000Y-93966000D02*
X201175000Y-93966000D01*
X203892000Y-94006000D02*
X201238000Y-94006000D01*
X203826000Y-94046000D02*
X201304000Y-94046000D01*
X203754000Y-94086000D02*
X201376000Y-94086000D01*
X203677000Y-94126000D02*
X201453000Y-94126000D01*
X203593000Y-94166000D02*
X201537000Y-94166000D01*
X203499000Y-94206000D02*
X201631000Y-94206000D01*
X203394000Y-94246000D02*
X201736000Y-94246000D01*
X203272000Y-94286000D02*
X201858000Y-94286000D01*
X203124000Y-94326000D02*
X202006000Y-94326000D01*
X202919000Y-94366000D02*
X202211000Y-94366000D01*
X202565000Y-88605000D02*
X202565000Y-89805000D01*
X203215000Y-89205000D02*
X201915000Y-89205000D01*
X136418440Y-118400643D02*
G75*
G03X130241764Y-118400000I-3088440J-979357D01*
G01*
X136418440Y-120359357D02*
G75*
G02X130241764Y-120360000I-3088440J979357D01*
G01*
X136418440Y-120359357D02*
G75*
G03X136418236Y-118400000I-3088440J979357D01*
G01*
X133330000Y-116180000D02*
X133330000Y-122580000D01*
X133370000Y-116180000D02*
X133370000Y-122580000D01*
X133410000Y-116180000D02*
X133410000Y-122580000D01*
X133450000Y-116182000D02*
X133450000Y-122578000D01*
X133490000Y-116183000D02*
X133490000Y-122577000D01*
X133530000Y-116186000D02*
X133530000Y-122574000D01*
X133570000Y-116188000D02*
X133570000Y-122572000D01*
X133610000Y-116192000D02*
X133610000Y-118400000D01*
X133610000Y-120360000D02*
X133610000Y-122568000D01*
X133650000Y-116195000D02*
X133650000Y-118400000D01*
X133650000Y-120360000D02*
X133650000Y-122565000D01*
X133690000Y-116200000D02*
X133690000Y-118400000D01*
X133690000Y-120360000D02*
X133690000Y-122560000D01*
X133730000Y-116204000D02*
X133730000Y-118400000D01*
X133730000Y-120360000D02*
X133730000Y-122556000D01*
X133770000Y-116210000D02*
X133770000Y-118400000D01*
X133770000Y-120360000D02*
X133770000Y-122550000D01*
X133810000Y-116215000D02*
X133810000Y-118400000D01*
X133810000Y-120360000D02*
X133810000Y-122545000D01*
X133850000Y-116222000D02*
X133850000Y-118400000D01*
X133850000Y-120360000D02*
X133850000Y-122538000D01*
X133890000Y-116228000D02*
X133890000Y-118400000D01*
X133890000Y-120360000D02*
X133890000Y-122532000D01*
X133930000Y-116236000D02*
X133930000Y-118400000D01*
X133930000Y-120360000D02*
X133930000Y-122524000D01*
X133970000Y-116243000D02*
X133970000Y-118400000D01*
X133970000Y-120360000D02*
X133970000Y-122517000D01*
X134010000Y-116252000D02*
X134010000Y-118400000D01*
X134010000Y-120360000D02*
X134010000Y-122508000D01*
X134051000Y-116261000D02*
X134051000Y-118400000D01*
X134051000Y-120360000D02*
X134051000Y-122499000D01*
X134091000Y-116270000D02*
X134091000Y-118400000D01*
X134091000Y-120360000D02*
X134091000Y-122490000D01*
X134131000Y-116280000D02*
X134131000Y-118400000D01*
X134131000Y-120360000D02*
X134131000Y-122480000D01*
X134171000Y-116290000D02*
X134171000Y-118400000D01*
X134171000Y-120360000D02*
X134171000Y-122470000D01*
X134211000Y-116301000D02*
X134211000Y-118400000D01*
X134211000Y-120360000D02*
X134211000Y-122459000D01*
X134251000Y-116313000D02*
X134251000Y-118400000D01*
X134251000Y-120360000D02*
X134251000Y-122447000D01*
X134291000Y-116325000D02*
X134291000Y-118400000D01*
X134291000Y-120360000D02*
X134291000Y-122435000D01*
X134331000Y-116338000D02*
X134331000Y-118400000D01*
X134331000Y-120360000D02*
X134331000Y-122422000D01*
X134371000Y-116351000D02*
X134371000Y-118400000D01*
X134371000Y-120360000D02*
X134371000Y-122409000D01*
X134411000Y-116365000D02*
X134411000Y-118400000D01*
X134411000Y-120360000D02*
X134411000Y-122395000D01*
X134451000Y-116379000D02*
X134451000Y-118400000D01*
X134451000Y-120360000D02*
X134451000Y-122381000D01*
X134491000Y-116394000D02*
X134491000Y-118400000D01*
X134491000Y-120360000D02*
X134491000Y-122366000D01*
X134531000Y-116410000D02*
X134531000Y-118400000D01*
X134531000Y-120360000D02*
X134531000Y-122350000D01*
X134571000Y-116426000D02*
X134571000Y-118400000D01*
X134571000Y-120360000D02*
X134571000Y-122334000D01*
X134611000Y-116443000D02*
X134611000Y-118400000D01*
X134611000Y-120360000D02*
X134611000Y-122317000D01*
X134651000Y-116461000D02*
X134651000Y-118400000D01*
X134651000Y-120360000D02*
X134651000Y-122299000D01*
X134691000Y-116479000D02*
X134691000Y-118400000D01*
X134691000Y-120360000D02*
X134691000Y-122281000D01*
X134731000Y-116498000D02*
X134731000Y-118400000D01*
X134731000Y-120360000D02*
X134731000Y-122262000D01*
X134771000Y-116517000D02*
X134771000Y-118400000D01*
X134771000Y-120360000D02*
X134771000Y-122243000D01*
X134811000Y-116537000D02*
X134811000Y-118400000D01*
X134811000Y-120360000D02*
X134811000Y-122223000D01*
X134851000Y-116558000D02*
X134851000Y-118400000D01*
X134851000Y-120360000D02*
X134851000Y-122202000D01*
X134891000Y-116580000D02*
X134891000Y-118400000D01*
X134891000Y-120360000D02*
X134891000Y-122180000D01*
X134931000Y-116602000D02*
X134931000Y-118400000D01*
X134931000Y-120360000D02*
X134931000Y-122158000D01*
X134971000Y-116625000D02*
X134971000Y-118400000D01*
X134971000Y-120360000D02*
X134971000Y-122135000D01*
X135011000Y-116649000D02*
X135011000Y-118400000D01*
X135011000Y-120360000D02*
X135011000Y-122111000D01*
X135051000Y-116674000D02*
X135051000Y-118400000D01*
X135051000Y-120360000D02*
X135051000Y-122086000D01*
X135091000Y-116699000D02*
X135091000Y-118400000D01*
X135091000Y-120360000D02*
X135091000Y-122061000D01*
X135131000Y-116726000D02*
X135131000Y-118400000D01*
X135131000Y-120360000D02*
X135131000Y-122034000D01*
X135171000Y-116753000D02*
X135171000Y-118400000D01*
X135171000Y-120360000D02*
X135171000Y-122007000D01*
X135211000Y-116781000D02*
X135211000Y-118400000D01*
X135211000Y-120360000D02*
X135211000Y-121979000D01*
X135251000Y-116810000D02*
X135251000Y-118400000D01*
X135251000Y-120360000D02*
X135251000Y-121950000D01*
X135291000Y-116840000D02*
X135291000Y-118400000D01*
X135291000Y-120360000D02*
X135291000Y-121920000D01*
X135331000Y-116870000D02*
X135331000Y-118400000D01*
X135331000Y-120360000D02*
X135331000Y-121890000D01*
X135371000Y-116902000D02*
X135371000Y-118400000D01*
X135371000Y-120360000D02*
X135371000Y-121858000D01*
X135411000Y-116935000D02*
X135411000Y-118400000D01*
X135411000Y-120360000D02*
X135411000Y-121825000D01*
X135451000Y-116969000D02*
X135451000Y-118400000D01*
X135451000Y-120360000D02*
X135451000Y-121791000D01*
X135491000Y-117005000D02*
X135491000Y-118400000D01*
X135491000Y-120360000D02*
X135491000Y-121755000D01*
X135531000Y-117041000D02*
X135531000Y-118400000D01*
X135531000Y-120360000D02*
X135531000Y-121719000D01*
X135571000Y-117079000D02*
X135571000Y-121681000D01*
X135611000Y-117118000D02*
X135611000Y-121642000D01*
X135651000Y-117158000D02*
X135651000Y-121602000D01*
X135691000Y-117200000D02*
X135691000Y-121560000D01*
X135731000Y-117243000D02*
X135731000Y-121517000D01*
X135771000Y-117288000D02*
X135771000Y-121472000D01*
X135811000Y-117335000D02*
X135811000Y-121425000D01*
X135851000Y-117383000D02*
X135851000Y-121377000D01*
X135891000Y-117434000D02*
X135891000Y-121326000D01*
X135931000Y-117486000D02*
X135931000Y-121274000D01*
X135971000Y-117541000D02*
X135971000Y-121219000D01*
X136011000Y-117599000D02*
X136011000Y-121161000D01*
X136051000Y-117659000D02*
X136051000Y-121101000D01*
X136091000Y-117722000D02*
X136091000Y-121038000D01*
X136131000Y-117789000D02*
X136131000Y-120971000D01*
X136171000Y-117860000D02*
X136171000Y-120900000D01*
X136211000Y-117935000D02*
X136211000Y-120825000D01*
X136251000Y-118016000D02*
X136251000Y-120744000D01*
X136291000Y-118102000D02*
X136291000Y-120658000D01*
X136331000Y-118196000D02*
X136331000Y-120564000D01*
X136371000Y-118299000D02*
X136371000Y-120461000D01*
X136411000Y-118414000D02*
X136411000Y-120346000D01*
X136451000Y-118546000D02*
X136451000Y-120214000D01*
X136491000Y-118704000D02*
X136491000Y-120056000D01*
X136531000Y-118912000D02*
X136531000Y-119848000D01*
X129880000Y-119380000D02*
X131080000Y-119380000D01*
X130480000Y-118730000D02*
X130480000Y-120030000D01*
X178541560Y-92419357D02*
G75*
G03X184718236Y-92420000I3088440J979357D01*
G01*
X178541560Y-90460643D02*
G75*
G02X184718236Y-90460000I3088440J-979357D01*
G01*
X178541560Y-90460643D02*
G75*
G03X178541764Y-92420000I3088440J-979357D01*
G01*
X181630000Y-94640000D02*
X181630000Y-88240000D01*
X181590000Y-94640000D02*
X181590000Y-88240000D01*
X181550000Y-94640000D02*
X181550000Y-88240000D01*
X181510000Y-94638000D02*
X181510000Y-88242000D01*
X181470000Y-94637000D02*
X181470000Y-88243000D01*
X181430000Y-94634000D02*
X181430000Y-88246000D01*
X181390000Y-94632000D02*
X181390000Y-88248000D01*
X181350000Y-94628000D02*
X181350000Y-92420000D01*
X181350000Y-90460000D02*
X181350000Y-88252000D01*
X181310000Y-94625000D02*
X181310000Y-92420000D01*
X181310000Y-90460000D02*
X181310000Y-88255000D01*
X181270000Y-94620000D02*
X181270000Y-92420000D01*
X181270000Y-90460000D02*
X181270000Y-88260000D01*
X181230000Y-94616000D02*
X181230000Y-92420000D01*
X181230000Y-90460000D02*
X181230000Y-88264000D01*
X181190000Y-94610000D02*
X181190000Y-92420000D01*
X181190000Y-90460000D02*
X181190000Y-88270000D01*
X181150000Y-94605000D02*
X181150000Y-92420000D01*
X181150000Y-90460000D02*
X181150000Y-88275000D01*
X181110000Y-94598000D02*
X181110000Y-92420000D01*
X181110000Y-90460000D02*
X181110000Y-88282000D01*
X181070000Y-94592000D02*
X181070000Y-92420000D01*
X181070000Y-90460000D02*
X181070000Y-88288000D01*
X181030000Y-94584000D02*
X181030000Y-92420000D01*
X181030000Y-90460000D02*
X181030000Y-88296000D01*
X180990000Y-94577000D02*
X180990000Y-92420000D01*
X180990000Y-90460000D02*
X180990000Y-88303000D01*
X180950000Y-94568000D02*
X180950000Y-92420000D01*
X180950000Y-90460000D02*
X180950000Y-88312000D01*
X180909000Y-94559000D02*
X180909000Y-92420000D01*
X180909000Y-90460000D02*
X180909000Y-88321000D01*
X180869000Y-94550000D02*
X180869000Y-92420000D01*
X180869000Y-90460000D02*
X180869000Y-88330000D01*
X180829000Y-94540000D02*
X180829000Y-92420000D01*
X180829000Y-90460000D02*
X180829000Y-88340000D01*
X180789000Y-94530000D02*
X180789000Y-92420000D01*
X180789000Y-90460000D02*
X180789000Y-88350000D01*
X180749000Y-94519000D02*
X180749000Y-92420000D01*
X180749000Y-90460000D02*
X180749000Y-88361000D01*
X180709000Y-94507000D02*
X180709000Y-92420000D01*
X180709000Y-90460000D02*
X180709000Y-88373000D01*
X180669000Y-94495000D02*
X180669000Y-92420000D01*
X180669000Y-90460000D02*
X180669000Y-88385000D01*
X180629000Y-94482000D02*
X180629000Y-92420000D01*
X180629000Y-90460000D02*
X180629000Y-88398000D01*
X180589000Y-94469000D02*
X180589000Y-92420000D01*
X180589000Y-90460000D02*
X180589000Y-88411000D01*
X180549000Y-94455000D02*
X180549000Y-92420000D01*
X180549000Y-90460000D02*
X180549000Y-88425000D01*
X180509000Y-94441000D02*
X180509000Y-92420000D01*
X180509000Y-90460000D02*
X180509000Y-88439000D01*
X180469000Y-94426000D02*
X180469000Y-92420000D01*
X180469000Y-90460000D02*
X180469000Y-88454000D01*
X180429000Y-94410000D02*
X180429000Y-92420000D01*
X180429000Y-90460000D02*
X180429000Y-88470000D01*
X180389000Y-94394000D02*
X180389000Y-92420000D01*
X180389000Y-90460000D02*
X180389000Y-88486000D01*
X180349000Y-94377000D02*
X180349000Y-92420000D01*
X180349000Y-90460000D02*
X180349000Y-88503000D01*
X180309000Y-94359000D02*
X180309000Y-92420000D01*
X180309000Y-90460000D02*
X180309000Y-88521000D01*
X180269000Y-94341000D02*
X180269000Y-92420000D01*
X180269000Y-90460000D02*
X180269000Y-88539000D01*
X180229000Y-94322000D02*
X180229000Y-92420000D01*
X180229000Y-90460000D02*
X180229000Y-88558000D01*
X180189000Y-94303000D02*
X180189000Y-92420000D01*
X180189000Y-90460000D02*
X180189000Y-88577000D01*
X180149000Y-94283000D02*
X180149000Y-92420000D01*
X180149000Y-90460000D02*
X180149000Y-88597000D01*
X180109000Y-94262000D02*
X180109000Y-92420000D01*
X180109000Y-90460000D02*
X180109000Y-88618000D01*
X180069000Y-94240000D02*
X180069000Y-92420000D01*
X180069000Y-90460000D02*
X180069000Y-88640000D01*
X180029000Y-94218000D02*
X180029000Y-92420000D01*
X180029000Y-90460000D02*
X180029000Y-88662000D01*
X179989000Y-94195000D02*
X179989000Y-92420000D01*
X179989000Y-90460000D02*
X179989000Y-88685000D01*
X179949000Y-94171000D02*
X179949000Y-92420000D01*
X179949000Y-90460000D02*
X179949000Y-88709000D01*
X179909000Y-94146000D02*
X179909000Y-92420000D01*
X179909000Y-90460000D02*
X179909000Y-88734000D01*
X179869000Y-94121000D02*
X179869000Y-92420000D01*
X179869000Y-90460000D02*
X179869000Y-88759000D01*
X179829000Y-94094000D02*
X179829000Y-92420000D01*
X179829000Y-90460000D02*
X179829000Y-88786000D01*
X179789000Y-94067000D02*
X179789000Y-92420000D01*
X179789000Y-90460000D02*
X179789000Y-88813000D01*
X179749000Y-94039000D02*
X179749000Y-92420000D01*
X179749000Y-90460000D02*
X179749000Y-88841000D01*
X179709000Y-94010000D02*
X179709000Y-92420000D01*
X179709000Y-90460000D02*
X179709000Y-88870000D01*
X179669000Y-93980000D02*
X179669000Y-92420000D01*
X179669000Y-90460000D02*
X179669000Y-88900000D01*
X179629000Y-93950000D02*
X179629000Y-92420000D01*
X179629000Y-90460000D02*
X179629000Y-88930000D01*
X179589000Y-93918000D02*
X179589000Y-92420000D01*
X179589000Y-90460000D02*
X179589000Y-88962000D01*
X179549000Y-93885000D02*
X179549000Y-92420000D01*
X179549000Y-90460000D02*
X179549000Y-88995000D01*
X179509000Y-93851000D02*
X179509000Y-92420000D01*
X179509000Y-90460000D02*
X179509000Y-89029000D01*
X179469000Y-93815000D02*
X179469000Y-92420000D01*
X179469000Y-90460000D02*
X179469000Y-89065000D01*
X179429000Y-93779000D02*
X179429000Y-92420000D01*
X179429000Y-90460000D02*
X179429000Y-89101000D01*
X179389000Y-93741000D02*
X179389000Y-89139000D01*
X179349000Y-93702000D02*
X179349000Y-89178000D01*
X179309000Y-93662000D02*
X179309000Y-89218000D01*
X179269000Y-93620000D02*
X179269000Y-89260000D01*
X179229000Y-93577000D02*
X179229000Y-89303000D01*
X179189000Y-93532000D02*
X179189000Y-89348000D01*
X179149000Y-93485000D02*
X179149000Y-89395000D01*
X179109000Y-93437000D02*
X179109000Y-89443000D01*
X179069000Y-93386000D02*
X179069000Y-89494000D01*
X179029000Y-93334000D02*
X179029000Y-89546000D01*
X178989000Y-93279000D02*
X178989000Y-89601000D01*
X178949000Y-93221000D02*
X178949000Y-89659000D01*
X178909000Y-93161000D02*
X178909000Y-89719000D01*
X178869000Y-93098000D02*
X178869000Y-89782000D01*
X178829000Y-93031000D02*
X178829000Y-89849000D01*
X178789000Y-92960000D02*
X178789000Y-89920000D01*
X178749000Y-92885000D02*
X178749000Y-89995000D01*
X178709000Y-92804000D02*
X178709000Y-90076000D01*
X178669000Y-92718000D02*
X178669000Y-90162000D01*
X178629000Y-92624000D02*
X178629000Y-90256000D01*
X178589000Y-92521000D02*
X178589000Y-90359000D01*
X178549000Y-92406000D02*
X178549000Y-90474000D01*
X178509000Y-92274000D02*
X178509000Y-90606000D01*
X178469000Y-92116000D02*
X178469000Y-90764000D01*
X178429000Y-91908000D02*
X178429000Y-90972000D01*
X185080000Y-91440000D02*
X183880000Y-91440000D01*
X184480000Y-92090000D02*
X184480000Y-90790000D01*
X141875000Y-89105000D02*
X143875000Y-89105000D01*
X143875000Y-86155000D02*
X141875000Y-86155000D01*
X168621400Y-115156863D02*
G75*
G03X168620000Y-110362564I-981400J2396863D01*
G01*
X166658600Y-115156863D02*
G75*
G02X166660000Y-110362564I981400J2396863D01*
G01*
X166658600Y-115156863D02*
G75*
G03X168620000Y-115157436I981400J2396863D01*
G01*
X170190000Y-112760000D02*
X165090000Y-112760000D01*
X170190000Y-112800000D02*
X168620000Y-112800000D01*
X166660000Y-112800000D02*
X165090000Y-112800000D01*
X170189000Y-112840000D02*
X168620000Y-112840000D01*
X166660000Y-112840000D02*
X165091000Y-112840000D01*
X170188000Y-112880000D02*
X168620000Y-112880000D01*
X166660000Y-112880000D02*
X165092000Y-112880000D01*
X170186000Y-112920000D02*
X168620000Y-112920000D01*
X166660000Y-112920000D02*
X165094000Y-112920000D01*
X170183000Y-112960000D02*
X168620000Y-112960000D01*
X166660000Y-112960000D02*
X165097000Y-112960000D01*
X170179000Y-113000000D02*
X168620000Y-113000000D01*
X166660000Y-113000000D02*
X165101000Y-113000000D01*
X170175000Y-113040000D02*
X168620000Y-113040000D01*
X166660000Y-113040000D02*
X165105000Y-113040000D01*
X170171000Y-113080000D02*
X168620000Y-113080000D01*
X166660000Y-113080000D02*
X165109000Y-113080000D01*
X170165000Y-113120000D02*
X168620000Y-113120000D01*
X166660000Y-113120000D02*
X165115000Y-113120000D01*
X170159000Y-113160000D02*
X168620000Y-113160000D01*
X166660000Y-113160000D02*
X165121000Y-113160000D01*
X170153000Y-113200000D02*
X168620000Y-113200000D01*
X166660000Y-113200000D02*
X165127000Y-113200000D01*
X170146000Y-113240000D02*
X168620000Y-113240000D01*
X166660000Y-113240000D02*
X165134000Y-113240000D01*
X170138000Y-113280000D02*
X168620000Y-113280000D01*
X166660000Y-113280000D02*
X165142000Y-113280000D01*
X170129000Y-113320000D02*
X168620000Y-113320000D01*
X166660000Y-113320000D02*
X165151000Y-113320000D01*
X170120000Y-113360000D02*
X168620000Y-113360000D01*
X166660000Y-113360000D02*
X165160000Y-113360000D01*
X170110000Y-113400000D02*
X168620000Y-113400000D01*
X166660000Y-113400000D02*
X165170000Y-113400000D01*
X170100000Y-113440000D02*
X168620000Y-113440000D01*
X166660000Y-113440000D02*
X165180000Y-113440000D01*
X170088000Y-113481000D02*
X168620000Y-113481000D01*
X166660000Y-113481000D02*
X165192000Y-113481000D01*
X170076000Y-113521000D02*
X168620000Y-113521000D01*
X166660000Y-113521000D02*
X165204000Y-113521000D01*
X170064000Y-113561000D02*
X168620000Y-113561000D01*
X166660000Y-113561000D02*
X165216000Y-113561000D01*
X170050000Y-113601000D02*
X168620000Y-113601000D01*
X166660000Y-113601000D02*
X165230000Y-113601000D01*
X170036000Y-113641000D02*
X168620000Y-113641000D01*
X166660000Y-113641000D02*
X165244000Y-113641000D01*
X170022000Y-113681000D02*
X168620000Y-113681000D01*
X166660000Y-113681000D02*
X165258000Y-113681000D01*
X170006000Y-113721000D02*
X168620000Y-113721000D01*
X166660000Y-113721000D02*
X165274000Y-113721000D01*
X169990000Y-113761000D02*
X168620000Y-113761000D01*
X166660000Y-113761000D02*
X165290000Y-113761000D01*
X169973000Y-113801000D02*
X168620000Y-113801000D01*
X166660000Y-113801000D02*
X165307000Y-113801000D01*
X169955000Y-113841000D02*
X168620000Y-113841000D01*
X166660000Y-113841000D02*
X165325000Y-113841000D01*
X169936000Y-113881000D02*
X168620000Y-113881000D01*
X166660000Y-113881000D02*
X165344000Y-113881000D01*
X169916000Y-113921000D02*
X168620000Y-113921000D01*
X166660000Y-113921000D02*
X165364000Y-113921000D01*
X169896000Y-113961000D02*
X168620000Y-113961000D01*
X166660000Y-113961000D02*
X165384000Y-113961000D01*
X169874000Y-114001000D02*
X168620000Y-114001000D01*
X166660000Y-114001000D02*
X165406000Y-114001000D01*
X169852000Y-114041000D02*
X168620000Y-114041000D01*
X166660000Y-114041000D02*
X165428000Y-114041000D01*
X169829000Y-114081000D02*
X168620000Y-114081000D01*
X166660000Y-114081000D02*
X165451000Y-114081000D01*
X169805000Y-114121000D02*
X168620000Y-114121000D01*
X166660000Y-114121000D02*
X165475000Y-114121000D01*
X169780000Y-114161000D02*
X168620000Y-114161000D01*
X166660000Y-114161000D02*
X165500000Y-114161000D01*
X169753000Y-114201000D02*
X168620000Y-114201000D01*
X166660000Y-114201000D02*
X165527000Y-114201000D01*
X169726000Y-114241000D02*
X168620000Y-114241000D01*
X166660000Y-114241000D02*
X165554000Y-114241000D01*
X169698000Y-114281000D02*
X168620000Y-114281000D01*
X166660000Y-114281000D02*
X165582000Y-114281000D01*
X169668000Y-114321000D02*
X168620000Y-114321000D01*
X166660000Y-114321000D02*
X165612000Y-114321000D01*
X169637000Y-114361000D02*
X168620000Y-114361000D01*
X166660000Y-114361000D02*
X165643000Y-114361000D01*
X169605000Y-114401000D02*
X168620000Y-114401000D01*
X166660000Y-114401000D02*
X165675000Y-114401000D01*
X169572000Y-114441000D02*
X168620000Y-114441000D01*
X166660000Y-114441000D02*
X165708000Y-114441000D01*
X169537000Y-114481000D02*
X168620000Y-114481000D01*
X166660000Y-114481000D02*
X165743000Y-114481000D01*
X169501000Y-114521000D02*
X168620000Y-114521000D01*
X166660000Y-114521000D02*
X165779000Y-114521000D01*
X169463000Y-114561000D02*
X168620000Y-114561000D01*
X166660000Y-114561000D02*
X165817000Y-114561000D01*
X169423000Y-114601000D02*
X168620000Y-114601000D01*
X166660000Y-114601000D02*
X165857000Y-114601000D01*
X169382000Y-114641000D02*
X168620000Y-114641000D01*
X166660000Y-114641000D02*
X165898000Y-114641000D01*
X169339000Y-114681000D02*
X168620000Y-114681000D01*
X166660000Y-114681000D02*
X165941000Y-114681000D01*
X169294000Y-114721000D02*
X168620000Y-114721000D01*
X166660000Y-114721000D02*
X165986000Y-114721000D01*
X169246000Y-114761000D02*
X166034000Y-114761000D01*
X169196000Y-114801000D02*
X166084000Y-114801000D01*
X169144000Y-114841000D02*
X166136000Y-114841000D01*
X169088000Y-114881000D02*
X166192000Y-114881000D01*
X169030000Y-114921000D02*
X166250000Y-114921000D01*
X168967000Y-114961000D02*
X166313000Y-114961000D01*
X168901000Y-115001000D02*
X166379000Y-115001000D01*
X168829000Y-115041000D02*
X166451000Y-115041000D01*
X168752000Y-115081000D02*
X166528000Y-115081000D01*
X168668000Y-115121000D02*
X166612000Y-115121000D01*
X168574000Y-115161000D02*
X166706000Y-115161000D01*
X168469000Y-115201000D02*
X166811000Y-115201000D01*
X168347000Y-115241000D02*
X166933000Y-115241000D01*
X168199000Y-115281000D02*
X167081000Y-115281000D01*
X167994000Y-115321000D02*
X167286000Y-115321000D01*
X167640000Y-109560000D02*
X167640000Y-110760000D01*
X168290000Y-110160000D02*
X166990000Y-110160000D01*
X178656863Y-119668600D02*
G75*
G03X173862564Y-119670000I-2396863J-981400D01*
G01*
X178656863Y-121631400D02*
G75*
G02X173862564Y-121630000I-2396863J981400D01*
G01*
X178656863Y-121631400D02*
G75*
G03X178657436Y-119670000I-2396863J981400D01*
G01*
X176260000Y-118100000D02*
X176260000Y-123200000D01*
X176300000Y-118100000D02*
X176300000Y-119670000D01*
X176300000Y-121630000D02*
X176300000Y-123200000D01*
X176340000Y-118101000D02*
X176340000Y-119670000D01*
X176340000Y-121630000D02*
X176340000Y-123199000D01*
X176380000Y-118102000D02*
X176380000Y-119670000D01*
X176380000Y-121630000D02*
X176380000Y-123198000D01*
X176420000Y-118104000D02*
X176420000Y-119670000D01*
X176420000Y-121630000D02*
X176420000Y-123196000D01*
X176460000Y-118107000D02*
X176460000Y-119670000D01*
X176460000Y-121630000D02*
X176460000Y-123193000D01*
X176500000Y-118111000D02*
X176500000Y-119670000D01*
X176500000Y-121630000D02*
X176500000Y-123189000D01*
X176540000Y-118115000D02*
X176540000Y-119670000D01*
X176540000Y-121630000D02*
X176540000Y-123185000D01*
X176580000Y-118119000D02*
X176580000Y-119670000D01*
X176580000Y-121630000D02*
X176580000Y-123181000D01*
X176620000Y-118125000D02*
X176620000Y-119670000D01*
X176620000Y-121630000D02*
X176620000Y-123175000D01*
X176660000Y-118131000D02*
X176660000Y-119670000D01*
X176660000Y-121630000D02*
X176660000Y-123169000D01*
X176700000Y-118137000D02*
X176700000Y-119670000D01*
X176700000Y-121630000D02*
X176700000Y-123163000D01*
X176740000Y-118144000D02*
X176740000Y-119670000D01*
X176740000Y-121630000D02*
X176740000Y-123156000D01*
X176780000Y-118152000D02*
X176780000Y-119670000D01*
X176780000Y-121630000D02*
X176780000Y-123148000D01*
X176820000Y-118161000D02*
X176820000Y-119670000D01*
X176820000Y-121630000D02*
X176820000Y-123139000D01*
X176860000Y-118170000D02*
X176860000Y-119670000D01*
X176860000Y-121630000D02*
X176860000Y-123130000D01*
X176900000Y-118180000D02*
X176900000Y-119670000D01*
X176900000Y-121630000D02*
X176900000Y-123120000D01*
X176940000Y-118190000D02*
X176940000Y-119670000D01*
X176940000Y-121630000D02*
X176940000Y-123110000D01*
X176981000Y-118202000D02*
X176981000Y-119670000D01*
X176981000Y-121630000D02*
X176981000Y-123098000D01*
X177021000Y-118214000D02*
X177021000Y-119670000D01*
X177021000Y-121630000D02*
X177021000Y-123086000D01*
X177061000Y-118226000D02*
X177061000Y-119670000D01*
X177061000Y-121630000D02*
X177061000Y-123074000D01*
X177101000Y-118240000D02*
X177101000Y-119670000D01*
X177101000Y-121630000D02*
X177101000Y-123060000D01*
X177141000Y-118254000D02*
X177141000Y-119670000D01*
X177141000Y-121630000D02*
X177141000Y-123046000D01*
X177181000Y-118268000D02*
X177181000Y-119670000D01*
X177181000Y-121630000D02*
X177181000Y-123032000D01*
X177221000Y-118284000D02*
X177221000Y-119670000D01*
X177221000Y-121630000D02*
X177221000Y-123016000D01*
X177261000Y-118300000D02*
X177261000Y-119670000D01*
X177261000Y-121630000D02*
X177261000Y-123000000D01*
X177301000Y-118317000D02*
X177301000Y-119670000D01*
X177301000Y-121630000D02*
X177301000Y-122983000D01*
X177341000Y-118335000D02*
X177341000Y-119670000D01*
X177341000Y-121630000D02*
X177341000Y-122965000D01*
X177381000Y-118354000D02*
X177381000Y-119670000D01*
X177381000Y-121630000D02*
X177381000Y-122946000D01*
X177421000Y-118374000D02*
X177421000Y-119670000D01*
X177421000Y-121630000D02*
X177421000Y-122926000D01*
X177461000Y-118394000D02*
X177461000Y-119670000D01*
X177461000Y-121630000D02*
X177461000Y-122906000D01*
X177501000Y-118416000D02*
X177501000Y-119670000D01*
X177501000Y-121630000D02*
X177501000Y-122884000D01*
X177541000Y-118438000D02*
X177541000Y-119670000D01*
X177541000Y-121630000D02*
X177541000Y-122862000D01*
X177581000Y-118461000D02*
X177581000Y-119670000D01*
X177581000Y-121630000D02*
X177581000Y-122839000D01*
X177621000Y-118485000D02*
X177621000Y-119670000D01*
X177621000Y-121630000D02*
X177621000Y-122815000D01*
X177661000Y-118510000D02*
X177661000Y-119670000D01*
X177661000Y-121630000D02*
X177661000Y-122790000D01*
X177701000Y-118537000D02*
X177701000Y-119670000D01*
X177701000Y-121630000D02*
X177701000Y-122763000D01*
X177741000Y-118564000D02*
X177741000Y-119670000D01*
X177741000Y-121630000D02*
X177741000Y-122736000D01*
X177781000Y-118592000D02*
X177781000Y-119670000D01*
X177781000Y-121630000D02*
X177781000Y-122708000D01*
X177821000Y-118622000D02*
X177821000Y-119670000D01*
X177821000Y-121630000D02*
X177821000Y-122678000D01*
X177861000Y-118653000D02*
X177861000Y-119670000D01*
X177861000Y-121630000D02*
X177861000Y-122647000D01*
X177901000Y-118685000D02*
X177901000Y-119670000D01*
X177901000Y-121630000D02*
X177901000Y-122615000D01*
X177941000Y-118718000D02*
X177941000Y-119670000D01*
X177941000Y-121630000D02*
X177941000Y-122582000D01*
X177981000Y-118753000D02*
X177981000Y-119670000D01*
X177981000Y-121630000D02*
X177981000Y-122547000D01*
X178021000Y-118789000D02*
X178021000Y-119670000D01*
X178021000Y-121630000D02*
X178021000Y-122511000D01*
X178061000Y-118827000D02*
X178061000Y-119670000D01*
X178061000Y-121630000D02*
X178061000Y-122473000D01*
X178101000Y-118867000D02*
X178101000Y-119670000D01*
X178101000Y-121630000D02*
X178101000Y-122433000D01*
X178141000Y-118908000D02*
X178141000Y-119670000D01*
X178141000Y-121630000D02*
X178141000Y-122392000D01*
X178181000Y-118951000D02*
X178181000Y-119670000D01*
X178181000Y-121630000D02*
X178181000Y-122349000D01*
X178221000Y-118996000D02*
X178221000Y-119670000D01*
X178221000Y-121630000D02*
X178221000Y-122304000D01*
X178261000Y-119044000D02*
X178261000Y-122256000D01*
X178301000Y-119094000D02*
X178301000Y-122206000D01*
X178341000Y-119146000D02*
X178341000Y-122154000D01*
X178381000Y-119202000D02*
X178381000Y-122098000D01*
X178421000Y-119260000D02*
X178421000Y-122040000D01*
X178461000Y-119323000D02*
X178461000Y-121977000D01*
X178501000Y-119389000D02*
X178501000Y-121911000D01*
X178541000Y-119461000D02*
X178541000Y-121839000D01*
X178581000Y-119538000D02*
X178581000Y-121762000D01*
X178621000Y-119622000D02*
X178621000Y-121678000D01*
X178661000Y-119716000D02*
X178661000Y-121584000D01*
X178701000Y-119821000D02*
X178701000Y-121479000D01*
X178741000Y-119943000D02*
X178741000Y-121357000D01*
X178781000Y-120091000D02*
X178781000Y-121209000D01*
X178821000Y-120296000D02*
X178821000Y-121004000D01*
X173060000Y-120650000D02*
X174260000Y-120650000D01*
X173660000Y-120000000D02*
X173660000Y-121300000D01*
X205326863Y-115223600D02*
G75*
G03X200532564Y-115225000I-2396863J-981400D01*
G01*
X205326863Y-117186400D02*
G75*
G02X200532564Y-117185000I-2396863J981400D01*
G01*
X205326863Y-117186400D02*
G75*
G03X205327436Y-115225000I-2396863J981400D01*
G01*
X202930000Y-113655000D02*
X202930000Y-118755000D01*
X202970000Y-113655000D02*
X202970000Y-115225000D01*
X202970000Y-117185000D02*
X202970000Y-118755000D01*
X203010000Y-113656000D02*
X203010000Y-115225000D01*
X203010000Y-117185000D02*
X203010000Y-118754000D01*
X203050000Y-113657000D02*
X203050000Y-115225000D01*
X203050000Y-117185000D02*
X203050000Y-118753000D01*
X203090000Y-113659000D02*
X203090000Y-115225000D01*
X203090000Y-117185000D02*
X203090000Y-118751000D01*
X203130000Y-113662000D02*
X203130000Y-115225000D01*
X203130000Y-117185000D02*
X203130000Y-118748000D01*
X203170000Y-113666000D02*
X203170000Y-115225000D01*
X203170000Y-117185000D02*
X203170000Y-118744000D01*
X203210000Y-113670000D02*
X203210000Y-115225000D01*
X203210000Y-117185000D02*
X203210000Y-118740000D01*
X203250000Y-113674000D02*
X203250000Y-115225000D01*
X203250000Y-117185000D02*
X203250000Y-118736000D01*
X203290000Y-113680000D02*
X203290000Y-115225000D01*
X203290000Y-117185000D02*
X203290000Y-118730000D01*
X203330000Y-113686000D02*
X203330000Y-115225000D01*
X203330000Y-117185000D02*
X203330000Y-118724000D01*
X203370000Y-113692000D02*
X203370000Y-115225000D01*
X203370000Y-117185000D02*
X203370000Y-118718000D01*
X203410000Y-113699000D02*
X203410000Y-115225000D01*
X203410000Y-117185000D02*
X203410000Y-118711000D01*
X203450000Y-113707000D02*
X203450000Y-115225000D01*
X203450000Y-117185000D02*
X203450000Y-118703000D01*
X203490000Y-113716000D02*
X203490000Y-115225000D01*
X203490000Y-117185000D02*
X203490000Y-118694000D01*
X203530000Y-113725000D02*
X203530000Y-115225000D01*
X203530000Y-117185000D02*
X203530000Y-118685000D01*
X203570000Y-113735000D02*
X203570000Y-115225000D01*
X203570000Y-117185000D02*
X203570000Y-118675000D01*
X203610000Y-113745000D02*
X203610000Y-115225000D01*
X203610000Y-117185000D02*
X203610000Y-118665000D01*
X203651000Y-113757000D02*
X203651000Y-115225000D01*
X203651000Y-117185000D02*
X203651000Y-118653000D01*
X203691000Y-113769000D02*
X203691000Y-115225000D01*
X203691000Y-117185000D02*
X203691000Y-118641000D01*
X203731000Y-113781000D02*
X203731000Y-115225000D01*
X203731000Y-117185000D02*
X203731000Y-118629000D01*
X203771000Y-113795000D02*
X203771000Y-115225000D01*
X203771000Y-117185000D02*
X203771000Y-118615000D01*
X203811000Y-113809000D02*
X203811000Y-115225000D01*
X203811000Y-117185000D02*
X203811000Y-118601000D01*
X203851000Y-113823000D02*
X203851000Y-115225000D01*
X203851000Y-117185000D02*
X203851000Y-118587000D01*
X203891000Y-113839000D02*
X203891000Y-115225000D01*
X203891000Y-117185000D02*
X203891000Y-118571000D01*
X203931000Y-113855000D02*
X203931000Y-115225000D01*
X203931000Y-117185000D02*
X203931000Y-118555000D01*
X203971000Y-113872000D02*
X203971000Y-115225000D01*
X203971000Y-117185000D02*
X203971000Y-118538000D01*
X204011000Y-113890000D02*
X204011000Y-115225000D01*
X204011000Y-117185000D02*
X204011000Y-118520000D01*
X204051000Y-113909000D02*
X204051000Y-115225000D01*
X204051000Y-117185000D02*
X204051000Y-118501000D01*
X204091000Y-113929000D02*
X204091000Y-115225000D01*
X204091000Y-117185000D02*
X204091000Y-118481000D01*
X204131000Y-113949000D02*
X204131000Y-115225000D01*
X204131000Y-117185000D02*
X204131000Y-118461000D01*
X204171000Y-113971000D02*
X204171000Y-115225000D01*
X204171000Y-117185000D02*
X204171000Y-118439000D01*
X204211000Y-113993000D02*
X204211000Y-115225000D01*
X204211000Y-117185000D02*
X204211000Y-118417000D01*
X204251000Y-114016000D02*
X204251000Y-115225000D01*
X204251000Y-117185000D02*
X204251000Y-118394000D01*
X204291000Y-114040000D02*
X204291000Y-115225000D01*
X204291000Y-117185000D02*
X204291000Y-118370000D01*
X204331000Y-114065000D02*
X204331000Y-115225000D01*
X204331000Y-117185000D02*
X204331000Y-118345000D01*
X204371000Y-114092000D02*
X204371000Y-115225000D01*
X204371000Y-117185000D02*
X204371000Y-118318000D01*
X204411000Y-114119000D02*
X204411000Y-115225000D01*
X204411000Y-117185000D02*
X204411000Y-118291000D01*
X204451000Y-114147000D02*
X204451000Y-115225000D01*
X204451000Y-117185000D02*
X204451000Y-118263000D01*
X204491000Y-114177000D02*
X204491000Y-115225000D01*
X204491000Y-117185000D02*
X204491000Y-118233000D01*
X204531000Y-114208000D02*
X204531000Y-115225000D01*
X204531000Y-117185000D02*
X204531000Y-118202000D01*
X204571000Y-114240000D02*
X204571000Y-115225000D01*
X204571000Y-117185000D02*
X204571000Y-118170000D01*
X204611000Y-114273000D02*
X204611000Y-115225000D01*
X204611000Y-117185000D02*
X204611000Y-118137000D01*
X204651000Y-114308000D02*
X204651000Y-115225000D01*
X204651000Y-117185000D02*
X204651000Y-118102000D01*
X204691000Y-114344000D02*
X204691000Y-115225000D01*
X204691000Y-117185000D02*
X204691000Y-118066000D01*
X204731000Y-114382000D02*
X204731000Y-115225000D01*
X204731000Y-117185000D02*
X204731000Y-118028000D01*
X204771000Y-114422000D02*
X204771000Y-115225000D01*
X204771000Y-117185000D02*
X204771000Y-117988000D01*
X204811000Y-114463000D02*
X204811000Y-115225000D01*
X204811000Y-117185000D02*
X204811000Y-117947000D01*
X204851000Y-114506000D02*
X204851000Y-115225000D01*
X204851000Y-117185000D02*
X204851000Y-117904000D01*
X204891000Y-114551000D02*
X204891000Y-115225000D01*
X204891000Y-117185000D02*
X204891000Y-117859000D01*
X204931000Y-114599000D02*
X204931000Y-117811000D01*
X204971000Y-114649000D02*
X204971000Y-117761000D01*
X205011000Y-114701000D02*
X205011000Y-117709000D01*
X205051000Y-114757000D02*
X205051000Y-117653000D01*
X205091000Y-114815000D02*
X205091000Y-117595000D01*
X205131000Y-114878000D02*
X205131000Y-117532000D01*
X205171000Y-114944000D02*
X205171000Y-117466000D01*
X205211000Y-115016000D02*
X205211000Y-117394000D01*
X205251000Y-115093000D02*
X205251000Y-117317000D01*
X205291000Y-115177000D02*
X205291000Y-117233000D01*
X205331000Y-115271000D02*
X205331000Y-117139000D01*
X205371000Y-115376000D02*
X205371000Y-117034000D01*
X205411000Y-115498000D02*
X205411000Y-116912000D01*
X205451000Y-115646000D02*
X205451000Y-116764000D01*
X205491000Y-115851000D02*
X205491000Y-116559000D01*
X199730000Y-116205000D02*
X200930000Y-116205000D01*
X200330000Y-115555000D02*
X200330000Y-116855000D01*
X208495000Y-116070000D02*
X208495000Y-115070000D01*
X206795000Y-115070000D02*
X206795000Y-116070000D01*
X173350000Y-71970000D02*
X173350000Y-70270000D01*
X173350000Y-70270000D02*
X170200000Y-70270000D01*
X173350000Y-71970000D02*
X170200000Y-71970000D01*
X150490000Y-88480000D02*
X150490000Y-86780000D01*
X150490000Y-86780000D02*
X147340000Y-86780000D01*
X150490000Y-88480000D02*
X147340000Y-88480000D01*
X149220000Y-97370000D02*
X149220000Y-95670000D01*
X149220000Y-95670000D02*
X146070000Y-95670000D01*
X149220000Y-97370000D02*
X146070000Y-97370000D01*
X176535000Y-138215000D02*
X176535000Y-139915000D01*
X176535000Y-139915000D02*
X179685000Y-139915000D01*
X176535000Y-138215000D02*
X179685000Y-138215000D01*
X176535000Y-135675000D02*
X176535000Y-137375000D01*
X176535000Y-137375000D02*
X179685000Y-137375000D01*
X176535000Y-135675000D02*
X179685000Y-135675000D01*
X163200000Y-126785000D02*
X163200000Y-128485000D01*
X163200000Y-128485000D02*
X166350000Y-128485000D01*
X163200000Y-126785000D02*
X166350000Y-126785000D01*
X167000000Y-125945000D02*
X167000000Y-124245000D01*
X167000000Y-124245000D02*
X163850000Y-124245000D01*
X167000000Y-125945000D02*
X163850000Y-125945000D01*
X174620000Y-128485000D02*
X174620000Y-126785000D01*
X174620000Y-126785000D02*
X171470000Y-126785000D01*
X174620000Y-128485000D02*
X171470000Y-128485000D01*
X209335000Y-117470000D02*
X211035000Y-117470000D01*
X211035000Y-117470000D02*
X211035000Y-114320000D01*
X209335000Y-117470000D02*
X209335000Y-114320000D01*
X207015000Y-103290000D02*
X207015000Y-104990000D01*
X207015000Y-104990000D02*
X210165000Y-104990000D01*
X207015000Y-103290000D02*
X210165000Y-103290000D01*
D13*
X213840000Y-64520000D02*
X207340000Y-69520000D01*
X213840000Y-77720000D02*
X207340000Y-72720000D01*
X172240000Y-77720000D02*
X178740000Y-72720000D01*
X172340000Y-64570000D02*
X178740000Y-69520000D01*
X208990000Y-79870000D02*
G75*
G03X208790000Y-80170000I50000J-250000D01*
G01*
X209240000Y-79970000D02*
G75*
G03X208890000Y-79920000I-200000J-150000D01*
G01*
X209590000Y-77470000D02*
G75*
G03X209640000Y-77820000I200000J-150000D01*
G01*
X209940000Y-77420000D02*
G75*
G03X209590000Y-77470000I-150000J-200000D01*
G01*
X209540000Y-64670000D02*
G75*
G03X209840000Y-64870000I250000J50000D01*
G01*
X209640000Y-64420000D02*
G75*
G03X209590000Y-64770000I150000J-200000D01*
G01*
X208840000Y-62270000D02*
G75*
G03X209190000Y-62320000I200000J150000D01*
G01*
X208790000Y-62070000D02*
G75*
G03X208990000Y-62370000I250000J-50000D01*
G01*
X213840000Y-59520000D02*
G75*
G03X213940000Y-58820000I-300000J400000D01*
G01*
X213940000Y-58820000D02*
G75*
G03X213240000Y-58720000I-400000J-300000D01*
G01*
X213840000Y-64520000D02*
G75*
G03X213940000Y-63820000I-300000J400000D01*
G01*
X214040000Y-64070000D02*
G75*
G03X213490000Y-63620000I-500000J-50000D01*
G01*
X213340000Y-78570000D02*
G75*
G03X213990000Y-78320000I200000J450000D01*
G01*
X213940000Y-78420000D02*
G75*
G03X213840000Y-77720000I-400000J300000D01*
G01*
X213840000Y-83520000D02*
G75*
G03X213940000Y-82820000I-300000J400000D01*
G01*
X213240000Y-83520000D02*
G75*
G03X213890000Y-83470000I300000J350000D01*
G01*
X209190000Y-79920000D02*
X213240000Y-83520000D01*
X209540000Y-83120000D02*
X208790000Y-80120000D01*
X209640000Y-77820000D02*
X213940000Y-82820000D01*
X209940000Y-77420000D02*
X213340000Y-78570000D01*
X209840000Y-64870000D02*
X213490000Y-63620000D01*
X209590000Y-64470000D02*
X213840000Y-59520000D01*
X209190000Y-62320000D02*
X213240000Y-58720000D01*
X209540000Y-59120000D02*
X208790000Y-62070000D01*
X176140000Y-64820000D02*
G75*
G03X176490000Y-64770000I150000J200000D01*
G01*
X176440000Y-64820000D02*
G75*
G03X176490000Y-64470000I-150000J200000D01*
G01*
X176840000Y-62270000D02*
G75*
G03X177190000Y-62320000I200000J150000D01*
G01*
X177090000Y-62370000D02*
G75*
G03X177290000Y-62070000I-50000J250000D01*
G01*
X176490000Y-77720000D02*
G75*
G03X176390000Y-77420000I-200000J100000D01*
G01*
X176490000Y-77520000D02*
G75*
G03X176190000Y-77420000I-200000J-100000D01*
G01*
X177290000Y-80170000D02*
G75*
G03X177090000Y-79870000I-250000J50000D01*
G01*
X177240000Y-79970000D02*
G75*
G03X176890000Y-79920000I-200000J-150000D01*
G01*
X201540000Y-83120000D02*
X201540000Y-72120000D01*
X172740000Y-63670000D02*
G75*
G03X172090000Y-63920000I-200000J-450000D01*
G01*
X172090000Y-63920000D02*
G75*
G03X172340000Y-64570000I450000J-200000D01*
G01*
X172840000Y-58720000D02*
G75*
G03X172140000Y-58820000I-300000J-400000D01*
G01*
X172240000Y-58720000D02*
G75*
G03X172140000Y-59420000I300000J-400000D01*
G01*
X176140000Y-64820000D02*
X172740000Y-63670000D01*
X172190000Y-83470000D02*
G75*
G03X172890000Y-83470000I350000J350000D01*
G01*
X172190000Y-82770000D02*
G75*
G03X172190000Y-83470000I350000J-350000D01*
G01*
X172090000Y-78320000D02*
G75*
G03X172740000Y-78570000I450000J200000D01*
G01*
X172240000Y-77720000D02*
G75*
G03X172140000Y-78420000I300000J-400000D01*
G01*
X184540000Y-83120000D02*
X184540000Y-72120000D01*
X172740000Y-78570000D02*
X176140000Y-77420000D01*
X172190000Y-82770000D02*
X176490000Y-77770000D01*
X172940000Y-83420000D02*
X176890000Y-79920000D01*
X176540000Y-83120000D02*
X177290000Y-80120000D01*
X176490000Y-64470000D02*
X172140000Y-59420000D01*
X176840000Y-62270000D02*
X172890000Y-58770000D01*
X184540000Y-59120000D02*
X184540000Y-70120000D01*
X201540000Y-59120000D02*
X201540000Y-70120000D01*
X177290000Y-62120000D02*
X176540000Y-59120000D01*
X208590000Y-83320000D02*
X205540000Y-77870000D01*
X208590000Y-83320000D02*
G75*
G03X209240000Y-83570000I450000J200000D01*
G01*
X177440000Y-83420000D02*
X180540000Y-77870000D01*
X176740000Y-83520000D02*
G75*
G03X177440000Y-83420000I300000J400000D01*
G01*
X177540000Y-58870000D02*
X180540000Y-64370000D01*
X177540000Y-58870000D02*
G75*
G03X176840000Y-58670000I-450000J-250000D01*
G01*
X205540000Y-64370000D02*
X208640000Y-58820000D01*
X209340000Y-58720000D02*
G75*
G03X208640000Y-58820000I-300000J-400000D01*
G01*
X205540000Y-77870000D02*
G75*
G03X203790000Y-77620000I-1000000J-750000D01*
G01*
X204540000Y-77370000D02*
G75*
G03X203290000Y-78620000I0J-1250000D01*
G01*
X182790000Y-78620000D02*
G75*
G03X181540000Y-77370000I-1250000J0D01*
G01*
X182290000Y-77620000D02*
G75*
G03X180540000Y-77870000I-750000J-1000000D01*
G01*
X180540000Y-64370000D02*
G75*
G03X182290000Y-64620000I1000000J750000D01*
G01*
X181540000Y-64870000D02*
G75*
G03X182790000Y-63620000I0J1250000D01*
G01*
X203790000Y-64620000D02*
G75*
G03X205540000Y-64370000I750000J1000000D01*
G01*
X203290000Y-63620000D02*
G75*
G03X204540000Y-64870000I1250000J0D01*
G01*
X203290000Y-78620000D02*
X202540000Y-83120000D01*
X182790000Y-78620000D02*
X183540000Y-83120000D01*
X202540000Y-59120000D02*
X203290000Y-63620000D01*
X183540000Y-59120000D02*
X182790000Y-63620000D01*
X177040000Y-58620000D02*
G75*
G03X176540000Y-59120000I0J-500000D01*
G01*
X209540000Y-59120000D02*
G75*
G03X209040000Y-58620000I-500000J0D01*
G01*
X209040000Y-83620000D02*
G75*
G03X209540000Y-83120000I0J500000D01*
G01*
X176540000Y-83120000D02*
G75*
G03X177040000Y-83620000I500000J0D01*
G01*
X184040000Y-58620000D02*
G75*
G03X183540000Y-59120000I0J-500000D01*
G01*
X184540000Y-59120000D02*
G75*
G03X184040000Y-58620000I-500000J0D01*
G01*
X183540000Y-83120000D02*
G75*
G03X184040000Y-83620000I500000J0D01*
G01*
X184040000Y-83620000D02*
G75*
G03X184540000Y-83120000I0J500000D01*
G01*
X202040000Y-83620000D02*
G75*
G03X202540000Y-83120000I0J500000D01*
G01*
X201540000Y-83120000D02*
G75*
G03X202040000Y-83620000I500000J0D01*
G01*
X202540000Y-59120000D02*
G75*
G03X202040000Y-58620000I-500000J0D01*
G01*
X202040000Y-58620000D02*
G75*
G03X201540000Y-59120000I0J-500000D01*
G01*
X194790000Y-70870000D02*
X194790000Y-71370000D01*
X191290000Y-70870000D02*
X191290000Y-71370000D01*
X194790000Y-71870000D02*
X194790000Y-72120000D01*
X191290000Y-72120000D02*
X191290000Y-71870000D01*
X194790000Y-70120000D02*
X194790000Y-70370000D01*
X191290000Y-70120000D02*
X191290000Y-70370000D01*
X201540000Y-72120000D02*
X184540000Y-72120000D01*
X184540000Y-70120000D02*
X201540000Y-70120000D01*
X170660000Y-64520000D02*
X164160000Y-69520000D01*
X170660000Y-77720000D02*
X164160000Y-72720000D01*
X129060000Y-77720000D02*
X135560000Y-72720000D01*
X129160000Y-64570000D02*
X135560000Y-69520000D01*
X165810000Y-79870000D02*
G75*
G03X165610000Y-80170000I50000J-250000D01*
G01*
X166060000Y-79970000D02*
G75*
G03X165710000Y-79920000I-200000J-150000D01*
G01*
X166410000Y-77470000D02*
G75*
G03X166460000Y-77820000I200000J-150000D01*
G01*
X166760000Y-77420000D02*
G75*
G03X166410000Y-77470000I-150000J-200000D01*
G01*
X166360000Y-64670000D02*
G75*
G03X166660000Y-64870000I250000J50000D01*
G01*
X166460000Y-64420000D02*
G75*
G03X166410000Y-64770000I150000J-200000D01*
G01*
X165660000Y-62270000D02*
G75*
G03X166010000Y-62320000I200000J150000D01*
G01*
X165610000Y-62070000D02*
G75*
G03X165810000Y-62370000I250000J-50000D01*
G01*
X170660000Y-59520000D02*
G75*
G03X170760000Y-58820000I-300000J400000D01*
G01*
X170760000Y-58820000D02*
G75*
G03X170060000Y-58720000I-400000J-300000D01*
G01*
X170660000Y-64520000D02*
G75*
G03X170760000Y-63820000I-300000J400000D01*
G01*
X170860000Y-64070000D02*
G75*
G03X170310000Y-63620000I-500000J-50000D01*
G01*
X170160000Y-78570000D02*
G75*
G03X170810000Y-78320000I200000J450000D01*
G01*
X170760000Y-78420000D02*
G75*
G03X170660000Y-77720000I-400000J300000D01*
G01*
X170660000Y-83520000D02*
G75*
G03X170760000Y-82820000I-300000J400000D01*
G01*
X170060000Y-83520000D02*
G75*
G03X170710000Y-83470000I300000J350000D01*
G01*
X166010000Y-79920000D02*
X170060000Y-83520000D01*
X166360000Y-83120000D02*
X165610000Y-80120000D01*
X166460000Y-77820000D02*
X170760000Y-82820000D01*
X166760000Y-77420000D02*
X170160000Y-78570000D01*
X166660000Y-64870000D02*
X170310000Y-63620000D01*
X166410000Y-64470000D02*
X170660000Y-59520000D01*
X166010000Y-62320000D02*
X170060000Y-58720000D01*
X166360000Y-59120000D02*
X165610000Y-62070000D01*
X132960000Y-64820000D02*
G75*
G03X133310000Y-64770000I150000J200000D01*
G01*
X133260000Y-64820000D02*
G75*
G03X133310000Y-64470000I-150000J200000D01*
G01*
X133660000Y-62270000D02*
G75*
G03X134010000Y-62320000I200000J150000D01*
G01*
X133910000Y-62370000D02*
G75*
G03X134110000Y-62070000I-50000J250000D01*
G01*
X133310000Y-77720000D02*
G75*
G03X133210000Y-77420000I-200000J100000D01*
G01*
X133310000Y-77520000D02*
G75*
G03X133010000Y-77420000I-200000J-100000D01*
G01*
X134110000Y-80170000D02*
G75*
G03X133910000Y-79870000I-250000J50000D01*
G01*
X134060000Y-79970000D02*
G75*
G03X133710000Y-79920000I-200000J-150000D01*
G01*
X158360000Y-83120000D02*
X158360000Y-72120000D01*
X129560000Y-63670000D02*
G75*
G03X128910000Y-63920000I-200000J-450000D01*
G01*
X128910000Y-63920000D02*
G75*
G03X129160000Y-64570000I450000J-200000D01*
G01*
X129660000Y-58720000D02*
G75*
G03X128960000Y-58820000I-300000J-400000D01*
G01*
X129060000Y-58720000D02*
G75*
G03X128960000Y-59420000I300000J-400000D01*
G01*
X132960000Y-64820000D02*
X129560000Y-63670000D01*
X129010000Y-83470000D02*
G75*
G03X129710000Y-83470000I350000J350000D01*
G01*
X129010000Y-82770000D02*
G75*
G03X129010000Y-83470000I350000J-350000D01*
G01*
X128910000Y-78320000D02*
G75*
G03X129560000Y-78570000I450000J200000D01*
G01*
X129060000Y-77720000D02*
G75*
G03X128960000Y-78420000I300000J-400000D01*
G01*
X141360000Y-83120000D02*
X141360000Y-72120000D01*
X129560000Y-78570000D02*
X132960000Y-77420000D01*
X129010000Y-82770000D02*
X133310000Y-77770000D01*
X129760000Y-83420000D02*
X133710000Y-79920000D01*
X133360000Y-83120000D02*
X134110000Y-80120000D01*
X133310000Y-64470000D02*
X128960000Y-59420000D01*
X133660000Y-62270000D02*
X129710000Y-58770000D01*
X141360000Y-59120000D02*
X141360000Y-70120000D01*
X158360000Y-59120000D02*
X158360000Y-70120000D01*
X134110000Y-62120000D02*
X133360000Y-59120000D01*
X165410000Y-83320000D02*
X162360000Y-77870000D01*
X165410000Y-83320000D02*
G75*
G03X166060000Y-83570000I450000J200000D01*
G01*
X134260000Y-83420000D02*
X137360000Y-77870000D01*
X133560000Y-83520000D02*
G75*
G03X134260000Y-83420000I300000J400000D01*
G01*
X134360000Y-58870000D02*
X137360000Y-64370000D01*
X134360000Y-58870000D02*
G75*
G03X133660000Y-58670000I-450000J-250000D01*
G01*
X162360000Y-64370000D02*
X165460000Y-58820000D01*
X166160000Y-58720000D02*
G75*
G03X165460000Y-58820000I-300000J-400000D01*
G01*
X162360000Y-77870000D02*
G75*
G03X160610000Y-77620000I-1000000J-750000D01*
G01*
X161360000Y-77370000D02*
G75*
G03X160110000Y-78620000I0J-1250000D01*
G01*
X139610000Y-78620000D02*
G75*
G03X138360000Y-77370000I-1250000J0D01*
G01*
X139110000Y-77620000D02*
G75*
G03X137360000Y-77870000I-750000J-1000000D01*
G01*
X137360000Y-64370000D02*
G75*
G03X139110000Y-64620000I1000000J750000D01*
G01*
X138360000Y-64870000D02*
G75*
G03X139610000Y-63620000I0J1250000D01*
G01*
X160610000Y-64620000D02*
G75*
G03X162360000Y-64370000I750000J1000000D01*
G01*
X160110000Y-63620000D02*
G75*
G03X161360000Y-64870000I1250000J0D01*
G01*
X160110000Y-78620000D02*
X159360000Y-83120000D01*
X139610000Y-78620000D02*
X140360000Y-83120000D01*
X159360000Y-59120000D02*
X160110000Y-63620000D01*
X140360000Y-59120000D02*
X139610000Y-63620000D01*
X133860000Y-58620000D02*
G75*
G03X133360000Y-59120000I0J-500000D01*
G01*
X166360000Y-59120000D02*
G75*
G03X165860000Y-58620000I-500000J0D01*
G01*
X165860000Y-83620000D02*
G75*
G03X166360000Y-83120000I0J500000D01*
G01*
X133360000Y-83120000D02*
G75*
G03X133860000Y-83620000I500000J0D01*
G01*
X140860000Y-58620000D02*
G75*
G03X140360000Y-59120000I0J-500000D01*
G01*
X141360000Y-59120000D02*
G75*
G03X140860000Y-58620000I-500000J0D01*
G01*
X140360000Y-83120000D02*
G75*
G03X140860000Y-83620000I500000J0D01*
G01*
X140860000Y-83620000D02*
G75*
G03X141360000Y-83120000I0J500000D01*
G01*
X158860000Y-83620000D02*
G75*
G03X159360000Y-83120000I0J500000D01*
G01*
X158360000Y-83120000D02*
G75*
G03X158860000Y-83620000I500000J0D01*
G01*
X159360000Y-59120000D02*
G75*
G03X158860000Y-58620000I-500000J0D01*
G01*
X158860000Y-58620000D02*
G75*
G03X158360000Y-59120000I0J-500000D01*
G01*
X151610000Y-70870000D02*
X151610000Y-71370000D01*
X148110000Y-70870000D02*
X148110000Y-71370000D01*
X151610000Y-71870000D02*
X151610000Y-72120000D01*
X148110000Y-72120000D02*
X148110000Y-71870000D01*
X151610000Y-70120000D02*
X151610000Y-70370000D01*
X148110000Y-70120000D02*
X148110000Y-70370000D01*
X158360000Y-72120000D02*
X141360000Y-72120000D01*
X141360000Y-70120000D02*
X158360000Y-70120000D01*
X196736000Y-106172000D02*
X213736000Y-106172000D01*
X213736000Y-106172000D02*
X213736000Y-114172000D01*
X213736000Y-114172000D02*
X212736000Y-114172000D01*
X212736000Y-114172000D02*
X212736000Y-107172000D01*
X212736000Y-107172000D02*
X197736000Y-107172000D01*
X197736000Y-107172000D02*
X197736000Y-114172000D01*
X197736000Y-114172000D02*
X196736000Y-114172000D01*
X196736000Y-114172000D02*
X196736000Y-106172000D01*
D12*
X207645000Y-99060000D02*
X207645000Y-88900000D01*
X206375000Y-99060000D02*
X213995000Y-99060000D01*
X213995000Y-99060000D02*
X213995000Y-88900000D01*
X213995000Y-88900000D02*
X206375000Y-88900000D01*
X206375000Y-88900000D02*
X206375000Y-99060000D01*
X130175000Y-133985000D02*
X130175000Y-123825000D01*
X128905000Y-133985000D02*
X136525000Y-133985000D01*
X136525000Y-133985000D02*
X136525000Y-123825000D01*
X136525000Y-123825000D02*
X128905000Y-123825000D01*
X128905000Y-123825000D02*
X128905000Y-133985000D01*
X136525000Y-114935000D02*
X128905000Y-114935000D01*
X136525000Y-99695000D02*
X128905000Y-99695000D01*
X135255000Y-114935000D02*
X135255000Y-99695000D01*
X128905000Y-114935000D02*
X128905000Y-99695000D01*
X136525000Y-114935000D02*
X136525000Y-99695000D01*
X207010000Y-119380000D02*
X214630000Y-119380000D01*
X207010000Y-134620000D02*
X214630000Y-134620000D01*
X208280000Y-119380000D02*
X208280000Y-134620000D01*
X214630000Y-119380000D02*
X214630000Y-134620000D01*
X207010000Y-119380000D02*
X207010000Y-134620000D01*
D13*
X191170000Y-103265000D02*
X192370000Y-103265000D01*
X192370000Y-105015000D02*
X191170000Y-105015000D01*
X186090000Y-103265000D02*
X187290000Y-103265000D01*
X187290000Y-105015000D02*
X186090000Y-105015000D01*
X191375000Y-99095000D02*
X191375000Y-100295000D01*
X189625000Y-100295000D02*
X189625000Y-99095000D01*
X188835000Y-99095000D02*
X188835000Y-100295000D01*
X187085000Y-100295000D02*
X187085000Y-99095000D01*
X147990000Y-84215000D02*
X149190000Y-84215000D01*
X149190000Y-85965000D02*
X147990000Y-85965000D01*
X143270000Y-93310000D02*
X143270000Y-92110000D01*
X145020000Y-92110000D02*
X145020000Y-93310000D01*
X179945000Y-131480000D02*
X179945000Y-132680000D01*
X178195000Y-132680000D02*
X178195000Y-131480000D01*
X166970000Y-136765000D02*
X165770000Y-136765000D01*
X165770000Y-135015000D02*
X166970000Y-135015000D01*
X177200000Y-126760000D02*
X178400000Y-126760000D01*
X178400000Y-128510000D02*
X177200000Y-128510000D01*
D12*
X197205309Y-97794296D02*
G75*
G02X197165000Y-95485000I-40309J1154296D01*
G01*
X197144879Y-95485948D02*
G75*
G02X198294000Y-96880000I20121J-1154052D01*
G01*
X205485000Y-100260000D02*
X195835000Y-100260000D01*
X205485000Y-95309000D02*
X195835000Y-95309000D01*
X205485000Y-100260000D02*
X205485000Y-95309000D01*
X195835000Y-100260000D02*
X195835000Y-95309000D01*
X196289000Y-97374000D02*
X197900000Y-95764000D01*
X196429000Y-97515000D02*
X198041000Y-95905000D01*
D13*
X196145000Y-149660000D02*
X196145000Y-162660000D01*
X196145000Y-162660000D02*
X189545000Y-162660000D01*
X189545000Y-162660000D02*
X189545000Y-149660000D01*
X198045000Y-141660000D02*
X198045000Y-149660000D01*
X198045000Y-149660000D02*
X187845000Y-149660000D01*
X187845000Y-149660000D02*
X187845000Y-141660000D01*
X192945000Y-141660000D02*
X204445000Y-141660000D01*
X204445000Y-141660000D02*
X204445000Y-122160000D01*
X204445000Y-122160000D02*
X181445000Y-122160000D01*
X181445000Y-122160000D02*
X181445000Y-141660000D01*
X181445000Y-141660000D02*
X192945000Y-141660000D01*
X152965000Y-149660000D02*
X152965000Y-162660000D01*
X152965000Y-162660000D02*
X146365000Y-162660000D01*
X146365000Y-162660000D02*
X146365000Y-149660000D01*
X154865000Y-141660000D02*
X154865000Y-149660000D01*
X154865000Y-149660000D02*
X144665000Y-149660000D01*
X144665000Y-149660000D02*
X144665000Y-141660000D01*
X149765000Y-141660000D02*
X161265000Y-141660000D01*
X161265000Y-141660000D02*
X161265000Y-122160000D01*
X161265000Y-122160000D02*
X138265000Y-122160000D01*
X138265000Y-122160000D02*
X138265000Y-141660000D01*
X138265000Y-141660000D02*
X149765000Y-141660000D01*
D12*
X194430000Y-112760000D02*
G75*
G02X194430000Y-110760000I0J1000000D01*
G01*
X194430000Y-110760000D02*
X194430000Y-109390000D01*
X194430000Y-109390000D02*
X184030000Y-109390000D01*
X184030000Y-109390000D02*
X184030000Y-114130000D01*
X184030000Y-114130000D02*
X194430000Y-114130000D01*
X194430000Y-114130000D02*
X194430000Y-112760000D01*
X194430000Y-106560000D02*
X184030000Y-106560000D01*
X184030000Y-106560000D02*
X184030000Y-116960000D01*
X184030000Y-116960000D02*
X194430000Y-116960000D01*
X194430000Y-116960000D02*
X194430000Y-106560000D01*
D13*
X197866000Y-73914000D02*
X197866000Y-77343000D01*
X188214000Y-73914000D02*
X188214000Y-77343000D01*
X198374000Y-72771000D02*
X187706000Y-72771000D01*
X194818000Y-73787000D02*
X194818000Y-72517000D01*
X191262000Y-73787000D02*
X191262000Y-72517000D01*
X187706000Y-73914000D02*
X198374000Y-73914000D01*
X198374000Y-77343000D02*
X187706000Y-77343000D01*
X187706000Y-72517000D02*
X187706000Y-77343000D01*
X198374000Y-72517000D02*
X198374000Y-77343000D01*
X198374000Y-72517000D02*
X187706000Y-72517000D01*
X154686000Y-73914000D02*
X154686000Y-77343000D01*
X145034000Y-73914000D02*
X145034000Y-77343000D01*
X155194000Y-72771000D02*
X144526000Y-72771000D01*
X151638000Y-73787000D02*
X151638000Y-72517000D01*
X148082000Y-73787000D02*
X148082000Y-72517000D01*
X144526000Y-73914000D02*
X155194000Y-73914000D01*
X155194000Y-77343000D02*
X144526000Y-77343000D01*
X144526000Y-72517000D02*
X144526000Y-77343000D01*
X155194000Y-72517000D02*
X155194000Y-77343000D01*
X155194000Y-72517000D02*
X144526000Y-72517000D01*
D12*
X150390000Y-90225000D02*
X146790000Y-90225000D01*
X150428478Y-90236522D02*
G75*
G02X148590000Y-94675000I-1838478J-1838478D01*
G01*
X146751522Y-90236522D02*
G75*
G03X148590000Y-94675000I1838478J-1838478D01*
G01*
X176425000Y-129595000D02*
X172825000Y-129595000D01*
X176463478Y-129606522D02*
G75*
G02X174625000Y-134045000I-1838478J-1838478D01*
G01*
X172786522Y-129606522D02*
G75*
G03X174625000Y-134045000I1838478J-1838478D01*
G01*
X163935000Y-133930000D02*
X167535000Y-133930000D01*
X163896522Y-133918478D02*
G75*
G02X165735000Y-129480000I1838478J1838478D01*
G01*
X167573478Y-133918478D02*
G75*
G03X165735000Y-129480000I-1838478J1838478D01*
G01*
X177530000Y-106560000D02*
G75*
G02X175530000Y-106560000I-1000000J0D01*
G01*
X175530000Y-106560000D02*
X174160000Y-106560000D01*
X174160000Y-106560000D02*
X174160000Y-116960000D01*
X174160000Y-116960000D02*
X178900000Y-116960000D01*
X178900000Y-116960000D02*
X178900000Y-106560000D01*
X178900000Y-106560000D02*
X177530000Y-106560000D01*
X171330000Y-106560000D02*
X171330000Y-116960000D01*
X171330000Y-116960000D02*
X181730000Y-116960000D01*
X181730000Y-116960000D02*
X181730000Y-106560000D01*
X181730000Y-106560000D02*
X171330000Y-106560000D01*
D13*
X209931000Y-108839000D02*
X209931000Y-112268000D01*
X200279000Y-108839000D02*
X200279000Y-112268000D01*
X210439000Y-107696000D02*
X199771000Y-107696000D01*
X206883000Y-108712000D02*
X206883000Y-107442000D01*
X203327000Y-108712000D02*
X203327000Y-107442000D01*
X199771000Y-108839000D02*
X210439000Y-108839000D01*
X210439000Y-112268000D02*
X199771000Y-112268000D01*
X199771000Y-107442000D02*
X199771000Y-112268000D01*
X210439000Y-107442000D02*
X210439000Y-112268000D01*
X210439000Y-107442000D02*
X199771000Y-107442000D01*
X190230000Y-86165000D02*
X188230000Y-86165000D01*
X188230000Y-84015000D02*
X190230000Y-84015000D01*
X190230000Y-88705000D02*
X188230000Y-88705000D01*
X188230000Y-86555000D02*
X190230000Y-86555000D01*
X190230000Y-91245000D02*
X188230000Y-91245000D01*
X188230000Y-89095000D02*
X190230000Y-89095000D01*
X190230000Y-93785000D02*
X188230000Y-93785000D01*
X188230000Y-91635000D02*
X190230000Y-91635000D01*
X190230000Y-96325000D02*
X188230000Y-96325000D01*
X188230000Y-94175000D02*
X190230000Y-94175000D01*
X202398334Y-95607143D02*
X202350715Y-95654762D01*
X202207858Y-95702381D01*
X202112620Y-95702381D01*
X201969762Y-95654762D01*
X201874524Y-95559524D01*
X201826905Y-95464286D01*
X201779286Y-95273810D01*
X201779286Y-95130952D01*
X201826905Y-94940476D01*
X201874524Y-94845238D01*
X201969762Y-94750000D01*
X202112620Y-94702381D01*
X202207858Y-94702381D01*
X202350715Y-94750000D01*
X202398334Y-94797619D01*
X203350715Y-95702381D02*
X202779286Y-95702381D01*
X203065000Y-95702381D02*
X203065000Y-94702381D01*
X202969762Y-94845238D01*
X202874524Y-94940476D01*
X202779286Y-94988095D01*
X137628334Y-119737143D02*
X137580715Y-119784762D01*
X137437858Y-119832381D01*
X137342620Y-119832381D01*
X137199762Y-119784762D01*
X137104524Y-119689524D01*
X137056905Y-119594286D01*
X137009286Y-119403810D01*
X137009286Y-119260952D01*
X137056905Y-119070476D01*
X137104524Y-118975238D01*
X137199762Y-118880000D01*
X137342620Y-118832381D01*
X137437858Y-118832381D01*
X137580715Y-118880000D01*
X137628334Y-118927619D01*
X138009286Y-118927619D02*
X138056905Y-118880000D01*
X138152143Y-118832381D01*
X138390239Y-118832381D01*
X138485477Y-118880000D01*
X138533096Y-118927619D01*
X138580715Y-119022857D01*
X138580715Y-119118095D01*
X138533096Y-119260952D01*
X137961667Y-119832381D01*
X138580715Y-119832381D01*
X181443334Y-87352143D02*
X181395715Y-87399762D01*
X181252858Y-87447381D01*
X181157620Y-87447381D01*
X181014762Y-87399762D01*
X180919524Y-87304524D01*
X180871905Y-87209286D01*
X180824286Y-87018810D01*
X180824286Y-86875952D01*
X180871905Y-86685476D01*
X180919524Y-86590238D01*
X181014762Y-86495000D01*
X181157620Y-86447381D01*
X181252858Y-86447381D01*
X181395715Y-86495000D01*
X181443334Y-86542619D01*
X181776667Y-86447381D02*
X182395715Y-86447381D01*
X182062381Y-86828333D01*
X182205239Y-86828333D01*
X182300477Y-86875952D01*
X182348096Y-86923571D01*
X182395715Y-87018810D01*
X182395715Y-87256905D01*
X182348096Y-87352143D01*
X182300477Y-87399762D01*
X182205239Y-87447381D01*
X181919524Y-87447381D01*
X181824286Y-87399762D01*
X181776667Y-87352143D01*
X142708334Y-85447143D02*
X142660715Y-85494762D01*
X142517858Y-85542381D01*
X142422620Y-85542381D01*
X142279762Y-85494762D01*
X142184524Y-85399524D01*
X142136905Y-85304286D01*
X142089286Y-85113810D01*
X142089286Y-84970952D01*
X142136905Y-84780476D01*
X142184524Y-84685238D01*
X142279762Y-84590000D01*
X142422620Y-84542381D01*
X142517858Y-84542381D01*
X142660715Y-84590000D01*
X142708334Y-84637619D01*
X143565477Y-84875714D02*
X143565477Y-85542381D01*
X143327381Y-84494762D02*
X143089286Y-85209048D01*
X143708334Y-85209048D01*
X171557143Y-112926666D02*
X171604762Y-112974285D01*
X171652381Y-113117142D01*
X171652381Y-113212380D01*
X171604762Y-113355238D01*
X171509524Y-113450476D01*
X171414286Y-113498095D01*
X171223810Y-113545714D01*
X171080952Y-113545714D01*
X170890476Y-113498095D01*
X170795238Y-113450476D01*
X170700000Y-113355238D01*
X170652381Y-113212380D01*
X170652381Y-113117142D01*
X170700000Y-112974285D01*
X170747619Y-112926666D01*
X170652381Y-112069523D02*
X170652381Y-112260000D01*
X170700000Y-112355238D01*
X170747619Y-112402857D01*
X170890476Y-112498095D01*
X171080952Y-112545714D01*
X171461905Y-112545714D01*
X171557143Y-112498095D01*
X171604762Y-112450476D01*
X171652381Y-112355238D01*
X171652381Y-112164761D01*
X171604762Y-112069523D01*
X171557143Y-112021904D01*
X171461905Y-111974285D01*
X171223810Y-111974285D01*
X171128571Y-112021904D01*
X171080952Y-112069523D01*
X171033333Y-112164761D01*
X171033333Y-112355238D01*
X171080952Y-112450476D01*
X171128571Y-112498095D01*
X171223810Y-112545714D01*
X171918334Y-121007143D02*
X171870715Y-121054762D01*
X171727858Y-121102381D01*
X171632620Y-121102381D01*
X171489762Y-121054762D01*
X171394524Y-120959524D01*
X171346905Y-120864286D01*
X171299286Y-120673810D01*
X171299286Y-120530952D01*
X171346905Y-120340476D01*
X171394524Y-120245238D01*
X171489762Y-120150000D01*
X171632620Y-120102381D01*
X171727858Y-120102381D01*
X171870715Y-120150000D01*
X171918334Y-120197619D01*
X172251667Y-120102381D02*
X172918334Y-120102381D01*
X172489762Y-121102381D01*
X203033334Y-120372143D02*
X202985715Y-120419762D01*
X202842858Y-120467381D01*
X202747620Y-120467381D01*
X202604762Y-120419762D01*
X202509524Y-120324524D01*
X202461905Y-120229286D01*
X202414286Y-120038810D01*
X202414286Y-119895952D01*
X202461905Y-119705476D01*
X202509524Y-119610238D01*
X202604762Y-119515000D01*
X202747620Y-119467381D01*
X202842858Y-119467381D01*
X202985715Y-119515000D01*
X203033334Y-119562619D01*
X203604762Y-119895952D02*
X203509524Y-119848333D01*
X203461905Y-119800714D01*
X203414286Y-119705476D01*
X203414286Y-119657857D01*
X203461905Y-119562619D01*
X203509524Y-119515000D01*
X203604762Y-119467381D01*
X203795239Y-119467381D01*
X203890477Y-119515000D01*
X203938096Y-119562619D01*
X203985715Y-119657857D01*
X203985715Y-119705476D01*
X203938096Y-119800714D01*
X203890477Y-119848333D01*
X203795239Y-119895952D01*
X203604762Y-119895952D01*
X203509524Y-119943571D01*
X203461905Y-119991190D01*
X203414286Y-120086429D01*
X203414286Y-120276905D01*
X203461905Y-120372143D01*
X203509524Y-120419762D01*
X203604762Y-120467381D01*
X203795239Y-120467381D01*
X203890477Y-120419762D01*
X203938096Y-120372143D01*
X203985715Y-120276905D01*
X203985715Y-120086429D01*
X203938096Y-119991190D01*
X203890477Y-119943571D01*
X203795239Y-119895952D01*
X207478334Y-119229143D02*
X207430715Y-119276762D01*
X207287858Y-119324381D01*
X207192620Y-119324381D01*
X207049762Y-119276762D01*
X206954524Y-119181524D01*
X206906905Y-119086286D01*
X206859286Y-118895810D01*
X206859286Y-118752952D01*
X206906905Y-118562476D01*
X206954524Y-118467238D01*
X207049762Y-118372000D01*
X207192620Y-118324381D01*
X207287858Y-118324381D01*
X207430715Y-118372000D01*
X207478334Y-118419619D01*
X207954524Y-119324381D02*
X208145000Y-119324381D01*
X208240239Y-119276762D01*
X208287858Y-119229143D01*
X208383096Y-119086286D01*
X208430715Y-118895810D01*
X208430715Y-118514857D01*
X208383096Y-118419619D01*
X208335477Y-118372000D01*
X208240239Y-118324381D01*
X208049762Y-118324381D01*
X207954524Y-118372000D01*
X207906905Y-118419619D01*
X207859286Y-118514857D01*
X207859286Y-118752952D01*
X207906905Y-118848190D01*
X207954524Y-118895810D01*
X208049762Y-118943429D01*
X208240239Y-118943429D01*
X208335477Y-118895810D01*
X208383096Y-118848190D01*
X208430715Y-118752952D01*
X170711905Y-73422381D02*
X170711905Y-72422381D01*
X170950000Y-72422381D01*
X171092858Y-72470000D01*
X171188096Y-72565238D01*
X171235715Y-72660476D01*
X171283334Y-72850952D01*
X171283334Y-72993810D01*
X171235715Y-73184286D01*
X171188096Y-73279524D01*
X171092858Y-73374762D01*
X170950000Y-73422381D01*
X170711905Y-73422381D01*
X172235715Y-73422381D02*
X171664286Y-73422381D01*
X171950000Y-73422381D02*
X171950000Y-72422381D01*
X171854762Y-72565238D01*
X171759524Y-72660476D01*
X171664286Y-72708095D01*
X151026905Y-88082381D02*
X151026905Y-87082381D01*
X151265000Y-87082381D01*
X151407858Y-87130000D01*
X151503096Y-87225238D01*
X151550715Y-87320476D01*
X151598334Y-87510952D01*
X151598334Y-87653810D01*
X151550715Y-87844286D01*
X151503096Y-87939524D01*
X151407858Y-88034762D01*
X151265000Y-88082381D01*
X151026905Y-88082381D01*
X151979286Y-87177619D02*
X152026905Y-87130000D01*
X152122143Y-87082381D01*
X152360239Y-87082381D01*
X152455477Y-87130000D01*
X152503096Y-87177619D01*
X152550715Y-87272857D01*
X152550715Y-87368095D01*
X152503096Y-87510952D01*
X151931667Y-88082381D01*
X152550715Y-88082381D01*
X143406905Y-96972381D02*
X143406905Y-95972381D01*
X143645000Y-95972381D01*
X143787858Y-96020000D01*
X143883096Y-96115238D01*
X143930715Y-96210476D01*
X143978334Y-96400952D01*
X143978334Y-96543810D01*
X143930715Y-96734286D01*
X143883096Y-96829524D01*
X143787858Y-96924762D01*
X143645000Y-96972381D01*
X143406905Y-96972381D01*
X144311667Y-95972381D02*
X144930715Y-95972381D01*
X144597381Y-96353333D01*
X144740239Y-96353333D01*
X144835477Y-96400952D01*
X144883096Y-96448571D01*
X144930715Y-96543810D01*
X144930715Y-96781905D01*
X144883096Y-96877143D01*
X144835477Y-96924762D01*
X144740239Y-96972381D01*
X144454524Y-96972381D01*
X144359286Y-96924762D01*
X144311667Y-96877143D01*
X174521905Y-139517381D02*
X174521905Y-138517381D01*
X174760000Y-138517381D01*
X174902858Y-138565000D01*
X174998096Y-138660238D01*
X175045715Y-138755476D01*
X175093334Y-138945952D01*
X175093334Y-139088810D01*
X175045715Y-139279286D01*
X174998096Y-139374524D01*
X174902858Y-139469762D01*
X174760000Y-139517381D01*
X174521905Y-139517381D01*
X175950477Y-138850714D02*
X175950477Y-139517381D01*
X175712381Y-138469762D02*
X175474286Y-139184048D01*
X176093334Y-139184048D01*
X174521905Y-136977381D02*
X174521905Y-135977381D01*
X174760000Y-135977381D01*
X174902858Y-136025000D01*
X174998096Y-136120238D01*
X175045715Y-136215476D01*
X175093334Y-136405952D01*
X175093334Y-136548810D01*
X175045715Y-136739286D01*
X174998096Y-136834524D01*
X174902858Y-136929762D01*
X174760000Y-136977381D01*
X174521905Y-136977381D01*
X175998096Y-135977381D02*
X175521905Y-135977381D01*
X175474286Y-136453571D01*
X175521905Y-136405952D01*
X175617143Y-136358333D01*
X175855239Y-136358333D01*
X175950477Y-136405952D01*
X175998096Y-136453571D01*
X176045715Y-136548810D01*
X176045715Y-136786905D01*
X175998096Y-136882143D01*
X175950477Y-136929762D01*
X175855239Y-136977381D01*
X175617143Y-136977381D01*
X175521905Y-136929762D01*
X175474286Y-136882143D01*
X167536905Y-128087381D02*
X167536905Y-127087381D01*
X167775000Y-127087381D01*
X167917858Y-127135000D01*
X168013096Y-127230238D01*
X168060715Y-127325476D01*
X168108334Y-127515952D01*
X168108334Y-127658810D01*
X168060715Y-127849286D01*
X168013096Y-127944524D01*
X167917858Y-128039762D01*
X167775000Y-128087381D01*
X167536905Y-128087381D01*
X168965477Y-127087381D02*
X168775000Y-127087381D01*
X168679762Y-127135000D01*
X168632143Y-127182619D01*
X168536905Y-127325476D01*
X168489286Y-127515952D01*
X168489286Y-127896905D01*
X168536905Y-127992143D01*
X168584524Y-128039762D01*
X168679762Y-128087381D01*
X168870239Y-128087381D01*
X168965477Y-128039762D01*
X169013096Y-127992143D01*
X169060715Y-127896905D01*
X169060715Y-127658810D01*
X169013096Y-127563571D01*
X168965477Y-127515952D01*
X168870239Y-127468333D01*
X168679762Y-127468333D01*
X168584524Y-127515952D01*
X168536905Y-127563571D01*
X168489286Y-127658810D01*
X167536905Y-125547381D02*
X167536905Y-124547381D01*
X167775000Y-124547381D01*
X167917858Y-124595000D01*
X168013096Y-124690238D01*
X168060715Y-124785476D01*
X168108334Y-124975952D01*
X168108334Y-125118810D01*
X168060715Y-125309286D01*
X168013096Y-125404524D01*
X167917858Y-125499762D01*
X167775000Y-125547381D01*
X167536905Y-125547381D01*
X168441667Y-124547381D02*
X169108334Y-124547381D01*
X168679762Y-125547381D01*
X171981905Y-126182381D02*
X171981905Y-125182381D01*
X172220000Y-125182381D01*
X172362858Y-125230000D01*
X172458096Y-125325238D01*
X172505715Y-125420476D01*
X172553334Y-125610952D01*
X172553334Y-125753810D01*
X172505715Y-125944286D01*
X172458096Y-126039524D01*
X172362858Y-126134762D01*
X172220000Y-126182381D01*
X171981905Y-126182381D01*
X173124762Y-125610952D02*
X173029524Y-125563333D01*
X172981905Y-125515714D01*
X172934286Y-125420476D01*
X172934286Y-125372857D01*
X172981905Y-125277619D01*
X173029524Y-125230000D01*
X173124762Y-125182381D01*
X173315239Y-125182381D01*
X173410477Y-125230000D01*
X173458096Y-125277619D01*
X173505715Y-125372857D01*
X173505715Y-125420476D01*
X173458096Y-125515714D01*
X173410477Y-125563333D01*
X173315239Y-125610952D01*
X173124762Y-125610952D01*
X173029524Y-125658571D01*
X172981905Y-125706190D01*
X172934286Y-125801429D01*
X172934286Y-125991905D01*
X172981905Y-126087143D01*
X173029524Y-126134762D01*
X173124762Y-126182381D01*
X173315239Y-126182381D01*
X173410477Y-126134762D01*
X173458096Y-126087143D01*
X173505715Y-125991905D01*
X173505715Y-125801429D01*
X173458096Y-125706190D01*
X173410477Y-125658571D01*
X173315239Y-125610952D01*
X209446905Y-119197381D02*
X209446905Y-118197381D01*
X209685000Y-118197381D01*
X209827858Y-118245000D01*
X209923096Y-118340238D01*
X209970715Y-118435476D01*
X210018334Y-118625952D01*
X210018334Y-118768810D01*
X209970715Y-118959286D01*
X209923096Y-119054524D01*
X209827858Y-119149762D01*
X209685000Y-119197381D01*
X209446905Y-119197381D01*
X210494524Y-119197381D02*
X210685000Y-119197381D01*
X210780239Y-119149762D01*
X210827858Y-119102143D01*
X210923096Y-118959286D01*
X210970715Y-118768810D01*
X210970715Y-118387857D01*
X210923096Y-118292619D01*
X210875477Y-118245000D01*
X210780239Y-118197381D01*
X210589762Y-118197381D01*
X210494524Y-118245000D01*
X210446905Y-118292619D01*
X210399286Y-118387857D01*
X210399286Y-118625952D01*
X210446905Y-118721190D01*
X210494524Y-118768810D01*
X210589762Y-118816429D01*
X210780239Y-118816429D01*
X210875477Y-118768810D01*
X210923096Y-118721190D01*
X210970715Y-118625952D01*
X207700714Y-102742381D02*
X207700714Y-101742381D01*
X207938809Y-101742381D01*
X208081667Y-101790000D01*
X208176905Y-101885238D01*
X208224524Y-101980476D01*
X208272143Y-102170952D01*
X208272143Y-102313810D01*
X208224524Y-102504286D01*
X208176905Y-102599524D01*
X208081667Y-102694762D01*
X207938809Y-102742381D01*
X207700714Y-102742381D01*
X209224524Y-102742381D02*
X208653095Y-102742381D01*
X208938809Y-102742381D02*
X208938809Y-101742381D01*
X208843571Y-101885238D01*
X208748333Y-101980476D01*
X208653095Y-102028095D01*
X209843571Y-101742381D02*
X209938810Y-101742381D01*
X210034048Y-101790000D01*
X210081667Y-101837619D01*
X210129286Y-101932857D01*
X210176905Y-102123333D01*
X210176905Y-102361429D01*
X210129286Y-102551905D01*
X210081667Y-102647143D01*
X210034048Y-102694762D01*
X209938810Y-102742381D01*
X209843571Y-102742381D01*
X209748333Y-102694762D01*
X209700714Y-102647143D01*
X209653095Y-102551905D01*
X209605476Y-102361429D01*
X209605476Y-102123333D01*
X209653095Y-101932857D01*
X209700714Y-101837619D01*
X209748333Y-101790000D01*
X209843571Y-101742381D01*
X191801905Y-69572381D02*
X191801905Y-68572381D01*
X191801905Y-69048571D02*
X192373334Y-69048571D01*
X192373334Y-69572381D02*
X192373334Y-68572381D01*
X192801905Y-69524762D02*
X192944762Y-69572381D01*
X193182858Y-69572381D01*
X193278096Y-69524762D01*
X193325715Y-69477143D01*
X193373334Y-69381905D01*
X193373334Y-69286667D01*
X193325715Y-69191429D01*
X193278096Y-69143810D01*
X193182858Y-69096190D01*
X192992381Y-69048571D01*
X192897143Y-69000952D01*
X192849524Y-68953333D01*
X192801905Y-68858095D01*
X192801905Y-68762857D01*
X192849524Y-68667619D01*
X192897143Y-68620000D01*
X192992381Y-68572381D01*
X193230477Y-68572381D01*
X193373334Y-68620000D01*
X194325715Y-69572381D02*
X193754286Y-69572381D01*
X194040000Y-69572381D02*
X194040000Y-68572381D01*
X193944762Y-68715238D01*
X193849524Y-68810476D01*
X193754286Y-68858095D01*
X148621905Y-69572381D02*
X148621905Y-68572381D01*
X148621905Y-69048571D02*
X149193334Y-69048571D01*
X149193334Y-69572381D02*
X149193334Y-68572381D01*
X149621905Y-69524762D02*
X149764762Y-69572381D01*
X150002858Y-69572381D01*
X150098096Y-69524762D01*
X150145715Y-69477143D01*
X150193334Y-69381905D01*
X150193334Y-69286667D01*
X150145715Y-69191429D01*
X150098096Y-69143810D01*
X150002858Y-69096190D01*
X149812381Y-69048571D01*
X149717143Y-69000952D01*
X149669524Y-68953333D01*
X149621905Y-68858095D01*
X149621905Y-68762857D01*
X149669524Y-68667619D01*
X149717143Y-68620000D01*
X149812381Y-68572381D01*
X150050477Y-68572381D01*
X150193334Y-68620000D01*
X150574286Y-68667619D02*
X150621905Y-68620000D01*
X150717143Y-68572381D01*
X150955239Y-68572381D01*
X151050477Y-68620000D01*
X151098096Y-68667619D01*
X151145715Y-68762857D01*
X151145715Y-68858095D01*
X151098096Y-69000952D01*
X150526667Y-69572381D01*
X151145715Y-69572381D01*
X211486905Y-105862381D02*
X211486905Y-104862381D01*
X211486905Y-105338571D02*
X212058334Y-105338571D01*
X212058334Y-105862381D02*
X212058334Y-104862381D01*
X212486905Y-105814762D02*
X212629762Y-105862381D01*
X212867858Y-105862381D01*
X212963096Y-105814762D01*
X213010715Y-105767143D01*
X213058334Y-105671905D01*
X213058334Y-105576667D01*
X213010715Y-105481429D01*
X212963096Y-105433810D01*
X212867858Y-105386190D01*
X212677381Y-105338571D01*
X212582143Y-105290952D01*
X212534524Y-105243333D01*
X212486905Y-105148095D01*
X212486905Y-105052857D01*
X212534524Y-104957619D01*
X212582143Y-104910000D01*
X212677381Y-104862381D01*
X212915477Y-104862381D01*
X213058334Y-104910000D01*
X213391667Y-104862381D02*
X214010715Y-104862381D01*
X213677381Y-105243333D01*
X213820239Y-105243333D01*
X213915477Y-105290952D01*
X213963096Y-105338571D01*
X214010715Y-105433810D01*
X214010715Y-105671905D01*
X213963096Y-105767143D01*
X213915477Y-105814762D01*
X213820239Y-105862381D01*
X213534524Y-105862381D01*
X213439286Y-105814762D01*
X213391667Y-105767143D01*
X204771667Y-97877381D02*
X204771667Y-98591667D01*
X204724047Y-98734524D01*
X204628809Y-98829762D01*
X204485952Y-98877381D01*
X204390714Y-98877381D01*
X205771667Y-98877381D02*
X205200238Y-98877381D01*
X205485952Y-98877381D02*
X205485952Y-97877381D01*
X205390714Y-98020238D01*
X205295476Y-98115476D01*
X205200238Y-98163095D01*
X137461667Y-132802381D02*
X137461667Y-133516667D01*
X137414047Y-133659524D01*
X137318809Y-133754762D01*
X137175952Y-133802381D01*
X137080714Y-133802381D01*
X137890238Y-132897619D02*
X137937857Y-132850000D01*
X138033095Y-132802381D01*
X138271191Y-132802381D01*
X138366429Y-132850000D01*
X138414048Y-132897619D01*
X138461667Y-132992857D01*
X138461667Y-133088095D01*
X138414048Y-133230952D01*
X137842619Y-133802381D01*
X138461667Y-133802381D01*
X137461667Y-113752381D02*
X137461667Y-114466667D01*
X137414047Y-114609524D01*
X137318809Y-114704762D01*
X137175952Y-114752381D01*
X137080714Y-114752381D01*
X137842619Y-113752381D02*
X138461667Y-113752381D01*
X138128333Y-114133333D01*
X138271191Y-114133333D01*
X138366429Y-114180952D01*
X138414048Y-114228571D01*
X138461667Y-114323810D01*
X138461667Y-114561905D01*
X138414048Y-114657143D01*
X138366429Y-114704762D01*
X138271191Y-114752381D01*
X137985476Y-114752381D01*
X137890238Y-114704762D01*
X137842619Y-114657143D01*
X205406667Y-133437381D02*
X205406667Y-134151667D01*
X205359047Y-134294524D01*
X205263809Y-134389762D01*
X205120952Y-134437381D01*
X205025714Y-134437381D01*
X206311429Y-133770714D02*
X206311429Y-134437381D01*
X206073333Y-133389762D02*
X205835238Y-134104048D01*
X206454286Y-134104048D01*
X192873334Y-102687381D02*
X192540000Y-102211190D01*
X192301905Y-102687381D02*
X192301905Y-101687381D01*
X192682858Y-101687381D01*
X192778096Y-101735000D01*
X192825715Y-101782619D01*
X192873334Y-101877857D01*
X192873334Y-102020714D01*
X192825715Y-102115952D01*
X192778096Y-102163571D01*
X192682858Y-102211190D01*
X192301905Y-102211190D01*
X193825715Y-102687381D02*
X193254286Y-102687381D01*
X193540000Y-102687381D02*
X193540000Y-101687381D01*
X193444762Y-101830238D01*
X193349524Y-101925476D01*
X193254286Y-101973095D01*
X184618334Y-102687381D02*
X184285000Y-102211190D01*
X184046905Y-102687381D02*
X184046905Y-101687381D01*
X184427858Y-101687381D01*
X184523096Y-101735000D01*
X184570715Y-101782619D01*
X184618334Y-101877857D01*
X184618334Y-102020714D01*
X184570715Y-102115952D01*
X184523096Y-102163571D01*
X184427858Y-102211190D01*
X184046905Y-102211190D01*
X184999286Y-101782619D02*
X185046905Y-101735000D01*
X185142143Y-101687381D01*
X185380239Y-101687381D01*
X185475477Y-101735000D01*
X185523096Y-101782619D01*
X185570715Y-101877857D01*
X185570715Y-101973095D01*
X185523096Y-102115952D01*
X184951667Y-102687381D01*
X185570715Y-102687381D01*
X192873334Y-100147381D02*
X192540000Y-99671190D01*
X192301905Y-100147381D02*
X192301905Y-99147381D01*
X192682858Y-99147381D01*
X192778096Y-99195000D01*
X192825715Y-99242619D01*
X192873334Y-99337857D01*
X192873334Y-99480714D01*
X192825715Y-99575952D01*
X192778096Y-99623571D01*
X192682858Y-99671190D01*
X192301905Y-99671190D01*
X193206667Y-99147381D02*
X193825715Y-99147381D01*
X193492381Y-99528333D01*
X193635239Y-99528333D01*
X193730477Y-99575952D01*
X193778096Y-99623571D01*
X193825715Y-99718810D01*
X193825715Y-99956905D01*
X193778096Y-100052143D01*
X193730477Y-100099762D01*
X193635239Y-100147381D01*
X193349524Y-100147381D01*
X193254286Y-100099762D01*
X193206667Y-100052143D01*
X185253334Y-100147381D02*
X184920000Y-99671190D01*
X184681905Y-100147381D02*
X184681905Y-99147381D01*
X185062858Y-99147381D01*
X185158096Y-99195000D01*
X185205715Y-99242619D01*
X185253334Y-99337857D01*
X185253334Y-99480714D01*
X185205715Y-99575952D01*
X185158096Y-99623571D01*
X185062858Y-99671190D01*
X184681905Y-99671190D01*
X186110477Y-99480714D02*
X186110477Y-100147381D01*
X185872381Y-99099762D02*
X185634286Y-99814048D01*
X186253334Y-99814048D01*
X151757143Y-85542381D02*
X151423809Y-85066190D01*
X151185714Y-85542381D02*
X151185714Y-84542381D01*
X151566667Y-84542381D01*
X151661905Y-84590000D01*
X151709524Y-84637619D01*
X151757143Y-84732857D01*
X151757143Y-84875714D01*
X151709524Y-84970952D01*
X151661905Y-85018571D01*
X151566667Y-85066190D01*
X151185714Y-85066190D01*
X152709524Y-85542381D02*
X152138095Y-85542381D01*
X152423809Y-85542381D02*
X152423809Y-84542381D01*
X152328571Y-84685238D01*
X152233333Y-84780476D01*
X152138095Y-84828095D01*
X153328571Y-84542381D02*
X153423810Y-84542381D01*
X153519048Y-84590000D01*
X153566667Y-84637619D01*
X153614286Y-84732857D01*
X153661905Y-84923333D01*
X153661905Y-85161429D01*
X153614286Y-85351905D01*
X153566667Y-85447143D01*
X153519048Y-85494762D01*
X153423810Y-85542381D01*
X153328571Y-85542381D01*
X153233333Y-85494762D01*
X153185714Y-85447143D01*
X153138095Y-85351905D01*
X153090476Y-85161429D01*
X153090476Y-84923333D01*
X153138095Y-84732857D01*
X153185714Y-84637619D01*
X153233333Y-84590000D01*
X153328571Y-84542381D01*
X140962143Y-93162381D02*
X140628809Y-92686190D01*
X140390714Y-93162381D02*
X140390714Y-92162381D01*
X140771667Y-92162381D01*
X140866905Y-92210000D01*
X140914524Y-92257619D01*
X140962143Y-92352857D01*
X140962143Y-92495714D01*
X140914524Y-92590952D01*
X140866905Y-92638571D01*
X140771667Y-92686190D01*
X140390714Y-92686190D01*
X141914524Y-93162381D02*
X141343095Y-93162381D01*
X141628809Y-93162381D02*
X141628809Y-92162381D01*
X141533571Y-92305238D01*
X141438333Y-92400476D01*
X141343095Y-92448095D01*
X142866905Y-93162381D02*
X142295476Y-93162381D01*
X142581190Y-93162381D02*
X142581190Y-92162381D01*
X142485952Y-92305238D01*
X142390714Y-92400476D01*
X142295476Y-92448095D01*
X181236881Y-132786357D02*
X180760690Y-133119691D01*
X181236881Y-133357786D02*
X180236881Y-133357786D01*
X180236881Y-132976833D01*
X180284500Y-132881595D01*
X180332119Y-132833976D01*
X180427357Y-132786357D01*
X180570214Y-132786357D01*
X180665452Y-132833976D01*
X180713071Y-132881595D01*
X180760690Y-132976833D01*
X180760690Y-133357786D01*
X181236881Y-131833976D02*
X181236881Y-132405405D01*
X181236881Y-132119691D02*
X180236881Y-132119691D01*
X180379738Y-132214929D01*
X180474976Y-132310167D01*
X180522595Y-132405405D01*
X180332119Y-131453024D02*
X180284500Y-131405405D01*
X180236881Y-131310167D01*
X180236881Y-131072071D01*
X180284500Y-130976833D01*
X180332119Y-130929214D01*
X180427357Y-130881595D01*
X180522595Y-130881595D01*
X180665452Y-130929214D01*
X181236881Y-131500643D01*
X181236881Y-130881595D01*
X169537143Y-136342381D02*
X169203809Y-135866190D01*
X168965714Y-136342381D02*
X168965714Y-135342381D01*
X169346667Y-135342381D01*
X169441905Y-135390000D01*
X169489524Y-135437619D01*
X169537143Y-135532857D01*
X169537143Y-135675714D01*
X169489524Y-135770952D01*
X169441905Y-135818571D01*
X169346667Y-135866190D01*
X168965714Y-135866190D01*
X170489524Y-136342381D02*
X169918095Y-136342381D01*
X170203809Y-136342381D02*
X170203809Y-135342381D01*
X170108571Y-135485238D01*
X170013333Y-135580476D01*
X169918095Y-135628095D01*
X170822857Y-135342381D02*
X171441905Y-135342381D01*
X171108571Y-135723333D01*
X171251429Y-135723333D01*
X171346667Y-135770952D01*
X171394286Y-135818571D01*
X171441905Y-135913810D01*
X171441905Y-136151905D01*
X171394286Y-136247143D01*
X171346667Y-136294762D01*
X171251429Y-136342381D01*
X170965714Y-136342381D01*
X170870476Y-136294762D01*
X170822857Y-136247143D01*
X177157143Y-126182381D02*
X176823809Y-125706190D01*
X176585714Y-126182381D02*
X176585714Y-125182381D01*
X176966667Y-125182381D01*
X177061905Y-125230000D01*
X177109524Y-125277619D01*
X177157143Y-125372857D01*
X177157143Y-125515714D01*
X177109524Y-125610952D01*
X177061905Y-125658571D01*
X176966667Y-125706190D01*
X176585714Y-125706190D01*
X178109524Y-126182381D02*
X177538095Y-126182381D01*
X177823809Y-126182381D02*
X177823809Y-125182381D01*
X177728571Y-125325238D01*
X177633333Y-125420476D01*
X177538095Y-125468095D01*
X178966667Y-125515714D02*
X178966667Y-126182381D01*
X178728571Y-125134762D02*
X178490476Y-125849048D01*
X179109524Y-125849048D01*
X200064762Y-94432381D02*
X199731428Y-93956190D01*
X199493333Y-94432381D02*
X199493333Y-93432381D01*
X199874286Y-93432381D01*
X199969524Y-93480000D01*
X200017143Y-93527619D01*
X200064762Y-93622857D01*
X200064762Y-93765714D01*
X200017143Y-93860952D01*
X199969524Y-93908571D01*
X199874286Y-93956190D01*
X199493333Y-93956190D01*
X200350476Y-93432381D02*
X200683809Y-94432381D01*
X201017143Y-93432381D01*
X201874286Y-94432381D02*
X201302857Y-94432381D01*
X201588571Y-94432381D02*
X201588571Y-93432381D01*
X201493333Y-93575238D01*
X201398095Y-93670476D01*
X201302857Y-93718095D01*
X182284762Y-121737381D02*
X181951428Y-121261190D01*
X181713333Y-121737381D02*
X181713333Y-120737381D01*
X182094286Y-120737381D01*
X182189524Y-120785000D01*
X182237143Y-120832619D01*
X182284762Y-120927857D01*
X182284762Y-121070714D01*
X182237143Y-121165952D01*
X182189524Y-121213571D01*
X182094286Y-121261190D01*
X181713333Y-121261190D01*
X182570476Y-120737381D02*
X182903809Y-121737381D01*
X183237143Y-120737381D01*
X183522857Y-120832619D02*
X183570476Y-120785000D01*
X183665714Y-120737381D01*
X183903810Y-120737381D01*
X183999048Y-120785000D01*
X184046667Y-120832619D01*
X184094286Y-120927857D01*
X184094286Y-121023095D01*
X184046667Y-121165952D01*
X183475238Y-121737381D01*
X184094286Y-121737381D01*
X159424762Y-121737381D02*
X159091428Y-121261190D01*
X158853333Y-121737381D02*
X158853333Y-120737381D01*
X159234286Y-120737381D01*
X159329524Y-120785000D01*
X159377143Y-120832619D01*
X159424762Y-120927857D01*
X159424762Y-121070714D01*
X159377143Y-121165952D01*
X159329524Y-121213571D01*
X159234286Y-121261190D01*
X158853333Y-121261190D01*
X159710476Y-120737381D02*
X160043809Y-121737381D01*
X160377143Y-120737381D01*
X160615238Y-120737381D02*
X161234286Y-120737381D01*
X160900952Y-121118333D01*
X161043810Y-121118333D01*
X161139048Y-121165952D01*
X161186667Y-121213571D01*
X161234286Y-121308810D01*
X161234286Y-121546905D01*
X161186667Y-121642143D01*
X161139048Y-121689762D01*
X161043810Y-121737381D01*
X160758095Y-121737381D01*
X160662857Y-121689762D01*
X160615238Y-121642143D01*
X194668095Y-111212381D02*
X194668095Y-112021905D01*
X194715714Y-112117143D01*
X194763333Y-112164762D01*
X194858571Y-112212381D01*
X195049048Y-112212381D01*
X195144286Y-112164762D01*
X195191905Y-112117143D01*
X195239524Y-112021905D01*
X195239524Y-111212381D01*
X196239524Y-112212381D02*
X195668095Y-112212381D01*
X195953809Y-112212381D02*
X195953809Y-111212381D01*
X195858571Y-111355238D01*
X195763333Y-111450476D01*
X195668095Y-111498095D01*
X192278095Y-70699381D02*
X192278095Y-71508905D01*
X192325714Y-71604143D01*
X192373333Y-71651762D01*
X192468571Y-71699381D01*
X192659048Y-71699381D01*
X192754286Y-71651762D01*
X192801905Y-71604143D01*
X192849524Y-71508905D01*
X192849524Y-70699381D01*
X193278095Y-70794619D02*
X193325714Y-70747000D01*
X193420952Y-70699381D01*
X193659048Y-70699381D01*
X193754286Y-70747000D01*
X193801905Y-70794619D01*
X193849524Y-70889857D01*
X193849524Y-70985095D01*
X193801905Y-71127952D01*
X193230476Y-71699381D01*
X193849524Y-71699381D01*
X149098095Y-70699381D02*
X149098095Y-71508905D01*
X149145714Y-71604143D01*
X149193333Y-71651762D01*
X149288571Y-71699381D01*
X149479048Y-71699381D01*
X149574286Y-71651762D01*
X149621905Y-71604143D01*
X149669524Y-71508905D01*
X149669524Y-70699381D01*
X150050476Y-70699381D02*
X150669524Y-70699381D01*
X150336190Y-71080333D01*
X150479048Y-71080333D01*
X150574286Y-71127952D01*
X150621905Y-71175571D01*
X150669524Y-71270810D01*
X150669524Y-71508905D01*
X150621905Y-71604143D01*
X150574286Y-71651762D01*
X150479048Y-71699381D01*
X150193333Y-71699381D01*
X150098095Y-71651762D01*
X150050476Y-71604143D01*
X151638095Y-92162381D02*
X151638095Y-92971905D01*
X151685714Y-93067143D01*
X151733333Y-93114762D01*
X151828571Y-93162381D01*
X152019048Y-93162381D01*
X152114286Y-93114762D01*
X152161905Y-93067143D01*
X152209524Y-92971905D01*
X152209524Y-92162381D01*
X153114286Y-92495714D02*
X153114286Y-93162381D01*
X152876190Y-92114762D02*
X152638095Y-92829048D01*
X153257143Y-92829048D01*
X173863095Y-134453381D02*
X173863095Y-135262905D01*
X173910714Y-135358143D01*
X173958333Y-135405762D01*
X174053571Y-135453381D01*
X174244048Y-135453381D01*
X174339286Y-135405762D01*
X174386905Y-135358143D01*
X174434524Y-135262905D01*
X174434524Y-134453381D01*
X175386905Y-134453381D02*
X174910714Y-134453381D01*
X174863095Y-134929571D01*
X174910714Y-134881952D01*
X175005952Y-134834333D01*
X175244048Y-134834333D01*
X175339286Y-134881952D01*
X175386905Y-134929571D01*
X175434524Y-135024810D01*
X175434524Y-135262905D01*
X175386905Y-135358143D01*
X175339286Y-135405762D01*
X175244048Y-135453381D01*
X175005952Y-135453381D01*
X174910714Y-135405762D01*
X174863095Y-135358143D01*
X168783095Y-131532381D02*
X168783095Y-132341905D01*
X168830714Y-132437143D01*
X168878333Y-132484762D01*
X168973571Y-132532381D01*
X169164048Y-132532381D01*
X169259286Y-132484762D01*
X169306905Y-132437143D01*
X169354524Y-132341905D01*
X169354524Y-131532381D01*
X170259286Y-131532381D02*
X170068809Y-131532381D01*
X169973571Y-131580000D01*
X169925952Y-131627619D01*
X169830714Y-131770476D01*
X169783095Y-131960952D01*
X169783095Y-132341905D01*
X169830714Y-132437143D01*
X169878333Y-132484762D01*
X169973571Y-132532381D01*
X170164048Y-132532381D01*
X170259286Y-132484762D01*
X170306905Y-132437143D01*
X170354524Y-132341905D01*
X170354524Y-132103810D01*
X170306905Y-132008571D01*
X170259286Y-131960952D01*
X170164048Y-131913333D01*
X169973571Y-131913333D01*
X169878333Y-131960952D01*
X169830714Y-132008571D01*
X169783095Y-132103810D01*
X175768095Y-105012381D02*
X175768095Y-105821905D01*
X175815714Y-105917143D01*
X175863333Y-105964762D01*
X175958571Y-106012381D01*
X176149048Y-106012381D01*
X176244286Y-105964762D01*
X176291905Y-105917143D01*
X176339524Y-105821905D01*
X176339524Y-105012381D01*
X176720476Y-105012381D02*
X177387143Y-105012381D01*
X176958571Y-106012381D01*
X210693095Y-109942381D02*
X210693095Y-110751905D01*
X210740714Y-110847143D01*
X210788333Y-110894762D01*
X210883571Y-110942381D01*
X211074048Y-110942381D01*
X211169286Y-110894762D01*
X211216905Y-110847143D01*
X211264524Y-110751905D01*
X211264524Y-109942381D01*
X211883571Y-110370952D02*
X211788333Y-110323333D01*
X211740714Y-110275714D01*
X211693095Y-110180476D01*
X211693095Y-110132857D01*
X211740714Y-110037619D01*
X211788333Y-109990000D01*
X211883571Y-109942381D01*
X212074048Y-109942381D01*
X212169286Y-109990000D01*
X212216905Y-110037619D01*
X212264524Y-110132857D01*
X212264524Y-110180476D01*
X212216905Y-110275714D01*
X212169286Y-110323333D01*
X212074048Y-110370952D01*
X211883571Y-110370952D01*
X211788333Y-110418571D01*
X211740714Y-110466190D01*
X211693095Y-110561429D01*
X211693095Y-110751905D01*
X211740714Y-110847143D01*
X211788333Y-110894762D01*
X211883571Y-110942381D01*
X212074048Y-110942381D01*
X212169286Y-110894762D01*
X212216905Y-110847143D01*
X212264524Y-110751905D01*
X212264524Y-110561429D01*
X212216905Y-110466190D01*
X212169286Y-110418571D01*
X212074048Y-110370952D01*
X189063334Y-85542381D02*
X188730000Y-85066190D01*
X188491905Y-85542381D02*
X188491905Y-84542381D01*
X188872858Y-84542381D01*
X188968096Y-84590000D01*
X189015715Y-84637619D01*
X189063334Y-84732857D01*
X189063334Y-84875714D01*
X189015715Y-84970952D01*
X188968096Y-85018571D01*
X188872858Y-85066190D01*
X188491905Y-85066190D01*
X189968096Y-84542381D02*
X189491905Y-84542381D01*
X189444286Y-85018571D01*
X189491905Y-84970952D01*
X189587143Y-84923333D01*
X189825239Y-84923333D01*
X189920477Y-84970952D01*
X189968096Y-85018571D01*
X190015715Y-85113810D01*
X190015715Y-85351905D01*
X189968096Y-85447143D01*
X189920477Y-85494762D01*
X189825239Y-85542381D01*
X189587143Y-85542381D01*
X189491905Y-85494762D01*
X189444286Y-85447143D01*
X189063334Y-88082381D02*
X188730000Y-87606190D01*
X188491905Y-88082381D02*
X188491905Y-87082381D01*
X188872858Y-87082381D01*
X188968096Y-87130000D01*
X189015715Y-87177619D01*
X189063334Y-87272857D01*
X189063334Y-87415714D01*
X189015715Y-87510952D01*
X188968096Y-87558571D01*
X188872858Y-87606190D01*
X188491905Y-87606190D01*
X189920477Y-87082381D02*
X189730000Y-87082381D01*
X189634762Y-87130000D01*
X189587143Y-87177619D01*
X189491905Y-87320476D01*
X189444286Y-87510952D01*
X189444286Y-87891905D01*
X189491905Y-87987143D01*
X189539524Y-88034762D01*
X189634762Y-88082381D01*
X189825239Y-88082381D01*
X189920477Y-88034762D01*
X189968096Y-87987143D01*
X190015715Y-87891905D01*
X190015715Y-87653810D01*
X189968096Y-87558571D01*
X189920477Y-87510952D01*
X189825239Y-87463333D01*
X189634762Y-87463333D01*
X189539524Y-87510952D01*
X189491905Y-87558571D01*
X189444286Y-87653810D01*
X189063334Y-90622381D02*
X188730000Y-90146190D01*
X188491905Y-90622381D02*
X188491905Y-89622381D01*
X188872858Y-89622381D01*
X188968096Y-89670000D01*
X189015715Y-89717619D01*
X189063334Y-89812857D01*
X189063334Y-89955714D01*
X189015715Y-90050952D01*
X188968096Y-90098571D01*
X188872858Y-90146190D01*
X188491905Y-90146190D01*
X189396667Y-89622381D02*
X190063334Y-89622381D01*
X189634762Y-90622381D01*
X189063334Y-93162381D02*
X188730000Y-92686190D01*
X188491905Y-93162381D02*
X188491905Y-92162381D01*
X188872858Y-92162381D01*
X188968096Y-92210000D01*
X189015715Y-92257619D01*
X189063334Y-92352857D01*
X189063334Y-92495714D01*
X189015715Y-92590952D01*
X188968096Y-92638571D01*
X188872858Y-92686190D01*
X188491905Y-92686190D01*
X189634762Y-92590952D02*
X189539524Y-92543333D01*
X189491905Y-92495714D01*
X189444286Y-92400476D01*
X189444286Y-92352857D01*
X189491905Y-92257619D01*
X189539524Y-92210000D01*
X189634762Y-92162381D01*
X189825239Y-92162381D01*
X189920477Y-92210000D01*
X189968096Y-92257619D01*
X190015715Y-92352857D01*
X190015715Y-92400476D01*
X189968096Y-92495714D01*
X189920477Y-92543333D01*
X189825239Y-92590952D01*
X189634762Y-92590952D01*
X189539524Y-92638571D01*
X189491905Y-92686190D01*
X189444286Y-92781429D01*
X189444286Y-92971905D01*
X189491905Y-93067143D01*
X189539524Y-93114762D01*
X189634762Y-93162381D01*
X189825239Y-93162381D01*
X189920477Y-93114762D01*
X189968096Y-93067143D01*
X190015715Y-92971905D01*
X190015715Y-92781429D01*
X189968096Y-92686190D01*
X189920477Y-92638571D01*
X189825239Y-92590952D01*
X189063334Y-95702381D02*
X188730000Y-95226190D01*
X188491905Y-95702381D02*
X188491905Y-94702381D01*
X188872858Y-94702381D01*
X188968096Y-94750000D01*
X189015715Y-94797619D01*
X189063334Y-94892857D01*
X189063334Y-95035714D01*
X189015715Y-95130952D01*
X188968096Y-95178571D01*
X188872858Y-95226190D01*
X188491905Y-95226190D01*
X189539524Y-95702381D02*
X189730000Y-95702381D01*
X189825239Y-95654762D01*
X189872858Y-95607143D01*
X189968096Y-95464286D01*
X190015715Y-95273810D01*
X190015715Y-94892857D01*
X189968096Y-94797619D01*
X189920477Y-94750000D01*
X189825239Y-94702381D01*
X189634762Y-94702381D01*
X189539524Y-94750000D01*
X189491905Y-94797619D01*
X189444286Y-94892857D01*
X189444286Y-95130952D01*
X189491905Y-95226190D01*
X189539524Y-95273810D01*
X189634762Y-95321429D01*
X189825239Y-95321429D01*
X189920477Y-95273810D01*
X189968096Y-95226190D01*
X190015715Y-95130952D01*
M02*
